<?xml version="1.0" encoding="UTF-8"?>
<!--
Font Awesome Free 5.9.0 by @fontawesome - https://fontawesome.com
License - https://fontawesome.com/license/free (Icons: CC BY 4.0, Fonts: SIL OFL 1.1, Code: MIT License)
-->
<svg xmlns="http://www.w3.org/2000/svg" style="display: none;">
  <symbol id="gamepad" viewBox="0 0 640 512">
    <path d="M480 96H160C71.6 96 0 167.6 0 256s71.6 160 160 160c44.8 0 85.2-18.4 114.2-48h91.5c29 29.6 69.5 48 114.2 48 88.4 0 160-71.6 160-160S568.4 96 480 96zM256 276c0 6.6-5.4 12-12 12h-52v52c0 6.6-5.4 12-12 12h-40c-6.6 0-12-5.4-12-12v-52H76c-6.6 0-12-5.4-12-12v-40c0-6.6 5.4-12 12-12h52v-52c0-6.6 5.4-12 12-12h40c6.6 0 12 5.4 12 12v52h52c6.6 0 12 5.4 12 12v40zm184 68c-26.5 0-48-21.5-48-48s21.5-48 48-48 48 21.5 48 48-21.5 48-48 48zm80-80c-26.5 0-48-21.5-48-48s21.5-48 48-48 48 21.5 48 48-21.5 48-48 48z"></path>
  </symbol>
  <symbol id="gas-pump" viewBox="0 0 512 512">
    <path d="M336 448H16c-8.8 0-16 7.2-16 16v32c0 8.8 7.2 16 16 16h320c8.8 0 16-7.2 16-16v-32c0-8.8-7.2-16-16-16zm157.2-340.7l-81-81c-6.2-6.2-16.4-6.2-22.6 0l-11.3 11.3c-6.2 6.2-6.2 16.4 0 22.6L416 97.9V160c0 28.1 20.9 51.3 48 55.2V376c0 13.2-10.8 24-24 24s-24-10.8-24-24v-32c0-48.6-39.4-88-88-88h-8V64c0-35.3-28.7-64-64-64H96C60.7 0 32 28.7 32 64v352h288V304h8c22.1 0 40 17.9 40 40v27.8c0 37.7 27 72 64.5 75.9 43 4.3 79.5-29.5 79.5-71.7V152.6c0-17-6.8-33.3-18.8-45.3zM256 192H96V64h160v128z"></path>
  </symbol>
  <symbol id="gavel" viewBox="0 0 512 512">
    <path d="M504.971 199.362l-22.627-22.627c-9.373-9.373-24.569-9.373-33.941 0l-5.657 5.657L329.608 69.255l5.657-5.657c9.373-9.373 9.373-24.569 0-33.941L312.638 7.029c-9.373-9.373-24.569-9.373-33.941 0L154.246 131.48c-9.373 9.373-9.373 24.569 0 33.941l22.627 22.627c9.373 9.373 24.569 9.373 33.941 0l5.657-5.657 39.598 39.598-81.04 81.04-5.657-5.657c-12.497-12.497-32.758-12.497-45.255 0L9.373 412.118c-12.497 12.497-12.497 32.758 0 45.255l45.255 45.255c12.497 12.497 32.758 12.497 45.255 0l114.745-114.745c12.497-12.497 12.497-32.758 0-45.255l-5.657-5.657 81.04-81.04 39.598 39.598-5.657 5.657c-9.373 9.373-9.373 24.569 0 33.941l22.627 22.627c9.373 9.373 24.569 9.373 33.941 0l124.451-124.451c9.372-9.372 9.372-24.568 0-33.941z"></path>
  </symbol>
  <symbol id="gem" viewBox="0 0 576 512">
    <path d="M485.5 0L576 160H474.9L405.7 0h79.8zm-128 0l69.2 160H149.3L218.5 0h139zm-267 0h79.8l-69.2 160H0L90.5 0zM0 192h100.7l123 251.7c1.5 3.1-2.7 5.9-5 3.3L0 192zm148.2 0h279.6l-137 318.2c-1 2.4-4.5 2.4-5.5 0L148.2 192zm204.1 251.7l123-251.7H576L357.3 446.9c-2.3 2.7-6.5-.1-5-3.2z"></path>
  </symbol>
  <symbol id="genderless" viewBox="0 0 288 512">
    <path d="M144 176c44.1 0 80 35.9 80 80s-35.9 80-80 80-80-35.9-80-80 35.9-80 80-80m0-64C64.5 112 0 176.5 0 256s64.5 144 144 144 144-64.5 144-144-64.5-144-144-144z"></path>
  </symbol>
  <symbol id="ghost" viewBox="0 0 384 512">
    <path d="M186.1.09C81.01 3.24 0 94.92 0 200.05v263.92c0 14.26 17.23 21.39 27.31 11.31l24.92-18.53c6.66-4.95 16-3.99 21.51 2.21l42.95 48.35c6.25 6.25 16.38 6.25 22.63 0l40.72-45.85c6.37-7.17 17.56-7.17 23.92 0l40.72 45.85c6.25 6.25 16.38 6.25 22.63 0l42.95-48.35c5.51-6.2 14.85-7.17 21.51-2.21l24.92 18.53c10.08 10.08 27.31 2.94 27.31-11.31V192C384 84 294.83-3.17 186.1.09zM128 224c-17.67 0-32-14.33-32-32s14.33-32 32-32 32 14.33 32 32-14.33 32-32 32zm128 0c-17.67 0-32-14.33-32-32s14.33-32 32-32 32 14.33 32 32-14.33 32-32 32z"></path>
  </symbol>
  <symbol id="gift" viewBox="0 0 512 512">
    <path d="M32 448c0 17.7 14.3 32 32 32h160V320H32v128zm256 32h160c17.7 0 32-14.3 32-32V320H288v160zm192-320h-42.1c6.2-12.1 10.1-25.5 10.1-40 0-48.5-39.5-88-88-88-41.6 0-68.5 21.3-103 68.3-34.5-47-61.4-68.3-103-68.3-48.5 0-88 39.5-88 88 0 14.5 3.8 27.9 10.1 40H32c-17.7 0-32 14.3-32 32v80c0 8.8 7.2 16 16 16h480c8.8 0 16-7.2 16-16v-80c0-17.7-14.3-32-32-32zm-326.1 0c-22.1 0-40-17.9-40-40s17.9-40 40-40c19.9 0 34.6 3.3 86.1 80h-86.1zm206.1 0h-86.1c51.4-76.5 65.7-80 86.1-80 22.1 0 40 17.9 40 40s-17.9 40-40 40z"></path>
  </symbol>
  <symbol id="gifts" viewBox="0 0 640 512">
    <path d="M240.6 194.1c1.9-30.8 17.3-61.2 44-79.8C279.4 103.5 268.7 96 256 96h-29.4l30.7-22c7.2-5.1 8.9-15.1 3.7-22.3l-9.3-13c-5.1-7.2-15.1-8.9-22.3-3.7l-32 22.9 11.5-30.6c3.1-8.3-1.1-17.5-9.4-20.6l-15-5.6c-8.3-3.1-17.5 1.1-20.6 9.4l-19.9 53-19.9-53.1C121 2.1 111.8-2.1 103.5 1l-15 5.6C80.2 9.7 76 19 79.2 27.2l11.5 30.6L58.6 35c-7.2-5.1-17.2-3.5-22.3 3.7l-9.3 13c-5.1 7.2-3.5 17.2 3.7 22.3l30.7 22H32c-17.7 0-32 14.3-32 32v352c0 17.7 14.3 32 32 32h168.9c-5.5-9.5-8.9-20.3-8.9-32V256c0-29.9 20.8-55 48.6-61.9zM224 480c0 17.7 14.3 32 32 32h160V384H224v96zm224 32h160c17.7 0 32-14.3 32-32v-96H448v128zm160-288h-20.4c2.6-7.6 4.4-15.5 4.4-23.8 0-35.5-27-72.2-72.1-72.2-48.1 0-75.9 47.7-87.9 75.3-12.1-27.6-39.9-75.3-87.9-75.3-45.1 0-72.1 36.7-72.1 72.2 0 8.3 1.7 16.2 4.4 23.8H256c-17.7 0-32 14.3-32 32v96h192V224h15.3l.7-.2.7.2H448v128h192v-96c0-17.7-14.3-32-32-32zm-272 0c-2.7-1.4-5.1-3-7.2-4.8-7.3-6.4-8.8-13.8-8.8-19 0-9.7 6.4-24.2 24.1-24.2 18.7 0 35.6 27.4 44.5 48H336zm199.2-4.8c-2.1 1.8-4.5 3.4-7.2 4.8h-52.6c8.8-20.3 25.8-48 44.5-48 17.7 0 24.1 14.5 24.1 24.2 0 5.2-1.5 12.6-8.8 19z"></path>
  </symbol>
  <symbol id="glass-cheers" viewBox="0 0 640 512">
    <path d="M639.4 433.6c-8.4-20.4-31.8-30.1-52.2-21.6l-22.1 9.2-38.7-101.9c47.9-35 64.8-100.3 34.5-152.8L474.3 16c-8-13.9-25.1-19.7-40-13.6L320 49.8 205.7 2.4c-14.9-6.2-32-.3-40 13.6L79.1 166.5C48.9 219 65.7 284.3 113.6 319.2L74.9 421.1l-22.1-9.2c-20.4-8.5-43.7 1.2-52.2 21.6-1.7 4.1.2 8.8 4.3 10.5l162.3 67.4c4.1 1.7 8.7-.2 10.4-4.3 8.4-20.4-1.2-43.8-21.6-52.3l-22.1-9.2L173.3 342c4.4.5 8.8 1.3 13.1 1.3 51.7 0 99.4-33.1 113.4-85.3l20.2-75.4 20.2 75.4c14 52.2 61.7 85.3 113.4 85.3 4.3 0 8.7-.8 13.1-1.3L506 445.6l-22.1 9.2c-20.4 8.5-30.1 31.9-21.6 52.3 1.7 4.1 6.4 6 10.4 4.3L635.1 444c4-1.7 6-6.3 4.3-10.4zM275.9 162.1l-112.1-46.5 36.5-63.4 94.5 39.2-18.9 70.7zm88.2 0l-18.9-70.7 94.5-39.2 36.5 63.4-112.1 46.5z"></path>
  </symbol>
  <symbol id="glass-martini" viewBox="0 0 512 512">
    <path d="M502.05 57.6C523.3 36.34 508.25 0 478.2 0H33.8C3.75 0-11.3 36.34 9.95 57.6L224 271.64V464h-56c-22.09 0-40 17.91-40 40 0 4.42 3.58 8 8 8h240c4.42 0 8-3.58 8-8 0-22.09-17.91-40-40-40h-56V271.64L502.05 57.6z"></path>
  </symbol>
  <symbol id="glass-martini-alt" viewBox="0 0 512 512">
    <path d="M502.05 57.6C523.3 36.34 508.25 0 478.2 0H33.8C3.75 0-11.3 36.34 9.95 57.6L224 271.64V464h-56c-22.09 0-40 17.91-40 40 0 4.42 3.58 8 8 8h240c4.42 0 8-3.58 8-8 0-22.09-17.91-40-40-40h-56V271.64L502.05 57.6zM443.77 48l-48 48H116.24l-48-48h375.53z"></path>
  </symbol>
  <symbol id="glass-whiskey" viewBox="0 0 512 512">
    <path d="M480 32H32C12.5 32-2.4 49.2.3 68.5l56 356.5c4.5 31.5 31.5 54.9 63.4 54.9h273c31.8 0 58.9-23.4 63.4-54.9l55.6-356.5C514.4 49.2 499.5 32 480 32zm-37.4 64l-30 192h-313L69.4 96h373.2z"></path>
  </symbol>
  <symbol id="glasses" viewBox="0 0 576 512">
    <path d="M574.1 280.37L528.75 98.66c-5.91-23.7-21.59-44.05-43-55.81-21.44-11.73-46.97-14.11-70.19-6.33l-15.25 5.08c-8.39 2.79-12.92 11.86-10.12 20.24l5.06 15.18c2.79 8.38 11.85 12.91 20.23 10.12l13.18-4.39c10.87-3.62 23-3.57 33.16 1.73 10.29 5.37 17.57 14.56 20.37 25.82l38.46 153.82c-22.19-6.81-49.79-12.46-81.2-12.46-34.77 0-73.98 7.02-114.85 26.74h-73.18c-40.87-19.74-80.08-26.75-114.86-26.75-31.42 0-59.02 5.65-81.21 12.46l38.46-153.83c2.79-11.25 10.09-20.45 20.38-25.81 10.16-5.3 22.28-5.35 33.15-1.73l13.17 4.39c8.38 2.79 17.44-1.74 20.23-10.12l5.06-15.18c2.8-8.38-1.73-17.45-10.12-20.24l-15.25-5.08c-23.22-7.78-48.75-5.41-70.19 6.33-21.41 11.77-37.09 32.11-43 55.8L1.9 280.37A64.218 64.218 0 0 0 0 295.86v70.25C0 429.01 51.58 480 115.2 480h37.12c60.28 0 110.37-45.94 114.88-105.37l2.93-38.63h35.75l2.93 38.63C313.31 434.06 363.4 480 423.68 480h37.12c63.62 0 115.2-50.99 115.2-113.88v-70.25c0-5.23-.64-10.43-1.9-15.5zm-370.72 89.42c-1.97 25.91-24.4 46.21-51.06 46.21H115.2C86.97 416 64 393.62 64 366.11v-37.54c18.12-6.49 43.42-12.92 72.58-12.92 23.86 0 47.26 4.33 69.93 12.92l-3.13 41.22zM512 366.12c0 27.51-22.97 49.88-51.2 49.88h-37.12c-26.67 0-49.1-20.3-51.06-46.21l-3.13-41.22c22.67-8.59 46.08-12.92 69.95-12.92 29.12 0 54.43 6.44 72.55 12.93v37.54z"></path>
  </symbol>
  <symbol id="globe" viewBox="0 0 496 512">
    <path d="M336.5 160C322 70.7 287.8 8 248 8s-74 62.7-88.5 152h177zM152 256c0 22.2 1.2 43.5 3.3 64h185.3c2.1-20.5 3.3-41.8 3.3-64s-1.2-43.5-3.3-64H155.3c-2.1 20.5-3.3 41.8-3.3 64zm324.7-96c-28.6-67.9-86.5-120.4-158-141.6 24.4 33.8 41.2 84.7 50 141.6h108zM177.2 18.4C105.8 39.6 47.8 92.1 19.3 160h108c8.7-56.9 25.5-107.8 49.9-141.6zM487.4 192H372.7c2.1 21 3.3 42.5 3.3 64s-1.2 43-3.3 64h114.6c5.5-20.5 8.6-41.8 8.6-64s-3.1-43.5-8.5-64zM120 256c0-21.5 1.2-43 3.3-64H8.6C3.2 212.5 0 233.8 0 256s3.2 43.5 8.6 64h114.6c-2-21-3.2-42.5-3.2-64zm39.5 96c14.5 89.3 48.7 152 88.5 152s74-62.7 88.5-152h-177zm159.3 141.6c71.4-21.2 129.4-73.7 158-141.6h-108c-8.8 56.9-25.6 107.8-50 141.6zM19.3 352c28.6 67.9 86.5 120.4 158 141.6-24.4-33.8-41.2-84.7-50-141.6h-108z"></path>
  </symbol>
  <symbol id="globe-africa" viewBox="0 0 496 512">
    <path d="M248 8C111.03 8 0 119.03 0 256s111.03 248 248 248 248-111.03 248-248S384.97 8 248 8zm160 215.5v6.93c0 5.87-3.32 11.24-8.57 13.86l-15.39 7.7a15.485 15.485 0 0 1-15.53-.97l-18.21-12.14a15.52 15.52 0 0 0-13.5-1.81l-2.65.88c-9.7 3.23-13.66 14.79-7.99 23.3l13.24 19.86c2.87 4.31 7.71 6.9 12.89 6.9h8.21c8.56 0 15.5 6.94 15.5 15.5v11.34c0 3.35-1.09 6.62-3.1 9.3l-18.74 24.98c-1.42 1.9-2.39 4.1-2.83 6.43l-4.3 22.83c-.62 3.29-2.29 6.29-4.76 8.56a159.608 159.608 0 0 0-25 29.16l-13.03 19.55a27.756 27.756 0 0 1-23.09 12.36c-10.51 0-20.12-5.94-24.82-15.34a78.902 78.902 0 0 1-8.33-35.29V367.5c0-8.56-6.94-15.5-15.5-15.5h-25.88c-14.49 0-28.38-5.76-38.63-16a54.659 54.659 0 0 1-16-38.63v-14.06c0-17.19 8.1-33.38 21.85-43.7l27.58-20.69a54.663 54.663 0 0 1 32.78-10.93h.89c8.48 0 16.85 1.97 24.43 5.77l14.72 7.36c3.68 1.84 7.93 2.14 11.83.84l47.31-15.77c6.33-2.11 10.6-8.03 10.6-14.7 0-8.56-6.94-15.5-15.5-15.5h-10.09c-4.11 0-8.05-1.63-10.96-4.54l-6.92-6.92a15.493 15.493 0 0 0-10.96-4.54H199.5c-8.56 0-15.5-6.94-15.5-15.5v-4.4c0-7.11 4.84-13.31 11.74-15.04l14.45-3.61c3.74-.94 7-3.23 9.14-6.44l8.08-12.11c2.87-4.31 7.71-6.9 12.89-6.9h24.21c8.56 0 15.5-6.94 15.5-15.5v-21.7C359.23 71.63 422.86 131.02 441.93 208H423.5c-8.56 0-15.5 6.94-15.5 15.5z"></path>
  </symbol>
  <symbol id="globe-americas" viewBox="0 0 496 512">
    <path d="M248 8C111.03 8 0 119.03 0 256s111.03 248 248 248 248-111.03 248-248S384.97 8 248 8zm82.29 357.6c-3.9 3.88-7.99 7.95-11.31 11.28-2.99 3-5.1 6.7-6.17 10.71-1.51 5.66-2.73 11.38-4.77 16.87l-17.39 46.85c-13.76 3-28 4.69-42.65 4.69v-27.38c1.69-12.62-7.64-36.26-22.63-51.25-6-6-9.37-14.14-9.37-22.63v-32.01c0-11.64-6.27-22.34-16.46-27.97-14.37-7.95-34.81-19.06-48.81-26.11-11.48-5.78-22.1-13.14-31.65-21.75l-.8-.72a114.792 114.792 0 0 1-18.06-20.74c-9.38-13.77-24.66-36.42-34.59-51.14 20.47-45.5 57.36-82.04 103.2-101.89l24.01 12.01C203.48 89.74 216 82.01 216 70.11v-11.3c7.99-1.29 16.12-2.11 24.39-2.42l28.3 28.3c6.25 6.25 6.25 16.38 0 22.63L264 112l-10.34 10.34c-3.12 3.12-3.12 8.19 0 11.31l4.69 4.69c3.12 3.12 3.12 8.19 0 11.31l-8 8a8.008 8.008 0 0 1-5.66 2.34h-8.99c-2.08 0-4.08.81-5.58 2.27l-9.92 9.65a8.008 8.008 0 0 0-1.58 9.31l15.59 31.19c2.66 5.32-1.21 11.58-7.15 11.58h-5.64c-1.93 0-3.79-.7-5.24-1.96l-9.28-8.06a16.017 16.017 0 0 0-15.55-3.1l-31.17 10.39a11.95 11.95 0 0 0-8.17 11.34c0 4.53 2.56 8.66 6.61 10.69l11.08 5.54c9.41 4.71 19.79 7.16 30.31 7.16s22.59 27.29 32 32h66.75c8.49 0 16.62 3.37 22.63 9.37l13.69 13.69a30.503 30.503 0 0 1 8.93 21.57 46.536 46.536 0 0 1-13.72 32.98zM417 274.25c-5.79-1.45-10.84-5-14.15-9.97l-17.98-26.97a23.97 23.97 0 0 1 0-26.62l19.59-29.38c2.32-3.47 5.5-6.29 9.24-8.15l12.98-6.49C440.2 193.59 448 223.87 448 256c0 8.67-.74 17.16-1.82 25.54L417 274.25z"></path>
  </symbol>
  <symbol id="globe-asia" viewBox="0 0 496 512">
    <path d="M248 8C111.03 8 0 119.03 0 256s111.03 248 248 248 248-111.03 248-248S384.97 8 248 8zm-11.34 240.23c-2.89 4.82-8.1 7.77-13.72 7.77h-.31c-4.24 0-8.31 1.69-11.31 4.69l-5.66 5.66c-3.12 3.12-3.12 8.19 0 11.31l5.66 5.66c3 3 4.69 7.07 4.69 11.31V304c0 8.84-7.16 16-16 16h-6.11c-6.06 0-11.6-3.42-14.31-8.85l-22.62-45.23c-2.44-4.88-8.95-5.94-12.81-2.08l-19.47 19.46c-3 3-7.07 4.69-11.31 4.69H50.81C49.12 277.55 48 266.92 48 256c0-110.28 89.72-200 200-200 21.51 0 42.2 3.51 61.63 9.82l-50.16 38.53c-5.11 3.41-4.63 11.06.86 13.81l10.83 5.41c5.42 2.71 8.84 8.25 8.84 14.31V216c0 4.42-3.58 8-8 8h-3.06c-3.03 0-5.8-1.71-7.15-4.42-1.56-3.12-5.96-3.29-7.76-.3l-17.37 28.95zM408 358.43c0 4.24-1.69 8.31-4.69 11.31l-9.57 9.57c-3 3-7.07 4.69-11.31 4.69h-15.16c-4.24 0-8.31-1.69-11.31-4.69l-13.01-13.01a26.767 26.767 0 0 0-25.42-7.04l-21.27 5.32c-1.27.32-2.57.48-3.88.48h-10.34c-4.24 0-8.31-1.69-11.31-4.69l-11.91-11.91a8.008 8.008 0 0 1-2.34-5.66v-10.2c0-3.27 1.99-6.21 5.03-7.43l39.34-15.74c1.98-.79 3.86-1.82 5.59-3.05l23.71-16.89a7.978 7.978 0 0 1 4.64-1.48h12.09c3.23 0 6.15 1.94 7.39 4.93l5.35 12.85a4 4 0 0 0 3.69 2.46h3.8c1.78 0 3.35-1.18 3.84-2.88l4.2-14.47c.5-1.71 2.06-2.88 3.84-2.88h6.06c2.21 0 4 1.79 4 4v12.93c0 2.12.84 4.16 2.34 5.66l11.91 11.91c3 3 4.69 7.07 4.69 11.31v24.6z"></path>
  </symbol>
  <symbol id="globe-europe" viewBox="0 0 496 512">
    <path d="M248 8C111 8 0 119 0 256s111 248 248 248 248-111 248-248S385 8 248 8zm200 248c0 22.5-3.9 44.2-10.8 64.4h-20.3c-4.3 0-8.4-1.7-11.4-4.8l-32-32.6c-4.5-4.6-4.5-12.1.1-16.7l12.5-12.5v-8.7c0-3-1.2-5.9-3.3-8l-9.4-9.4c-2.1-2.1-5-3.3-8-3.3h-16c-6.2 0-11.3-5.1-11.3-11.3 0-3 1.2-5.9 3.3-8l9.4-9.4c2.1-2.1 5-3.3 8-3.3h32c6.2 0 11.3-5.1 11.3-11.3v-9.4c0-6.2-5.1-11.3-11.3-11.3h-36.7c-8.8 0-16 7.2-16 16v4.5c0 6.9-4.4 13-10.9 15.2l-31.6 10.5c-3.3 1.1-5.5 4.1-5.5 7.6v2.2c0 4.4-3.6 8-8 8h-16c-4.4 0-8-3.6-8-8s-3.6-8-8-8H247c-3 0-5.8 1.7-7.2 4.4l-9.4 18.7c-2.7 5.4-8.2 8.8-14.3 8.8H194c-8.8 0-16-7.2-16-16V199c0-4.2 1.7-8.3 4.7-11.3l20.1-20.1c4.6-4.6 7.2-10.9 7.2-17.5 0-3.4 2.2-6.5 5.5-7.6l40-13.3c1.7-.6 3.2-1.5 4.4-2.7l26.8-26.8c2.1-2.1 3.3-5 3.3-8 0-6.2-5.1-11.3-11.3-11.3H258l-16 16v8c0 4.4-3.6 8-8 8h-16c-4.4 0-8-3.6-8-8v-20c0-2.5 1.2-4.9 3.2-6.4l28.9-21.7c1.9-.1 3.8-.3 5.7-.3C358.3 56 448 145.7 448 256zM130.1 149.1c0-3 1.2-5.9 3.3-8l25.4-25.4c2.1-2.1 5-3.3 8-3.3 6.2 0 11.3 5.1 11.3 11.3v16c0 3-1.2 5.9-3.3 8l-9.4 9.4c-2.1 2.1-5 3.3-8 3.3h-16c-6.2 0-11.3-5.1-11.3-11.3zm128 306.4v-7.1c0-8.8-7.2-16-16-16h-20.2c-10.8 0-26.7-5.3-35.4-11.8l-22.2-16.7c-11.5-8.6-18.2-22.1-18.2-36.4v-23.9c0-16 8.4-30.8 22.1-39l42.9-25.7c7.1-4.2 15.2-6.5 23.4-6.5h31.2c10.9 0 21.4 3.9 29.6 10.9l43.2 37.1h18.3c8.5 0 16.6 3.4 22.6 9.4l17.3 17.3c3.4 3.4 8.1 5.3 12.9 5.3H423c-32.4 58.9-93.8 99.5-164.9 103.1z"></path>
  </symbol>
  <symbol id="golf-ball" viewBox="0 0 416 512">
    <path d="M96 416h224c0 17.7-14.3 32-32 32h-16c-17.7 0-32 14.3-32 32v20c0 6.6-5.4 12-12 12h-40c-6.6 0-12-5.4-12-12v-20c0-17.7-14.3-32-32-32h-16c-17.7 0-32-14.3-32-32zm320-208c0 74.2-39 139.2-97.5 176h-221C39 347.2 0 282.2 0 208 0 93.1 93.1 0 208 0s208 93.1 208 208zm-180.1 43.9c18.3 0 33.1-14.8 33.1-33.1 0-14.4-9.3-26.3-22.1-30.9 9.6 26.8-15.6 51.3-41.9 41.9 4.6 12.8 16.5 22.1 30.9 22.1zm49.1 46.9c0-14.4-9.3-26.3-22.1-30.9 9.6 26.8-15.6 51.3-41.9 41.9 4.6 12.8 16.5 22.1 30.9 22.1 18.3 0 33.1-14.9 33.1-33.1zm64-64c0-14.4-9.3-26.3-22.1-30.9 9.6 26.8-15.6 51.3-41.9 41.9 4.6 12.8 16.5 22.1 30.9 22.1 18.3 0 33.1-14.9 33.1-33.1z"></path>
  </symbol>
  <symbol id="gopuram" viewBox="0 0 512 512">
    <path d="M496 352h-16V240c0-8.8-7.2-16-16-16h-16v-80c0-8.8-7.2-16-16-16h-16V16c0-8.8-7.2-16-16-16s-16 7.2-16 16v16h-64V16c0-8.8-7.2-16-16-16s-16 7.2-16 16v16h-64V16c0-8.8-7.2-16-16-16s-16 7.2-16 16v16h-64V16c0-8.8-7.2-16-16-16S96 7.2 96 16v112H80c-8.8 0-16 7.2-16 16v80H48c-8.8 0-16 7.2-16 16v112H16c-8.8 0-16 7.2-16 16v128c0 8.8 7.2 16 16 16h80V352h32V224h32v-96h32v96h-32v128h-32v160h80v-80c0-8.8 7.2-16 16-16h64c8.8 0 16 7.2 16 16v80h80V352h-32V224h-32v-96h32v96h32v128h32v160h80c8.8 0 16-7.2 16-16V368c0-8.8-7.2-16-16-16zM232 176c0-8.8 7.2-16 16-16h16c8.8 0 16 7.2 16 16v48h-48zm56 176h-64v-64c0-8.8 7.2-16 16-16h32c8.8 0 16 7.2 16 16z"></path>
  </symbol>
  <symbol id="graduation-cap" viewBox="0 0 640 512">
    <path d="M622.34 153.2L343.4 67.5c-15.2-4.67-31.6-4.67-46.79 0L17.66 153.2c-23.54 7.23-23.54 38.36 0 45.59l48.63 14.94c-10.67 13.19-17.23 29.28-17.88 46.9C38.78 266.15 32 276.11 32 288c0 10.78 5.68 19.85 13.86 25.65L20.33 428.53C18.11 438.52 25.71 448 35.94 448h56.11c10.24 0 17.84-9.48 15.62-19.47L82.14 313.65C90.32 307.85 96 298.78 96 288c0-11.57-6.47-21.25-15.66-26.87.76-15.02 8.44-28.3 20.69-36.72L296.6 284.5c9.06 2.78 26.44 6.25 46.79 0l278.95-85.7c23.55-7.24 23.55-38.36 0-45.6zM352.79 315.09c-28.53 8.76-52.84 3.92-65.59 0l-145.02-44.55L128 384c0 35.35 85.96 64 192 64s192-28.65 192-64l-14.18-113.47-145.03 44.56z"></path>
  </symbol>
  <symbol id="greater-than" viewBox="0 0 384 512">
    <path d="M365.52 209.85L59.22 67.01c-16.06-7.49-35.15-.54-42.64 15.52L3.01 111.61c-7.49 16.06-.54 35.15 15.52 42.64L236.96 256.1 18.49 357.99C2.47 365.46-4.46 384.5 3.01 400.52l13.52 29C24 445.54 43.04 452.47 59.06 445l306.47-142.91a32.003 32.003 0 0 0 18.48-29v-34.23c-.01-12.45-7.21-23.76-18.49-29.01z"></path>
  </symbol>
  <symbol id="greater-than-equal" viewBox="0 0 448 512">
    <path d="M55.22 107.69l175.56 68.09-175.44 68.05c-18.39 6.03-27.88 24.39-21.2 41l12.09 30.08c6.68 16.61 26.99 25.19 45.38 19.15L393.02 214.2c13.77-4.52 22.98-16.61 22.98-30.17v-15.96c0-13.56-9.21-25.65-22.98-30.17L91.3 17.92c-18.29-6-38.51 2.53-45.15 19.06L34.12 66.9c-6.64 16.53 2.81 34.79 21.1 40.79zM424 400H24c-13.25 0-24 10.74-24 24v48c0 13.25 10.75 24 24 24h400c13.25 0 24-10.75 24-24v-48c0-13.26-10.75-24-24-24z"></path>
  </symbol>
  <symbol id="grimace" viewBox="0 0 496 512">
    <path d="M248 8C111 8 0 119 0 256s111 248 248 248 248-111 248-248S385 8 248 8zM144 400h-8c-17.7 0-32-14.3-32-32v-8h40v40zm0-56h-40v-8c0-17.7 14.3-32 32-32h8v40zm-8-136c0-17.7 14.3-32 32-32s32 14.3 32 32-14.3 32-32 32-32-14.3-32-32zm72 192h-48v-40h48v40zm0-56h-48v-40h48v40zm64 56h-48v-40h48v40zm0-56h-48v-40h48v40zm64 56h-48v-40h48v40zm0-56h-48v-40h48v40zm-8-104c-17.7 0-32-14.3-32-32s14.3-32 32-32 32 14.3 32 32-14.3 32-32 32zm64 128c0 17.7-14.3 32-32 32h-8v-40h40v8zm0-24h-40v-40h8c17.7 0 32 14.3 32 32v8z"></path>
  </symbol>
  <symbol id="grin" viewBox="0 0 496 512">
    <path d="M248 8C111 8 0 119 0 256s111 248 248 248 248-111 248-248S385 8 248 8zm80 168c17.7 0 32 14.3 32 32s-14.3 32-32 32-32-14.3-32-32 14.3-32 32-32zm-160 0c17.7 0 32 14.3 32 32s-14.3 32-32 32-32-14.3-32-32 14.3-32 32-32zm80 256c-60.6 0-134.5-38.3-143.8-93.3-2-11.8 9.3-21.6 20.7-17.9C155.1 330.5 200 336 248 336s92.9-5.5 123.1-15.2c11.3-3.7 22.6 6.1 20.7 17.9-9.3 55-83.2 93.3-143.8 93.3z"></path>
  </symbol>
  <symbol id="grin-alt" viewBox="0 0 496 512">
    <path d="M248 8C111 8 0 119 0 256s111 248 248 248 248-111 248-248S385 8 248 8zm63.7 128.7c7.6-11.4 24.7-11.7 32.7 0 12.4 18.4 15.1 36.9 15.7 55.3-.5 18.4-3.3 36.9-15.7 55.3-7.6 11.4-24.7 11.7-32.7 0-12.4-18.4-15.1-36.9-15.7-55.3.5-18.4 3.3-36.9 15.7-55.3zm-160 0c7.6-11.4 24.7-11.7 32.7 0 12.4 18.4 15.1 36.9 15.7 55.3-.5 18.4-3.3 36.9-15.7 55.3-7.6 11.4-24.7 11.7-32.7 0-12.4-18.4-15.1-36.9-15.7-55.3.5-18.4 3.3-36.9 15.7-55.3zM248 432c-60.6 0-134.5-38.3-143.8-93.3-2-11.8 9.3-21.6 20.7-17.9C155.1 330.5 200 336 248 336s92.9-5.5 123.1-15.2c11.4-3.7 22.6 6.1 20.7 17.9-9.3 55-83.2 93.3-143.8 93.3z"></path>
  </symbol>
  <symbol id="grin-beam" viewBox="0 0 496 512">
    <path d="M248 8C111 8 0 119 0 256s111 248 248 248 248-111 248-248S385 8 248 8zm80 144c23.8 0 52.7 29.3 56 71.4.7 8.6-10.8 11.9-14.9 4.5l-9.5-17c-7.7-13.7-19.2-21.6-31.5-21.6s-23.8 7.9-31.5 21.6l-9.5 17c-4.1 7.3-15.6 4-14.9-4.5 3.1-42.1 32-71.4 55.8-71.4zm-160 0c23.8 0 52.7 29.3 56 71.4.7 8.6-10.8 11.9-14.9 4.5l-9.5-17c-7.7-13.7-19.2-21.6-31.5-21.6s-23.8 7.9-31.5 21.6l-9.5 17c-4.2 7.4-15.6 4-14.9-4.5 3.1-42.1 32-71.4 55.8-71.4zm80 280c-60.6 0-134.5-38.3-143.8-93.3-2-11.9 9.4-21.6 20.7-17.9C155.1 330.5 200 336 248 336s92.9-5.5 123.1-15.2c11.4-3.7 22.6 6.1 20.7 17.9-9.3 55-83.2 93.3-143.8 93.3z"></path>
  </symbol>
  <symbol id="grin-beam-sweat" viewBox="0 0 504 512">
    <path d="M456 128c26.5 0 48-21 48-47 0-20-28.5-60.4-41.6-77.8-3.2-4.3-9.6-4.3-12.8 0C436.5 20.6 408 61 408 81c0 26 21.5 47 48 47zm0 32c-44.1 0-80-35.4-80-79 0-4.4.3-14.2 8.1-32.2C345 23.1 298.3 8 248 8 111 8 0 119 0 256s111 248 248 248 248-111 248-248c0-35.1-7.4-68.4-20.5-98.6-6.3 1.5-12.7 2.6-19.5 2.6zm-128-8c23.8 0 52.7 29.3 56 71.4.7 8.6-10.8 12-14.9 4.5l-9.5-17c-7.7-13.7-19.2-21.6-31.5-21.6s-23.8 7.9-31.5 21.6l-9.5 17c-4.1 7.4-15.6 4-14.9-4.5 3.1-42.1 32-71.4 55.8-71.4zm-160 0c23.8 0 52.7 29.3 56 71.4.7 8.6-10.8 12-14.9 4.5l-9.5-17c-7.7-13.7-19.2-21.6-31.5-21.6s-23.8 7.9-31.5 21.6l-9.5 17c-4.2 7.4-15.6 4-14.9-4.5 3.1-42.1 32-71.4 55.8-71.4zm80 280c-60.6 0-134.5-38.3-143.8-93.3-2-11.8 9.3-21.6 20.7-17.9C155.1 330.5 200 336 248 336s92.9-5.5 123.1-15.2c11.5-3.7 22.6 6.2 20.7 17.9-9.3 55-83.2 93.3-143.8 93.3z"></path>
  </symbol>
  <symbol id="grin-hearts" viewBox="0 0 496 512">
    <path d="M248 8C111 8 0 119 0 256s111 248 248 248 248-111 248-248S385 8 248 8zM90.4 183.6c6.7-17.6 26.7-26.7 44.9-21.9l7.1 1.9 2-7.1c5-18.1 22.8-30.9 41.5-27.9 21.4 3.4 34.4 24.2 28.8 44.5L195.3 243c-1.2 4.5-5.9 7.2-10.5 6l-70.2-18.2c-20.4-5.4-31.9-27-24.2-47.2zM248 432c-60.6 0-134.5-38.3-143.8-93.3-2-11.8 9.2-21.5 20.7-17.9C155.1 330.5 200 336 248 336s92.9-5.5 123.1-15.2c11.4-3.6 22.6 6.1 20.7 17.9-9.3 55-83.2 93.3-143.8 93.3zm133.4-201.3l-70.2 18.2c-4.5 1.2-9.2-1.5-10.5-6L281.3 173c-5.6-20.3 7.4-41.1 28.8-44.5 18.6-3 36.4 9.8 41.5 27.9l2 7.1 7.1-1.9c18.2-4.7 38.2 4.3 44.9 21.9 7.7 20.3-3.8 41.9-24.2 47.2z"></path>
  </symbol>
  <symbol id="grin-squint" viewBox="0 0 496 512">
    <path d="M248 8C111 8 0 119 0 256s111 248 248 248 248-111 248-248S385 8 248 8zm33.8 189.7l80-48c11.6-6.9 24 7.7 15.4 18L343.6 208l33.6 40.3c8.7 10.4-3.9 24.8-15.4 18l-80-48c-7.7-4.7-7.7-15.9 0-20.6zm-163-30c-8.6-10.3 3.8-24.9 15.4-18l80 48c7.8 4.7 7.8 15.9 0 20.6l-80 48c-11.5 6.8-24-7.6-15.4-18l33.6-40.3-33.6-40.3zM248 432c-60.6 0-134.5-38.3-143.8-93.3-2-11.9 9.4-21.6 20.7-17.9C155.1 330.5 200 336 248 336s92.9-5.5 123.1-15.2c11.5-3.7 22.6 6.2 20.7 17.9-9.3 55-83.2 93.3-143.8 93.3z"></path>
  </symbol>
  <symbol id="grin-squint-tears" viewBox="0 0 512 512">
    <path d="M409.6 111.9c22.6-3.2 73.5-12 88.3-26.8 19.2-19.2 18.9-50.6-.7-70.2S446-5 426.9 14.2c-14.8 14.8-23.5 65.7-26.8 88.3-.8 5.5 3.9 10.2 9.5 9.4zM102.4 400.1c-22.6 3.2-73.5 12-88.3 26.8-19.1 19.1-18.8 50.6.8 70.2s51 19.9 70.2.7c14.8-14.8 23.5-65.7 26.8-88.3.8-5.5-3.9-10.2-9.5-9.4zm311.7-256.5c-33 3.9-48.6-25.1-45.7-45.7 3.4-24 7.4-42.1 11.5-56.5C285.1-13.4 161.8-.5 80.6 80.6-.5 161.7-13.4 285 41.4 379.9c14.4-4.1 32.4-8 56.5-11.5 33.2-3.9 48.6 25.2 45.7 45.7-3.4 24-7.4 42.1-11.5 56.5 94.8 54.8 218.1 41.9 299.3-39.2s94-204.4 39.2-299.3c-14.4 4.1-32.5 8-56.5 11.5zM255.7 106c3.3-13.2 22.4-11.5 23.6 1.8l4.8 52.3 52.3 4.8c13.4 1.2 14.9 20.3 1.8 23.6l-90.5 22.6c-8.9 2.2-16.7-5.9-14.5-14.5l22.5-90.6zm-90.9 230.3L160 284l-52.3-4.8c-13.4-1.2-14.9-20.3-1.8-23.6l90.5-22.6c8.8-2.2 16.7 5.8 14.5 14.5L188.3 338c-3.1 13.2-22.2 11.7-23.5-1.7zm215.7 44.2c-29.3 29.3-75.7 50.4-116.7 50.4-18.9 0-36.6-4.5-51-14.7-9.8-6.9-8.7-21.8 2-27.2 28.3-14.6 63.9-42.4 97.8-76.3s61.7-69.6 76.3-97.8c5.4-10.5 20.2-11.9 27.3-2 32.3 45.3 7.1 124.7-35.7 167.6z"></path>
  </symbol>
  <symbol id="grin-stars" viewBox="0 0 496 512">
    <path d="M248 8C111 8 0 119 0 256s111 248 248 248 248-111 248-248S385 8 248 8zM94.6 168.9l34.9-5 15.5-31.6c2.9-5.8 11-5.8 13.9 0l15.5 31.6 34.9 5c6.2 1 8.9 8.6 4.3 13.2l-25.4 24.6 6 34.9c1 6.2-5.3 11-11 7.9L152 233.3l-31.3 16.3c-5.7 3.1-12-1.7-11-7.9l6-34.9-25.4-24.6c-4.6-4.7-1.9-12.3 4.3-13.3zM248 432c-60.6 0-134.5-38.3-143.8-93.3-2-11.8 9.3-21.5 20.7-17.9C155.1 330.5 200 336 248 336s92.9-5.5 123.1-15.2c11.5-3.7 22.6 6.1 20.7 17.9-9.3 55-83.2 93.3-143.8 93.3zm157.7-249.9l-25.4 24.6 6 34.9c1 6.2-5.3 11-11 7.9L344 233.3l-31.3 16.3c-5.7 3.1-12-1.7-11-7.9l6-34.9-25.4-24.6c-4.5-4.6-1.9-12.2 4.3-13.2l34.9-5 15.5-31.6c2.9-5.8 11-5.8 13.9 0l15.5 31.6 34.9 5c6.3.9 9 8.5 4.4 13.1z"></path>
  </symbol>
  <symbol id="grin-tears" viewBox="0 0 640 512">
    <path d="M102.4 256.1c-22.6 3.2-73.5 12-88.3 26.8-19.1 19.1-18.8 50.6.8 70.2s51 19.9 70.2.7c14.8-14.8 23.5-65.7 26.8-88.3.8-5.5-3.9-10.2-9.5-9.4zm523.4 26.8c-14.8-14.8-65.7-23.5-88.3-26.8-5.5-.8-10.3 3.9-9.5 9.5 3.2 22.6 12 73.5 26.8 88.3 19.2 19.2 50.6 18.9 70.2-.7s20-51.2.8-70.3zm-129.4-12.8c-3.8-26.6 19.1-49.5 45.7-45.7 8.9 1.3 16.8 2.7 24.3 4.1C552.7 104.5 447.7 8 320 8S87.3 104.5 73.6 228.5c7.5-1.4 15.4-2.8 24.3-4.1 33.2-3.9 48.6 25.3 45.7 45.7-11.8 82.3-29.9 100.4-35.8 106.4-.9.9-2 1.6-3 2.5 42.7 74.6 123 125 215.2 125s172.5-50.4 215.2-125.1c-1-.9-2.1-1.5-3-2.5-5.9-5.9-24-24-35.8-106.3zM400 152c23.8 0 52.7 29.3 56 71.4.7 8.6-10.8 12-14.9 4.5l-9.5-17c-7.7-13.7-19.2-21.6-31.5-21.6s-23.8 7.9-31.5 21.6l-9.5 17c-4.2 7.4-15.6 4-14.9-4.5 3.1-42.1 32-71.4 55.8-71.4zm-160 0c23.8 0 52.7 29.3 56 71.4.7 8.6-10.8 12-14.9 4.5l-9.5-17c-7.7-13.7-19.2-21.6-31.5-21.6s-23.8 7.9-31.5 21.6l-9.5 17c-4.2 7.4-15.6 4-14.9-4.5 3.1-42.1 32-71.4 55.8-71.4zm80 280c-60.6 0-134.5-38.3-143.8-93.3-2-11.7 9.2-21.6 20.7-17.9C227.1 330.5 272 336 320 336s92.9-5.5 123.1-15.2c11.4-3.7 22.6 6.1 20.7 17.9-9.3 55-83.2 93.3-143.8 93.3z"></path>
  </symbol>
  <symbol id="grin-tongue" viewBox="0 0 496 512">
    <path d="M248 8C111 8 0 119 0 256c0 106.3 67 196.7 161 232-5.6-12.2-9-25.7-9-40v-45.5c-24.7-16.2-43.5-38.1-47.8-63.8-2-11.8 9.3-21.5 20.7-17.9C155.1 330.5 200 336 248 336s92.9-5.5 123.1-15.2c11.4-3.6 22.6 6.1 20.7 17.9-4.3 25.7-23.1 47.6-47.8 63.8V448c0 14.3-3.4 27.8-9 40 94-35.3 161-125.7 161-232C496 119 385 8 248 8zm-80 232c-17.7 0-32-14.3-32-32s14.3-32 32-32 32 14.3 32 32-14.3 32-32 32zm160 0c-17.7 0-32-14.3-32-32s14.3-32 32-32 32 14.3 32 32-14.3 32-32 32zm-34.9 134.6c-14.4-6.5-31.1 2.2-34.6 17.6l-1.8 7.8c-2.1 9.2-15.2 9.2-17.3 0l-1.8-7.8c-3.5-15.4-20.2-24.1-34.6-17.6-.9.4.3-.2-18.9 9.4v63c0 35.2 28 64.5 63.1 64.9 35.7.5 64.9-28.4 64.9-64v-64c-19.5-9.6-18.2-8.9-19-9.3z"></path>
  </symbol>
  <symbol id="grin-tongue-squint" viewBox="0 0 496 512">
    <path d="M293.1 374.6c-14.4-6.5-31.1 2.2-34.6 17.6l-1.8 7.8c-2.1 9.2-15.2 9.2-17.3 0l-1.8-7.8c-3.5-15.4-20.2-24.1-34.6-17.6-.9.4.3-.2-18.9 9.4v63c0 35.2 28 64.5 63.1 64.9 35.7.5 64.9-28.4 64.9-64v-64c-19.5-9.6-18.2-8.9-19-9.3zM248 8C111 8 0 119 0 256c0 106.3 67 196.7 161 232-5.6-12.2-9-25.7-9-40v-45.5c-24.7-16.2-43.5-38.1-47.8-63.8-2-11.8 9.2-21.5 20.7-17.9C155.1 330.5 200 336 248 336s92.9-5.5 123.1-15.2c11.4-3.7 22.6 6.1 20.7 17.9-4.3 25.7-23.1 47.6-47.8 63.8V448c0 14.3-3.4 27.8-9 40 94-35.3 161-125.7 161-232C496 119 385 8 248 8zm-33.8 210.3l-80 48c-11.5 6.8-24-7.6-15.4-18l33.6-40.3-33.6-40.3c-8.6-10.3 3.8-24.9 15.4-18l80 48c7.7 4.7 7.7 15.9 0 20.6zm163 30c8.7 10.4-3.9 24.8-15.4 18l-80-48c-7.8-4.7-7.8-15.9 0-20.6l80-48c11.7-6.9 23.9 7.7 15.4 18L343.6 208l33.6 40.3z"></path>
  </symbol>
  <symbol id="grin-tongue-wink" viewBox="0 0 496 512">
    <path d="M344 184c-13.3 0-24 10.7-24 24s10.7 24 24 24 24-10.7 24-24-10.7-24-24-24zM248 8C111 8 0 119 0 256c0 106.3 67 196.7 161 232-5.6-12.2-9-25.7-9-40v-45.5c-24.7-16.2-43.5-38.1-47.8-63.8-2-11.8 9.3-21.5 20.7-17.9C155.1 330.5 200 336 248 336s92.9-5.5 123.1-15.2c11.5-3.7 22.6 6.1 20.7 17.9-4.3 25.7-23.1 47.6-47.8 63.8V448c0 14.3-3.4 27.8-9 40 94-35.3 161-125.7 161-232C496 119 385 8 248 8zm-56 225l-9.5-8.5c-14.8-13.2-46.2-13.2-61 0L112 233c-8.5 7.4-21.6.3-19.8-10.8 4-25.2 34.2-42.1 59.9-42.1S208 197 212 222.2c1.6 11.1-11.6 18.2-20 10.8zm152 39c-35.3 0-64-28.7-64-64s28.7-64 64-64 64 28.7 64 64-28.7 64-64 64zm-50.9 102.6c-14.4-6.5-31.1 2.2-34.6 17.6l-1.8 7.8c-2.1 9.2-15.2 9.2-17.3 0l-1.8-7.8c-3.5-15.4-20.2-24.1-34.6-17.6-.9.4.3-.2-18.9 9.4v63c0 35.2 28 64.5 63.1 64.9 35.7.5 64.9-28.4 64.9-64v-64c-19.5-9.6-18.2-8.9-19-9.3z"></path>
  </symbol>
  <symbol id="grin-wink" viewBox="0 0 496 512">
    <path d="M0 256c0 137 111 248 248 248s248-111 248-248S385 8 248 8 0 119 0 256zm200-48c0 17.7-14.3 32-32 32s-32-14.3-32-32 14.3-32 32-32 32 14.3 32 32zm168 25l-9.5-8.5c-14.8-13.2-46.2-13.2-61 0L288 233c-8.3 7.4-21.6.4-19.8-10.8 4-25.2 34.2-42.1 59.9-42.1S384 197 388 222.2c1.6 11-11.5 18.2-20 10.8zm-243.1 87.8C155.1 330.5 200 336 248 336s92.9-5.5 123.1-15.2c11.3-3.7 22.6 6 20.7 17.9-9.2 55-83.2 93.3-143.8 93.3s-134.5-38.3-143.8-93.3c-2-11.9 9.3-21.6 20.7-17.9z"></path>
  </symbol>
  <symbol id="grip-horizontal" viewBox="0 0 448 512">
    <path d="M96 288H32c-17.67 0-32 14.33-32 32v64c0 17.67 14.33 32 32 32h64c17.67 0 32-14.33 32-32v-64c0-17.67-14.33-32-32-32zm160 0h-64c-17.67 0-32 14.33-32 32v64c0 17.67 14.33 32 32 32h64c17.67 0 32-14.33 32-32v-64c0-17.67-14.33-32-32-32zm160 0h-64c-17.67 0-32 14.33-32 32v64c0 17.67 14.33 32 32 32h64c17.67 0 32-14.33 32-32v-64c0-17.67-14.33-32-32-32zM96 96H32c-17.67 0-32 14.33-32 32v64c0 17.67 14.33 32 32 32h64c17.67 0 32-14.33 32-32v-64c0-17.67-14.33-32-32-32zm160 0h-64c-17.67 0-32 14.33-32 32v64c0 17.67 14.33 32 32 32h64c17.67 0 32-14.33 32-32v-64c0-17.67-14.33-32-32-32zm160 0h-64c-17.67 0-32 14.33-32 32v64c0 17.67 14.33 32 32 32h64c17.67 0 32-14.33 32-32v-64c0-17.67-14.33-32-32-32z"></path>
  </symbol>
  <symbol id="grip-lines" viewBox="0 0 512 512">
    <path d="M496 288H16c-8.8 0-16 7.2-16 16v32c0 8.8 7.2 16 16 16h480c8.8 0 16-7.2 16-16v-32c0-8.8-7.2-16-16-16zm0-128H16c-8.8 0-16 7.2-16 16v32c0 8.8 7.2 16 16 16h480c8.8 0 16-7.2 16-16v-32c0-8.8-7.2-16-16-16z"></path>
  </symbol>
  <symbol id="grip-lines-vertical" viewBox="0 0 256 512">
    <path d="M96 496V16c0-8.8-7.2-16-16-16H48c-8.8 0-16 7.2-16 16v480c0 8.8 7.2 16 16 16h32c8.8 0 16-7.2 16-16zm128 0V16c0-8.8-7.2-16-16-16h-32c-8.8 0-16 7.2-16 16v480c0 8.8 7.2 16 16 16h32c8.8 0 16-7.2 16-16z"></path>
  </symbol>
  <symbol id="grip-vertical" viewBox="0 0 320 512">
    <path d="M96 32H32C14.33 32 0 46.33 0 64v64c0 17.67 14.33 32 32 32h64c17.67 0 32-14.33 32-32V64c0-17.67-14.33-32-32-32zm0 160H32c-17.67 0-32 14.33-32 32v64c0 17.67 14.33 32 32 32h64c17.67 0 32-14.33 32-32v-64c0-17.67-14.33-32-32-32zm0 160H32c-17.67 0-32 14.33-32 32v64c0 17.67 14.33 32 32 32h64c17.67 0 32-14.33 32-32v-64c0-17.67-14.33-32-32-32zM288 32h-64c-17.67 0-32 14.33-32 32v64c0 17.67 14.33 32 32 32h64c17.67 0 32-14.33 32-32V64c0-17.67-14.33-32-32-32zm0 160h-64c-17.67 0-32 14.33-32 32v64c0 17.67 14.33 32 32 32h64c17.67 0 32-14.33 32-32v-64c0-17.67-14.33-32-32-32zm0 160h-64c-17.67 0-32 14.33-32 32v64c0 17.67 14.33 32 32 32h64c17.67 0 32-14.33 32-32v-64c0-17.67-14.33-32-32-32z"></path>
  </symbol>
  <symbol id="guitar" viewBox="0 0 512 512">
    <path d="M502.6 54.6L457.4 9.4c-12.5-12.5-32.8-12.5-45.3 0l-67.9 67.9c-12.5 12.5-12.5 32.8 0 45.3L290 176.7c-45.4-29-100.4-28.9-133.5 4.2-9.7 9.7-16.4 21.2-20.5 33.9-6.1 18.8-23.5 33.1-42.7 34.9-24 2.3-46.3 11.6-63.4 28.8C-16.3 324.6-8 407.6 48.2 463.8c56.2 56.2 139.2 64.4 185.3 18.3 17.2-17.1 26.5-39.4 28.8-63.5 1.8-19.1 16.1-36.6 34.9-42.7 12.7-4.1 24.2-10.8 33.9-20.5 33.1-33.1 33.1-88.1 4.2-133.5l54.2-54.2c12.5 12.5 32.8 12.5 45.3 0l67.9-67.9c12.4-12.4 12.4-32.7-.1-45.2zM208 352c-26.5 0-48-21.5-48-48s21.5-48 48-48 48 21.5 48 48-21.5 48-48 48z"></path>
  </symbol>
</svg>