<?xml version="1.0" encoding="UTF-8"?>
<!--
Font Awesome Free 5.9.0 by @fontawesome - https://fontawesome.com
License - https://fontawesome.com/license/free (Icons: CC BY 4.0, Fonts: SIL OFL 1.1, Code: MIT License)
-->
<svg xmlns="http://www.w3.org/2000/svg" style="display: none;">
  <symbol id="qrcode" viewBox="0 0 448 512">
    <path d="M0 224h192V32H0v192zM64 96h64v64H64V96zm192-64v192h192V32H256zm128 128h-64V96h64v64zM0 480h192V288H0v192zm64-128h64v64H64v-64zm352-64h32v128h-96v-32h-32v96h-64V288h96v32h64v-32zm0 160h32v32h-32v-32zm-64 0h32v32h-32v-32z"></path>
  </symbol>
  <symbol id="question" viewBox="0 0 384 512">
    <path d="M202.021 0C122.202 0 70.503 32.703 29.914 91.026c-7.363 10.58-5.093 25.086 5.178 32.874l43.138 32.709c10.373 7.865 25.132 6.026 33.253-4.148 25.049-31.381 43.63-49.449 82.757-49.449 30.764 0 68.816 19.799 68.816 49.631 0 22.552-18.617 34.134-48.993 51.164-35.423 19.86-82.299 44.576-82.299 106.405V320c0 13.255 10.745 24 24 24h72.471c13.255 0 24-10.745 24-24v-5.773c0-42.86 125.268-44.645 125.268-160.627C377.504 66.256 286.902 0 202.021 0zM192 373.459c-38.196 0-69.271 31.075-69.271 69.271 0 38.195 31.075 69.27 69.271 69.27s69.271-31.075 69.271-69.271-31.075-69.27-69.271-69.27z"></path>
  </symbol>
  <symbol id="question-circle" viewBox="0 0 512 512">
    <path d="M504 256c0 136.997-111.043 248-248 248S8 392.997 8 256C8 119.083 119.043 8 256 8s248 111.083 248 248zM262.655 90c-54.497 0-89.255 22.957-116.549 63.758-3.536 5.286-2.353 12.415 2.715 16.258l34.699 26.31c5.205 3.947 12.621 3.008 16.665-2.122 17.864-22.658 30.113-35.797 57.303-35.797 20.429 0 45.698 13.148 45.698 32.958 0 14.976-12.363 22.667-32.534 33.976C247.128 238.528 216 254.941 216 296v4c0 6.627 5.373 12 12 12h56c6.627 0 12-5.373 12-12v-1.333c0-28.462 83.186-29.647 83.186-106.667 0-58.002-60.165-102-116.531-102zM256 338c-25.365 0-46 20.635-46 46 0 25.364 20.635 46 46 46s46-20.636 46-46c0-25.365-20.635-46-46-46z"></path>
  </symbol>
  <symbol id="quidditch" viewBox="0 0 640 512">
    <path d="M256.5 216.8L343.2 326s-16.6 102.4-76.6 150.1C206.7 523.8 0 510.2 0 510.2s3.8-23.1 11-55.4l94.6-112.2c4-4.7-.9-11.6-6.6-9.5l-60.4 22.1c14.4-41.7 32.7-80 54.6-97.5 59.9-47.8 163.3-40.9 163.3-40.9zm238 135c-44 0-79.8 35.8-79.8 79.9 0 44.1 35.7 79.9 79.8 79.9 44.1 0 79.8-35.8 79.8-79.9 0-44.2-35.8-79.9-79.8-79.9zM636.5 31L616.7 6c-5.5-6.9-15.5-8-22.4-2.6L361.8 181.3l-34.1-43c-5.1-6.4-15.1-5.2-18.6 2.2l-25.3 54.6 86.7 109.2 58.8-12.4c8-1.7 11.4-11.2 6.3-17.6l-34.1-42.9L634 53.5c6.9-5.5 8-15.6 2.5-22.5z"></path>
  </symbol>
  <symbol id="quote-left" viewBox="0 0 512 512">
    <path d="M464 256h-80v-64c0-35.3 28.7-64 64-64h8c13.3 0 24-10.7 24-24V56c0-13.3-10.7-24-24-24h-8c-88.4 0-160 71.6-160 160v240c0 26.5 21.5 48 48 48h128c26.5 0 48-21.5 48-48V304c0-26.5-21.5-48-48-48zm-288 0H96v-64c0-35.3 28.7-64 64-64h8c13.3 0 24-10.7 24-24V56c0-13.3-10.7-24-24-24h-8C71.6 32 0 103.6 0 192v240c0 26.5 21.5 48 48 48h128c26.5 0 48-21.5 48-48V304c0-26.5-21.5-48-48-48z"></path>
  </symbol>
  <symbol id="quote-right" viewBox="0 0 512 512">
    <path d="M464 32H336c-26.5 0-48 21.5-48 48v128c0 26.5 21.5 48 48 48h80v64c0 35.3-28.7 64-64 64h-8c-13.3 0-24 10.7-24 24v48c0 13.3 10.7 24 24 24h8c88.4 0 160-71.6 160-160V80c0-26.5-21.5-48-48-48zm-288 0H48C21.5 32 0 53.5 0 80v128c0 26.5 21.5 48 48 48h80v64c0 35.3-28.7 64-64 64h-8c-13.3 0-24 10.7-24 24v48c0 13.3 10.7 24 24 24h8c88.4 0 160-71.6 160-160V80c0-26.5-21.5-48-48-48z"></path>
  </symbol>
  <symbol id="quran" viewBox="0 0 448 512">
    <path d="M448 358.4V25.6c0-16-9.6-25.6-25.6-25.6H96C41.6 0 0 41.6 0 96v320c0 54.4 41.6 96 96 96h326.4c12.8 0 25.6-9.6 25.6-25.6v-16c0-6.4-3.2-12.8-9.6-19.2-3.2-16-3.2-60.8 0-73.6 6.4-3.2 9.6-9.6 9.6-19.2zM301.08 145.82c.6-1.21 1.76-1.82 2.92-1.82s2.32.61 2.92 1.82l11.18 22.65 25 3.63c2.67.39 3.74 3.67 1.81 5.56l-18.09 17.63 4.27 24.89c.36 2.11-1.31 3.82-3.21 3.82-.5 0-1.02-.12-1.52-.38L304 211.87l-22.36 11.75c-.5.26-1.02.38-1.52.38-1.9 0-3.57-1.71-3.21-3.82l4.27-24.89-18.09-17.63c-1.94-1.89-.87-5.17 1.81-5.56l24.99-3.63 11.19-22.65zm-57.89-69.01c13.67 0 27.26 2.49 40.38 7.41a6.775 6.775 0 1 1-2.38 13.12c-.67 0-3.09-.21-4.13-.21-52.31 0-94.86 42.55-94.86 94.86 0 52.3 42.55 94.86 94.86 94.86 1.03 0 3.48-.21 4.13-.21 3.93 0 6.8 3.14 6.8 6.78 0 2.98-1.94 5.51-4.62 6.42-13.07 4.87-26.59 7.34-40.19 7.34C179.67 307.19 128 255.51 128 192c0-63.52 51.67-115.19 115.19-115.19zM380.8 448H96c-19.2 0-32-12.8-32-32s16-32 32-32h284.8v64z"></path>
  </symbol>
</svg>