<?xml version="1.0" encoding="UTF-8"?>
<!--
Font Awesome Free 5.9.0 by @fontawesome - https://fontawesome.com
License - https://fontawesome.com/license/free (Icons: CC BY 4.0, Fonts: SIL OFL 1.1, Code: MIT License)
-->
<svg xmlns="http://www.w3.org/2000/svg" style="display: none;">
  <symbol id="sad-cry" viewBox="0 0 496 512">
    <path d="M248 8C111 8 0 119 0 256c0 90.1 48.2 168.7 120 212.1V288c0-8.8 7.2-16 16-16s16 7.2 16 16v196.7c29.5 12.4 62 19.3 96 19.3s66.5-6.9 96-19.3V288c0-8.8 7.2-16 16-16s16 7.2 16 16v180.1C447.8 424.7 496 346 496 256 496 119 385 8 248 8zm-65.5 216.5c-14.8-13.2-46.2-13.2-61 0L112 233c-3.8 3.3-9.3 4-13.7 1.6-4.4-2.4-6.9-7.4-6.1-12.4 4-25.2 34.2-42.1 59.9-42.1S208 197 212 222.2c.8 5-1.7 10-6.1 12.4-5.8 3.1-11.2.7-13.7-1.6l-9.7-8.5zM248 416c-26.5 0-48-28.7-48-64s21.5-64 48-64 48 28.7 48 64-21.5 64-48 64zm149.8-181.5c-5.8 3.1-11.2.7-13.7-1.6l-9.5-8.5c-14.8-13.2-46.2-13.2-61 0L304 233c-3.8 3.3-9.3 4-13.7 1.6-4.4-2.4-6.9-7.4-6.1-12.4 4-25.2 34.2-42.1 59.9-42.1S400 197 404 222.2c.6 4.9-1.8 9.9-6.2 12.3z"></path>
  </symbol>
  <symbol id="sad-tear" viewBox="0 0 496 512">
    <path d="M248 8C111 8 0 119 0 256s111 248 248 248 248-111 248-248S385 8 248 8zm80 168c17.7 0 32 14.3 32 32s-14.3 32-32 32-32-14.3-32-32 14.3-32 32-32zM152 416c-26.5 0-48-21-48-47 0-20 28.5-60.4 41.6-77.8 3.2-4.3 9.6-4.3 12.8 0C171.5 308.6 200 349 200 369c0 26-21.5 47-48 47zm16-176c-17.7 0-32-14.3-32-32s14.3-32 32-32 32 14.3 32 32-14.3 32-32 32zm170.2 154.2C315.8 367.4 282.9 352 248 352c-21.2 0-21.2-32 0-32 44.4 0 86.3 19.6 114.7 53.8 13.8 16.4-11.2 36.5-24.5 20.4z"></path>
  </symbol>
  <symbol id="satellite" viewBox="0 0 512 512">
    <path d="M502.7 265l-80.3-80.4 47.8-47.9c13.1-13.1 13.1-34.4 0-47.5l-47.5-47.5c-13.1-13.1-34.4-13.1-47.5 0l-47.8 47.9-80.3-80.3C240.8 3.1 232.7 0 224.5 0S208.2 3.1 202 9.3L105.3 106c-12.4 12.4-12.4 32.6 0 45.1l80.3 80.4-9.8 9.8C122.1 217 59.6 218.6 7.3 246.7c-8.5 4.6-9.6 16.4-2.8 23.2L112 377.4l-17.8 17.8c-2.6-.7-5-1.6-7.8-1.6-17.7 0-32 14.3-32 32s14.3 32 32 32 32-14.3 32-32c0-2.8-.9-5.2-1.6-7.8l17.8-17.8 107.5 107.5c6.8 6.8 18.7 5.7 23.2-2.8 28.1-52.3 29.7-114.8 5.4-168.5l9.9-9.9 80.3 80.4c6.2 6.2 14.4 9.3 22.5 9.3s16.3-3.1 22.5-9.3l96.7-96.7c12.5-12.4 12.5-32.6.1-45zm-352-136.5l73.8-73.8 68.9 68.9-73.8 73.8-68.9-68.9zm232.8 232.8l-68.9-68.9 73.8-73.8 68.9 68.9-73.8 73.8z"></path>
  </symbol>
  <symbol id="satellite-dish" viewBox="0 0 512 512">
    <path d="M188.8 345.9l27.4-27.4c2.6.7 5 1.6 7.8 1.6 17.7 0 32-14.3 32-32s-14.3-32-32-32-32 14.3-32 32c0 2.8.9 5.2 1.6 7.8l-27.4 27.4L49.4 206.5c-7.3-7.3-20.1-6.1-25 3-41.8 77.8-29.9 176.7 35.7 242.3 65.6 65.6 164.6 77.5 242.3 35.7 9.2-4.9 10.4-17.7 3-25L188.8 345.9zM209 0c-9.2-.5-17 6.8-17 16v31.6c0 8.5 6.6 15.5 15 15.9 129.4 7 233.4 112 240.9 241.5.5 8.4 7.5 15 15.9 15h32.1c9.2 0 16.5-7.8 16-17C503.4 139.8 372.2 8.6 209 0zm.3 96c-9.3-.7-17.3 6.7-17.3 16.1v32.1c0 8.4 6.5 15.3 14.8 15.9 76.8 6.3 138 68.2 144.9 145.2.8 8.3 7.6 14.7 15.9 14.7h32.2c9.3 0 16.8-8 16.1-17.3-8.4-110.1-96.5-198.2-206.6-206.7z"></path>
  </symbol>
  <symbol id="save" viewBox="0 0 448 512">
    <path d="M433.941 129.941l-83.882-83.882A48 48 0 0 0 316.118 32H48C21.49 32 0 53.49 0 80v352c0 26.51 21.49 48 48 48h352c26.51 0 48-21.49 48-48V163.882a48 48 0 0 0-14.059-33.941zM224 416c-35.346 0-64-28.654-64-64 0-35.346 28.654-64 64-64s64 28.654 64 64c0 35.346-28.654 64-64 64zm96-304.52V212c0 6.627-5.373 12-12 12H76c-6.627 0-12-5.373-12-12V108c0-6.627 5.373-12 12-12h228.52c3.183 0 6.235 1.264 8.485 3.515l3.48 3.48A11.996 11.996 0 0 1 320 111.48z"></path>
  </symbol>
  <symbol id="school" viewBox="0 0 640 512">
    <path d="M0 224v272c0 8.84 7.16 16 16 16h80V192H32c-17.67 0-32 14.33-32 32zm360-48h-24v-40c0-4.42-3.58-8-8-8h-16c-4.42 0-8 3.58-8 8v64c0 4.42 3.58 8 8 8h48c4.42 0 8-3.58 8-8v-16c0-4.42-3.58-8-8-8zm137.75-63.96l-160-106.67a32.02 32.02 0 0 0-35.5 0l-160 106.67A32.002 32.002 0 0 0 128 138.66V512h128V368c0-8.84 7.16-16 16-16h96c8.84 0 16 7.16 16 16v144h128V138.67c0-10.7-5.35-20.7-14.25-26.63zM320 256c-44.18 0-80-35.82-80-80s35.82-80 80-80 80 35.82 80 80-35.82 80-80 80zm288-64h-64v320h80c8.84 0 16-7.16 16-16V224c0-17.67-14.33-32-32-32z"></path>
  </symbol>
  <symbol id="screwdriver" viewBox="0 0 512 512">
    <path d="M448 0L320 96v62.06l-83.03 83.03c6.79 4.25 13.27 9.06 19.07 14.87 5.8 5.8 10.62 12.28 14.87 19.07L353.94 192H416l96-128-64-64zM128 278.59L10.92 395.67c-14.55 14.55-14.55 38.15 0 52.71l52.7 52.7c14.56 14.56 38.15 14.56 52.71 0L233.41 384c29.11-29.11 29.11-76.3 0-105.41s-76.3-29.11-105.41 0z"></path>
  </symbol>
  <symbol id="scroll" viewBox="0 0 640 512">
    <path d="M48 0C21.53 0 0 21.53 0 48v64c0 8.84 7.16 16 16 16h80V48C96 21.53 74.47 0 48 0zm208 412.57V352h288V96c0-52.94-43.06-96-96-96H111.59C121.74 13.41 128 29.92 128 48v368c0 38.87 34.65 69.65 74.75 63.12C234.22 474 256 444.46 256 412.57zM288 384v32c0 52.93-43.06 96-96 96h336c61.86 0 112-50.14 112-112 0-8.84-7.16-16-16-16H288z"></path>
  </symbol>
  <symbol id="sd-card" viewBox="0 0 384 512">
    <path d="M320 0H128L0 128v320c0 35.3 28.7 64 64 64h256c35.3 0 64-28.7 64-64V64c0-35.3-28.7-64-64-64zM160 160h-48V64h48v96zm80 0h-48V64h48v96zm80 0h-48V64h48v96z"></path>
  </symbol>
  <symbol id="search" viewBox="0 0 512 512">
    <path d="M505 442.7L405.3 343c-4.5-4.5-10.6-7-17-7H372c27.6-35.3 44-79.7 44-128C416 93.1 322.9 0 208 0S0 93.1 0 208s93.1 208 208 208c48.3 0 92.7-16.4 128-44v16.3c0 6.4 2.5 12.5 7 17l99.7 99.7c9.4 9.4 24.6 9.4 33.9 0l28.3-28.3c9.4-9.4 9.4-24.6.1-34zM208 336c-70.7 0-128-57.2-128-128 0-70.7 57.2-128 128-128 70.7 0 128 57.2 128 128 0 70.7-57.2 128-128 128z"></path>
  </symbol>
  <symbol id="search-dollar" viewBox="0 0 512 512">
    <path d="M505.04 442.66l-99.71-99.69c-4.5-4.5-10.6-7-17-7h-16.3c27.6-35.3 44-79.69 44-127.99C416.03 93.09 322.92 0 208.02 0S0 93.09 0 207.98s93.11 207.98 208.02 207.98c48.3 0 92.71-16.4 128.01-44v16.3c0 6.4 2.5 12.5 7 17l99.71 99.69c9.4 9.4 24.6 9.4 33.9 0l28.3-28.3c9.4-9.4 9.4-24.59.1-33.99zm-297.02-90.7c-79.54 0-144-64.34-144-143.98 0-79.53 64.35-143.98 144-143.98 79.54 0 144 64.34 144 143.98 0 79.53-64.35 143.98-144 143.98zm27.11-152.54l-45.01-13.5c-5.16-1.55-8.77-6.78-8.77-12.73 0-7.27 5.3-13.19 11.8-13.19h28.11c4.56 0 8.96 1.29 12.82 3.72 3.24 2.03 7.36 1.91 10.13-.73l11.75-11.21c3.53-3.37 3.33-9.21-.57-12.14-9.1-6.83-20.08-10.77-31.37-11.35V112c0-4.42-3.58-8-8-8h-16c-4.42 0-8 3.58-8 8v16.12c-23.63.63-42.68 20.55-42.68 45.07 0 19.97 12.99 37.81 31.58 43.39l45.01 13.5c5.16 1.55 8.77 6.78 8.77 12.73 0 7.27-5.3 13.19-11.8 13.19h-28.1c-4.56 0-8.96-1.29-12.82-3.72-3.24-2.03-7.36-1.91-10.13.73l-11.75 11.21c-3.53 3.37-3.33 9.21.57 12.14 9.1 6.83 20.08 10.77 31.37 11.35V304c0 4.42 3.58 8 8 8h16c4.42 0 8-3.58 8-8v-16.12c23.63-.63 42.68-20.54 42.68-45.07 0-19.97-12.99-37.81-31.59-43.39z"></path>
  </symbol>
  <symbol id="search-location" viewBox="0 0 512 512">
    <path d="M505.04 442.66l-99.71-99.69c-4.5-4.5-10.6-7-17-7h-16.3c27.6-35.3 44-79.69 44-127.99C416.03 93.09 322.92 0 208.02 0S0 93.09 0 207.98s93.11 207.98 208.02 207.98c48.3 0 92.71-16.4 128.01-44v16.3c0 6.4 2.5 12.5 7 17l99.71 99.69c9.4 9.4 24.6 9.4 33.9 0l28.3-28.3c9.4-9.4 9.4-24.59.1-33.99zm-297.02-90.7c-79.54 0-144-64.34-144-143.98 0-79.53 64.35-143.98 144-143.98 79.54 0 144 64.34 144 143.98 0 79.53-64.35 143.98-144 143.98zm.02-239.96c-40.78 0-73.84 33.05-73.84 73.83 0 32.96 48.26 93.05 66.75 114.86a9.24 9.24 0 0 0 14.18 0c18.49-21.81 66.75-81.89 66.75-114.86 0-40.78-33.06-73.83-73.84-73.83zm0 96c-13.26 0-24-10.75-24-24 0-13.26 10.75-24 24-24s24 10.74 24 24c0 13.25-10.75 24-24 24z"></path>
  </symbol>
  <symbol id="search-minus" viewBox="0 0 512 512">
    <path d="M304 192v32c0 6.6-5.4 12-12 12H124c-6.6 0-12-5.4-12-12v-32c0-6.6 5.4-12 12-12h168c6.6 0 12 5.4 12 12zm201 284.7L476.7 505c-9.4 9.4-24.6 9.4-33.9 0L343 405.3c-4.5-4.5-7-10.6-7-17V372c-35.3 27.6-79.7 44-128 44C93.1 416 0 322.9 0 208S93.1 0 208 0s208 93.1 208 208c0 48.3-16.4 92.7-44 128h16.3c6.4 0 12.5 2.5 17 7l99.7 99.7c9.3 9.4 9.3 24.6 0 34zM344 208c0-75.2-60.8-136-136-136S72 132.8 72 208s60.8 136 136 136 136-60.8 136-136z"></path>
  </symbol>
  <symbol id="search-plus" viewBox="0 0 512 512">
    <path d="M304 192v32c0 6.6-5.4 12-12 12h-56v56c0 6.6-5.4 12-12 12h-32c-6.6 0-12-5.4-12-12v-56h-56c-6.6 0-12-5.4-12-12v-32c0-6.6 5.4-12 12-12h56v-56c0-6.6 5.4-12 12-12h32c6.6 0 12 5.4 12 12v56h56c6.6 0 12 5.4 12 12zm201 284.7L476.7 505c-9.4 9.4-24.6 9.4-33.9 0L343 405.3c-4.5-4.5-7-10.6-7-17V372c-35.3 27.6-79.7 44-128 44C93.1 416 0 322.9 0 208S93.1 0 208 0s208 93.1 208 208c0 48.3-16.4 92.7-44 128h16.3c6.4 0 12.5 2.5 17 7l99.7 99.7c9.3 9.4 9.3 24.6 0 34zM344 208c0-75.2-60.8-136-136-136S72 132.8 72 208s60.8 136 136 136 136-60.8 136-136z"></path>
  </symbol>
  <symbol id="seedling" viewBox="0 0 512 512">
    <path d="M64 96H0c0 123.7 100.3 224 224 224v144c0 8.8 7.2 16 16 16h32c8.8 0 16-7.2 16-16V320C288 196.3 187.7 96 64 96zm384-64c-84.2 0-157.4 46.5-195.7 115.2 27.7 30.2 48.2 66.9 59 107.6C424 243.1 512 147.9 512 32h-64z"></path>
  </symbol>
  <symbol id="server" viewBox="0 0 512 512">
    <path d="M480 160H32c-17.673 0-32-14.327-32-32V64c0-17.673 14.327-32 32-32h448c17.673 0 32 14.327 32 32v64c0 17.673-14.327 32-32 32zm-48-88c-13.255 0-24 10.745-24 24s10.745 24 24 24 24-10.745 24-24-10.745-24-24-24zm-64 0c-13.255 0-24 10.745-24 24s10.745 24 24 24 24-10.745 24-24-10.745-24-24-24zm112 248H32c-17.673 0-32-14.327-32-32v-64c0-17.673 14.327-32 32-32h448c17.673 0 32 14.327 32 32v64c0 17.673-14.327 32-32 32zm-48-88c-13.255 0-24 10.745-24 24s10.745 24 24 24 24-10.745 24-24-10.745-24-24-24zm-64 0c-13.255 0-24 10.745-24 24s10.745 24 24 24 24-10.745 24-24-10.745-24-24-24zm112 248H32c-17.673 0-32-14.327-32-32v-64c0-17.673 14.327-32 32-32h448c17.673 0 32 14.327 32 32v64c0 17.673-14.327 32-32 32zm-48-88c-13.255 0-24 10.745-24 24s10.745 24 24 24 24-10.745 24-24-10.745-24-24-24zm-64 0c-13.255 0-24 10.745-24 24s10.745 24 24 24 24-10.745 24-24-10.745-24-24-24z"></path>
  </symbol>
  <symbol id="shapes" viewBox="0 0 512 512">
    <path d="M512 320v160c0 17.67-14.33 32-32 32H320c-17.67 0-32-14.33-32-32V320c0-17.67 14.33-32 32-32h160c17.67 0 32 14.33 32 32zm-384-64C57.31 256 0 313.31 0 384s57.31 128 128 128 128-57.31 128-128-57.31-128-128-128zm351.03-32c25.34 0 41.18-26.67 28.51-48L412.51 16c-12.67-21.33-44.35-21.33-57.02 0l-95.03 160c-12.67 21.33 3.17 48 28.51 48h190.06z"></path>
  </symbol>
  <symbol id="share" viewBox="0 0 512 512">
    <path d="M503.691 189.836L327.687 37.851C312.281 24.546 288 35.347 288 56.015v80.053C127.371 137.907 0 170.1 0 322.326c0 61.441 39.581 122.309 83.333 154.132 13.653 9.931 33.111-2.533 28.077-18.631C66.066 312.814 132.917 274.316 288 272.085V360c0 20.7 24.3 31.453 39.687 18.164l176.004-152c11.071-9.562 11.086-26.753 0-36.328z"></path>
  </symbol>
  <symbol id="share-alt" viewBox="0 0 448 512">
    <path d="M352 320c-22.608 0-43.387 7.819-59.79 20.895l-102.486-64.054a96.551 96.551 0 0 0 0-41.683l102.486-64.054C308.613 184.181 329.392 192 352 192c53.019 0 96-42.981 96-96S405.019 0 352 0s-96 42.981-96 96c0 7.158.79 14.13 2.276 20.841L155.79 180.895C139.387 167.819 118.608 160 96 160c-53.019 0-96 42.981-96 96s42.981 96 96 96c22.608 0 43.387-7.819 59.79-20.895l102.486 64.054A96.301 96.301 0 0 0 256 416c0 53.019 42.981 96 96 96s96-42.981 96-96-42.981-96-96-96z"></path>
  </symbol>
  <symbol id="share-alt-square" viewBox="0 0 448 512">
    <path d="M448 80v352c0 26.51-21.49 48-48 48H48c-26.51 0-48-21.49-48-48V80c0-26.51 21.49-48 48-48h352c26.51 0 48 21.49 48 48zM304 296c-14.562 0-27.823 5.561-37.783 14.671l-67.958-40.775a56.339 56.339 0 0 0 0-27.793l67.958-40.775C276.177 210.439 289.438 216 304 216c30.928 0 56-25.072 56-56s-25.072-56-56-56-56 25.072-56 56c0 4.797.605 9.453 1.74 13.897l-67.958 40.775C171.823 205.561 158.562 200 144 200c-30.928 0-56 25.072-56 56s25.072 56 56 56c14.562 0 27.823-5.561 37.783-14.671l67.958 40.775a56.088 56.088 0 0 0-1.74 13.897c0 30.928 25.072 56 56 56s56-25.072 56-56C360 321.072 334.928 296 304 296z"></path>
  </symbol>
  <symbol id="share-square" viewBox="0 0 576 512">
    <path d="M568.482 177.448L424.479 313.433C409.3 327.768 384 317.14 384 295.985v-71.963c-144.575.97-205.566 35.113-164.775 171.353 4.483 14.973-12.846 26.567-25.006 17.33C155.252 383.105 120 326.488 120 269.339c0-143.937 117.599-172.5 264-173.312V24.012c0-21.174 25.317-31.768 40.479-17.448l144.003 135.988c10.02 9.463 10.028 25.425 0 34.896zM384 379.128V448H64V128h50.916a11.99 11.99 0 0 0 8.648-3.693c14.953-15.568 32.237-27.89 51.014-37.676C185.708 80.83 181.584 64 169.033 64H48C21.49 64 0 85.49 0 112v352c0 26.51 21.49 48 48 48h352c26.51 0 48-21.49 48-48v-88.806c0-8.288-8.197-14.066-16.011-11.302a71.83 71.83 0 0 1-34.189 3.377c-7.27-1.046-13.8 4.514-13.8 11.859z"></path>
  </symbol>
  <symbol id="shekel-sign" viewBox="0 0 448 512">
    <path d="M248 168v168c0 8.84 7.16 16 16 16h48c8.84 0 16-7.16 16-16V168c0-75.11-60.89-136-136-136H24C10.75 32 0 42.74 0 56v408c0 8.84 7.16 16 16 16h48c8.84 0 16-7.16 16-16V112h112c30.93 0 56 25.07 56 56zM432 32h-48c-8.84 0-16 7.16-16 16v296c0 30.93-25.07 56-56 56H200V176c0-8.84-7.16-16-16-16h-48c-8.84 0-16 7.16-16 16v280c0 13.25 10.75 24 24 24h168c75.11 0 136-60.89 136-136V48c0-8.84-7.16-16-16-16z"></path>
  </symbol>
  <symbol id="shield-alt" viewBox="0 0 512 512">
    <path d="M466.5 83.7l-192-80a48.15 48.15 0 0 0-36.9 0l-192 80C27.7 91.1 16 108.6 16 128c0 198.5 114.5 335.7 221.5 380.3 11.8 4.9 25.1 4.9 36.9 0C360.1 472.6 496 349.3 496 128c0-19.4-11.7-36.9-29.5-44.3zM256.1 446.3l-.1-381 175.9 73.3c-3.3 151.4-82.1 261.1-175.8 307.7z"></path>
  </symbol>
  <symbol id="ship" viewBox="0 0 640 512">
    <path d="M496.616 372.639l70.012-70.012c16.899-16.9 9.942-45.771-12.836-53.092L512 236.102V96c0-17.673-14.327-32-32-32h-64V24c0-13.255-10.745-24-24-24H248c-13.255 0-24 10.745-24 24v40h-64c-17.673 0-32 14.327-32 32v140.102l-41.792 13.433c-22.753 7.313-29.754 36.173-12.836 53.092l70.012 70.012C125.828 416.287 85.587 448 24 448c-13.255 0-24 10.745-24 24v16c0 13.255 10.745 24 24 24 61.023 0 107.499-20.61 143.258-59.396C181.677 487.432 216.021 512 256 512h128c39.979 0 74.323-24.568 88.742-59.396C508.495 491.384 554.968 512 616 512c13.255 0 24-10.745 24-24v-16c0-13.255-10.745-24-24-24-60.817 0-101.542-31.001-119.384-75.361zM192 128h256v87.531l-118.208-37.995a31.995 31.995 0 0 0-19.584 0L192 215.531V128z"></path>
  </symbol>
  <symbol id="shipping-fast" viewBox="0 0 640 512">
    <path d="M624 352h-16V243.9c0-12.7-5.1-24.9-14.1-33.9L494 110.1c-9-9-21.2-14.1-33.9-14.1H416V48c0-26.5-21.5-48-48-48H112C85.5 0 64 21.5 64 48v48H8c-4.4 0-8 3.6-8 8v16c0 4.4 3.6 8 8 8h272c4.4 0 8 3.6 8 8v16c0 4.4-3.6 8-8 8H40c-4.4 0-8 3.6-8 8v16c0 4.4 3.6 8 8 8h208c4.4 0 8 3.6 8 8v16c0 4.4-3.6 8-8 8H8c-4.4 0-8 3.6-8 8v16c0 4.4 3.6 8 8 8h208c4.4 0 8 3.6 8 8v16c0 4.4-3.6 8-8 8H64v128c0 53 43 96 96 96s96-43 96-96h128c0 53 43 96 96 96s96-43 96-96h48c8.8 0 16-7.2 16-16v-32c0-8.8-7.2-16-16-16zM160 464c-26.5 0-48-21.5-48-48s21.5-48 48-48 48 21.5 48 48-21.5 48-48 48zm320 0c-26.5 0-48-21.5-48-48s21.5-48 48-48 48 21.5 48 48-21.5 48-48 48zm80-208H416V144h44.1l99.9 99.9V256z"></path>
  </symbol>
  <symbol id="shoe-prints" viewBox="0 0 640 512">
    <path d="M192 160h32V32h-32c-35.35 0-64 28.65-64 64s28.65 64 64 64zM0 416c0 35.35 28.65 64 64 64h32V352H64c-35.35 0-64 28.65-64 64zm337.46-128c-34.91 0-76.16 13.12-104.73 32-24.79 16.38-44.52 32-104.73 32v128l57.53 15.97c26.21 7.28 53.01 13.12 80.31 15.05 32.69 2.31 65.6.67 97.58-6.2C472.9 481.3 512 429.22 512 384c0-64-84.18-96-174.54-96zM491.42 7.19C459.44.32 426.53-1.33 393.84.99c-27.3 1.93-54.1 7.77-80.31 15.04L256 32v128c60.2 0 79.94 15.62 104.73 32 28.57 18.88 69.82 32 104.73 32C555.82 224 640 192 640 128c0-45.22-39.1-97.3-148.58-120.81z"></path>
  </symbol>
  <symbol id="shopping-bag" viewBox="0 0 448 512">
    <path d="M352 160v-32C352 57.42 294.579 0 224 0 153.42 0 96 57.42 96 128v32H0v272c0 44.183 35.817 80 80 80h288c44.183 0 80-35.817 80-80V160h-96zm-192-32c0-35.29 28.71-64 64-64s64 28.71 64 64v32H160v-32zm160 120c-13.255 0-24-10.745-24-24s10.745-24 24-24 24 10.745 24 24-10.745 24-24 24zm-192 0c-13.255 0-24-10.745-24-24s10.745-24 24-24 24 10.745 24 24-10.745 24-24 24z"></path>
  </symbol>
  <symbol id="shopping-basket" viewBox="0 0 576 512">
    <path d="M576 216v16c0 13.255-10.745 24-24 24h-8l-26.113 182.788C514.509 462.435 494.257 480 470.37 480H105.63c-23.887 0-44.139-17.565-47.518-41.212L32 256h-8c-13.255 0-24-10.745-24-24v-16c0-13.255 10.745-24 24-24h67.341l106.78-146.821c10.395-14.292 30.407-17.453 44.701-7.058 14.293 10.395 17.453 30.408 7.058 44.701L170.477 192h235.046L326.12 82.821c-10.395-14.292-7.234-34.306 7.059-44.701 14.291-10.395 34.306-7.235 44.701 7.058L484.659 192H552c13.255 0 24 10.745 24 24zM312 392V280c0-13.255-10.745-24-24-24s-24 10.745-24 24v112c0 13.255 10.745 24 24 24s24-10.745 24-24zm112 0V280c0-13.255-10.745-24-24-24s-24 10.745-24 24v112c0 13.255 10.745 24 24 24s24-10.745 24-24zm-224 0V280c0-13.255-10.745-24-24-24s-24 10.745-24 24v112c0 13.255 10.745 24 24 24s24-10.745 24-24z"></path>
  </symbol>
  <symbol id="shopping-cart" viewBox="0 0 576 512">
    <path d="M528.12 301.319l47.273-208C578.806 78.301 567.391 64 551.99 64H159.208l-9.166-44.81C147.758 8.021 137.93 0 126.529 0H24C10.745 0 0 10.745 0 24v16c0 13.255 10.745 24 24 24h69.883l70.248 343.435C147.325 417.1 136 435.222 136 456c0 30.928 25.072 56 56 56s56-25.072 56-56c0-15.674-6.447-29.835-16.824-40h209.647C430.447 426.165 424 440.326 424 456c0 30.928 25.072 56 56 56s56-25.072 56-56c0-22.172-12.888-41.332-31.579-50.405l5.517-24.276c3.413-15.018-8.002-29.319-23.403-29.319H218.117l-6.545-32h293.145c11.206 0 20.92-7.754 23.403-18.681z"></path>
  </symbol>
  <symbol id="shower" viewBox="0 0 512 512">
    <path d="M389.66 135.6L231.6 293.66c-9.37 9.37-24.57 9.37-33.94 0l-11.32-11.32c-9.37-9.37-9.37-24.57 0-33.94l.11-.11c-34.03-40.21-35.16-98.94-3.39-140.38-11.97-7.55-26.14-11.91-41.3-11.91C98.88 96 64 130.88 64 173.76V480H0V173.76C0 95.59 63.59 32 141.76 32c36.93 0 70.61 14.2 95.86 37.42 35.9-11.51 76.5-4.5 106.67 21.03l.11-.11c9.37-9.37 24.57-9.37 33.94 0l11.32 11.32c9.37 9.37 9.37 24.57 0 33.94zM384 208c0 8.837-7.163 16-16 16s-16-7.163-16-16 7.163-16 16-16 16 7.163 16 16zm32 0c0-8.837 7.163-16 16-16s16 7.163 16 16-7.163 16-16 16-16-7.163-16-16zm96 0c0 8.837-7.163 16-16 16s-16-7.163-16-16 7.163-16 16-16 16 7.163 16 16zm-160 32c0 8.837-7.163 16-16 16s-16-7.163-16-16 7.163-16 16-16 16 7.163 16 16zm48-16c8.837 0 16 7.163 16 16s-7.163 16-16 16-16-7.163-16-16 7.163-16 16-16zm80 16c0 8.837-7.163 16-16 16s-16-7.163-16-16 7.163-16 16-16 16 7.163 16 16zm-160 32c0 8.837-7.163 16-16 16s-16-7.163-16-16 7.163-16 16-16 16 7.163 16 16zm32 0c0-8.837 7.163-16 16-16s16 7.163 16 16-7.163 16-16 16-16-7.163-16-16zm96 0c0 8.837-7.163 16-16 16s-16-7.163-16-16 7.163-16 16-16 16 7.163 16 16zm-128 32c0-8.837 7.163-16 16-16s16 7.163 16 16-7.163 16-16 16-16-7.163-16-16zm96 0c0 8.837-7.163 16-16 16s-16-7.163-16-16 7.163-16 16-16 16 7.163 16 16zm-96 32c0 8.837-7.163 16-16 16s-16-7.163-16-16 7.163-16 16-16 16 7.163 16 16zm64 0c0 8.837-7.163 16-16 16s-16-7.163-16-16 7.163-16 16-16 16 7.163 16 16zm-32 32c0 8.837-7.163 16-16 16s-16-7.163-16-16 7.163-16 16-16 16 7.163 16 16zm-32 32c0 8.837-7.163 16-16 16s-16-7.163-16-16 7.163-16 16-16 16 7.163 16 16z"></path>
  </symbol>
  <symbol id="shuttle-van" viewBox="0 0 640 512">
    <path d="M628.88 210.65L494.39 49.27A48.01 48.01 0 0 0 457.52 32H32C14.33 32 0 46.33 0 64v288c0 17.67 14.33 32 32 32h32c0 53.02 42.98 96 96 96s96-42.98 96-96h128c0 53.02 42.98 96 96 96s96-42.98 96-96h32c17.67 0 32-14.33 32-32V241.38c0-11.23-3.94-22.1-11.12-30.73zM64 192V96h96v96H64zm96 240c-26.51 0-48-21.49-48-48s21.49-48 48-48 48 21.49 48 48-21.49 48-48 48zm160-240h-96V96h96v96zm160 240c-26.51 0-48-21.49-48-48s21.49-48 48-48 48 21.49 48 48-21.49 48-48 48zm-96-240V96h66.02l80 96H384z"></path>
  </symbol>
  <symbol id="sign" viewBox="0 0 512 512">
    <path d="M496 64H128V16c0-8.8-7.2-16-16-16H80c-8.8 0-16 7.2-16 16v48H16C7.2 64 0 71.2 0 80v32c0 8.8 7.2 16 16 16h48v368c0 8.8 7.2 16 16 16h32c8.8 0 16-7.2 16-16V128h368c8.8 0 16-7.2 16-16V80c0-8.8-7.2-16-16-16zM160 384h320V160H160v224z"></path>
  </symbol>
  <symbol id="sign-in-alt" viewBox="0 0 512 512">
    <path d="M416 448h-84c-6.6 0-12-5.4-12-12v-40c0-6.6 5.4-12 12-12h84c17.7 0 32-14.3 32-32V160c0-17.7-14.3-32-32-32h-84c-6.6 0-12-5.4-12-12V76c0-6.6 5.4-12 12-12h84c53 0 96 43 96 96v192c0 53-43 96-96 96zm-47-201L201 79c-15-15-41-4.5-41 17v96H24c-13.3 0-24 10.7-24 24v96c0 13.3 10.7 24 24 24h136v96c0 21.5 26 32 41 17l168-168c9.3-9.4 9.3-24.6 0-34z"></path>
  </symbol>
  <symbol id="sign-language" viewBox="0 0 448 512">
    <path d="M91.434 483.987c-.307-16.018 13.109-29.129 29.13-29.129h62.293v-5.714H56.993c-16.021 0-29.437-13.111-29.13-29.129C28.16 404.491 40.835 392 56.428 392h126.429v-5.714H29.136c-16.021 0-29.437-13.111-29.13-29.129.297-15.522 12.973-28.013 28.566-28.013h154.286v-5.714H57.707c-16.021 0-29.437-13.111-29.13-29.129.297-15.522 12.973-28.013 28.566-28.013h168.566l-31.085-22.606c-12.762-9.281-15.583-27.149-6.302-39.912 9.281-12.761 27.15-15.582 39.912-6.302l123.361 89.715a34.287 34.287 0 0 1 14.12 27.728v141.136c0 15.91-10.946 29.73-26.433 33.374l-80.471 18.934a137.16 137.16 0 0 1-31.411 3.646H120c-15.593-.001-28.269-12.492-28.566-28.014zm73.249-225.701h36.423l-11.187-8.136c-18.579-13.511-20.313-40.887-3.17-56.536l-13.004-16.7c-9.843-12.641-28.43-15.171-40.88-5.088-12.065 9.771-14.133 27.447-4.553 39.75l36.371 46.71zm283.298-2.103l-5.003-152.452c-.518-15.771-13.722-28.136-29.493-27.619-15.773.518-28.137 13.722-27.619 29.493l1.262 38.415L283.565 11.019c-9.58-12.303-27.223-14.63-39.653-5.328-12.827 9.599-14.929 28.24-5.086 40.881l76.889 98.745-4.509 3.511-94.79-121.734c-9.58-12.303-27.223-14.63-39.653-5.328-12.827 9.599-14.929 28.24-5.086 40.881l94.443 121.288-4.509 3.511-77.675-99.754c-9.58-12.303-27.223-14.63-39.653-5.328-12.827 9.599-14.929 28.24-5.086 40.881l52.053 66.849c12.497-8.257 29.055-8.285 41.69.904l123.36 89.714c10.904 7.93 17.415 20.715 17.415 34.198v16.999l61.064-47.549a34.285 34.285 0 0 0 13.202-28.177z"></path>
  </symbol>
  <symbol id="sign-out-alt" viewBox="0 0 512 512">
    <path d="M497 273L329 441c-15 15-41 4.5-41-17v-96H152c-13.3 0-24-10.7-24-24v-96c0-13.3 10.7-24 24-24h136V88c0-21.4 25.9-32 41-17l168 168c9.3 9.4 9.3 24.6 0 34zM192 436v-40c0-6.6-5.4-12-12-12H96c-17.7 0-32-14.3-32-32V160c0-17.7 14.3-32 32-32h84c6.6 0 12-5.4 12-12V76c0-6.6-5.4-12-12-12H96c-53 0-96 43-96 96v192c0 53 43 96 96 96h84c6.6 0 12-5.4 12-12z"></path>
  </symbol>
  <symbol id="signal" viewBox="0 0 640 512">
    <path d="M216 288h-48c-8.84 0-16 7.16-16 16v192c0 8.84 7.16 16 16 16h48c8.84 0 16-7.16 16-16V304c0-8.84-7.16-16-16-16zM88 384H40c-8.84 0-16 7.16-16 16v96c0 8.84 7.16 16 16 16h48c8.84 0 16-7.16 16-16v-96c0-8.84-7.16-16-16-16zm256-192h-48c-8.84 0-16 7.16-16 16v288c0 8.84 7.16 16 16 16h48c8.84 0 16-7.16 16-16V208c0-8.84-7.16-16-16-16zm128-96h-48c-8.84 0-16 7.16-16 16v384c0 8.84 7.16 16 16 16h48c8.84 0 16-7.16 16-16V112c0-8.84-7.16-16-16-16zM600 0h-48c-8.84 0-16 7.16-16 16v480c0 8.84 7.16 16 16 16h48c8.84 0 16-7.16 16-16V16c0-8.84-7.16-16-16-16z"></path>
  </symbol>
  <symbol id="signature" viewBox="0 0 640 512">
    <path d="M623.2 192c-51.8 3.5-125.7 54.7-163.1 71.5-29.1 13.1-54.2 24.4-76.1 24.4-22.6 0-26-16.2-21.3-51.9 1.1-8 11.7-79.2-42.7-76.1-25.1 1.5-64.3 24.8-169.5 126L192 182.2c30.4-75.9-53.2-151.5-129.7-102.8L7.4 116.3C0 121-2.2 130.9 2.5 138.4l17.2 27c4.7 7.5 14.6 9.7 22.1 4.9l58-38.9c18.4-11.7 40.7 7.2 32.7 27.1L34.3 404.1C27.5 421 37 448 64 448c8.3 0 16.5-3.2 22.6-9.4 42.2-42.2 154.7-150.7 211.2-195.8-2.2 28.5-2.1 58.9 20.6 83.8 15.3 16.8 37.3 25.3 65.5 25.3 35.6 0 68-14.6 102.3-30 33-14.8 99-62.6 138.4-65.8 8.5-.7 15.2-7.3 15.2-15.8v-32.1c.2-9.1-7.5-16.8-16.6-16.2z"></path>
  </symbol>
  <symbol id="sim-card" viewBox="0 0 384 512">
    <path d="M0 64v384c0 35.3 28.7 64 64 64h256c35.3 0 64-28.7 64-64V128L256 0H64C28.7 0 0 28.7 0 64zm224 192h-64v-64h64v64zm96 0h-64v-64h32c17.7 0 32 14.3 32 32v32zm-64 128h64v32c0 17.7-14.3 32-32 32h-32v-64zm-96 0h64v64h-64v-64zm-96 0h64v64H96c-17.7 0-32-14.3-32-32v-32zm0-96h256v64H64v-64zm0-64c0-17.7 14.3-32 32-32h32v64H64v-32z"></path>
  </symbol>
  <symbol id="sitemap" viewBox="0 0 640 512">
    <path d="M128 352H32c-17.67 0-32 14.33-32 32v96c0 17.67 14.33 32 32 32h96c17.67 0 32-14.33 32-32v-96c0-17.67-14.33-32-32-32zm-24-80h192v48h48v-48h192v48h48v-57.59c0-21.17-17.23-38.41-38.41-38.41H344v-64h40c17.67 0 32-14.33 32-32V32c0-17.67-14.33-32-32-32H256c-17.67 0-32 14.33-32 32v96c0 17.67 14.33 32 32 32h40v64H94.41C73.23 224 56 241.23 56 262.41V320h48v-48zm264 80h-96c-17.67 0-32 14.33-32 32v96c0 17.67 14.33 32 32 32h96c17.67 0 32-14.33 32-32v-96c0-17.67-14.33-32-32-32zm240 0h-96c-17.67 0-32 14.33-32 32v96c0 17.67 14.33 32 32 32h96c17.67 0 32-14.33 32-32v-96c0-17.67-14.33-32-32-32z"></path>
  </symbol>
  <symbol id="skating" viewBox="0 0 448 512">
    <path d="M400 0c-26.5 0-48 21.5-48 48s21.5 48 48 48 48-21.5 48-48-21.5-48-48-48zm0 448c-8.8 0-16 7.2-16 16s-7.2 16-16 16h-96c-8.8 0-16 7.2-16 16s7.2 16 16 16h96c26.5 0 48-21.5 48-48 0-8.8-7.2-16-16-16zm-282.2 8.6c-6.2 6.2-16.4 6.3-22.6 0l-67.9-67.9c-6.2-6.2-16.4-6.2-22.6 0s-6.2 16.4 0 22.6l67.9 67.9c9.4 9.4 21.7 14 34 14s24.6-4.7 33.9-14c6.2-6.2 6.2-16.4 0-22.6s-16.4-6.3-22.7 0zm56.1-179.8l-93.7 93.7c-12.5 12.5-12.5 32.8 0 45.2 6.2 6.2 14.4 9.4 22.6 9.4s16.4-3.1 22.6-9.4l91.9-91.9-30.2-30.2c-5-5-9.4-10.7-13.2-16.8zM128 160h105.5l-20.1 17.2c-13.5 11.5-21.6 28.4-22.3 46.1-.7 17.8 6.1 35.2 18.7 47.7l78.2 78.2V432c0 17.7 14.3 32 32 32s32-14.3 32-32v-89.4c0-12.6-5.1-25-14.1-33.9l-61-61c.5-.4 1.2-.6 1.7-1.1l82.3-82.3c11.5-11.5 14.9-28.6 8.7-43.6-6.2-15-20.7-24.7-37-24.7H128c-17.7 0-32 14.3-32 32s14.3 32 32 32z"></path>
  </symbol>
  <symbol id="skiing" viewBox="0 0 512 512">
    <path d="M432 96c26.5 0 48-21.5 48-48S458.5 0 432 0s-48 21.5-48 48 21.5 48 48 48zm73 356.1c-9.4-9.4-24.6-9.4-33.9 0-12.1 12.1-30.5 15.4-45.1 8.7l-135.8-70.2 49.2-73.8c12.7-19 10.2-44.5-6-60.6L293 215.7l-107-53.1c-2.9 19.9 3.4 40 17.7 54.4l75.1 75.2-45.9 68.8L35 258.7c-11.7-6-26.2-1.5-32.3 10.3-6.1 11.8-1.5 26.3 10.3 32.3l391.9 202.5c11.9 5.5 24.5 8.1 37.1 8.1 23.2 0 46-9 63-26 9.3-9.3 9.3-24.5 0-33.8zM120 91.6l-11.5 22.5c14.4 7.3 31.2 4.9 42.8-4.8l47.2 23.4c-.1.1-.1.2-.2.3l114.5 56.8 32.4-13 6.4 19.1c4 12.1 12.6 22 24 27.7l58.1 29c15.9 7.9 35 1.5 42.9-14.3 7.9-15.8 1.5-35-14.3-42.9l-52.1-26.1-17.1-51.2c-8.1-24.2-40.9-56.6-84.5-39.2l-81.2 32.5-62.5-31c.3-14.5-7.2-28.6-20.9-35.6l-11.1 21.7h-.2l-34.4-7c-1.8-.4-3.7.2-5 1.7-1.9 2.2-1.7 5.5.5 7.4l26.2 23z"></path>
  </symbol>
  <symbol id="skiing-nordic" viewBox="0 0 576 512">
    <path d="M336 96c26.5 0 48-21.5 48-48S362.5 0 336 0s-48 21.5-48 48 21.5 48 48 48zm216 320c-13.2 0-24 10.7-24 24 0 13.2-10.8 24-24 24h-69.5L460 285.6c11.7-4.7 20.1-16.2 20.1-29.6 0-17.7-14.3-32-32-32h-44L378 170.8c-12.5-25.5-35.5-44.2-61.8-50.9L245 98.7c-28.3-6.8-57.8-.5-80.8 17.1l-39.7 30.4c-14 10.7-16.7 30.8-5.9 44.9.7.9 1.7 1.3 2.4 2.1L66.9 464H24c-13.2 0-24 10.7-24 24s10.8 24 24 24h480c39.7 0 72-32.3 72-72 0-13.2-10.8-24-24-24zm-260.5 48h-96.9l43.1-91-22-13c-12.1-7.2-21.9-16.9-29.5-27.8L123.7 464H99.5l52.3-261.4c4.1-1 8.1-2.9 11.7-5.6l39.7-30.4c7.7-5.9 17.4-8 25.3-6.1l14.7 4.4-37.5 87.4c-12.6 29.5-1.3 64 26.3 80.3l85 50.2-25.5 81.2zm110.6 0h-43.6l23.6-75.5c5.9-20.8-2.9-43.1-21.6-54.4L299.3 298l31.3-78.3 20.3 41.4c8 16.3 24.9 26.9 43.1 26.9h33.3l-25.2 176z"></path>
  </symbol>
  <symbol id="skull" viewBox="0 0 512 512">
    <path d="M256 0C114.6 0 0 100.3 0 224c0 70.1 36.9 132.6 94.5 173.7 9.6 6.9 15.2 18.1 13.5 29.9l-9.4 66.2c-1.4 9.6 6 18.2 15.7 18.2H192v-56c0-4.4 3.6-8 8-8h16c4.4 0 8 3.6 8 8v56h64v-56c0-4.4 3.6-8 8-8h16c4.4 0 8 3.6 8 8v56h77.7c9.7 0 17.1-8.6 15.7-18.2l-9.4-66.2c-1.7-11.7 3.8-23 13.5-29.9C475.1 356.6 512 294.1 512 224 512 100.3 397.4 0 256 0zm-96 320c-35.3 0-64-28.7-64-64s28.7-64 64-64 64 28.7 64 64-28.7 64-64 64zm192 0c-35.3 0-64-28.7-64-64s28.7-64 64-64 64 28.7 64 64-28.7 64-64 64z"></path>
  </symbol>
  <symbol id="skull-crossbones" viewBox="0 0 448 512">
    <path d="M439.15 453.06L297.17 384l141.99-69.06c7.9-3.95 11.11-13.56 7.15-21.46L432 264.85c-3.95-7.9-13.56-11.11-21.47-7.16L224 348.41 37.47 257.69c-7.9-3.95-17.51-.75-21.47 7.16L1.69 293.48c-3.95 7.9-.75 17.51 7.15 21.46L150.83 384 8.85 453.06c-7.9 3.95-11.11 13.56-7.15 21.47l14.31 28.63c3.95 7.9 13.56 11.11 21.47 7.15L224 419.59l186.53 90.72c7.9 3.95 17.51.75 21.47-7.15l14.31-28.63c3.95-7.91.74-17.52-7.16-21.47zM150 237.28l-5.48 25.87c-2.67 12.62 5.42 24.85 16.45 24.85h126.08c11.03 0 19.12-12.23 16.45-24.85l-5.5-25.87c41.78-22.41 70-62.75 70-109.28C368 57.31 303.53 0 224 0S80 57.31 80 128c0 46.53 28.22 86.87 70 109.28zM280 112c17.65 0 32 14.35 32 32s-14.35 32-32 32-32-14.35-32-32 14.35-32 32-32zm-112 0c17.65 0 32 14.35 32 32s-14.35 32-32 32-32-14.35-32-32 14.35-32 32-32z"></path>
  </symbol>
  <symbol id="slash" viewBox="0 0 640 512">
    <path d="M594.53 508.63L6.18 53.9c-6.97-5.42-8.23-15.47-2.81-22.45L23.01 6.18C28.43-.8 38.49-2.06 45.47 3.37L633.82 458.1c6.97 5.42 8.23 15.47 2.81 22.45l-19.64 25.27c-5.42 6.98-15.48 8.23-22.46 2.81z"></path>
  </symbol>
  <symbol id="sleigh" viewBox="0 0 640 512">
    <path d="M612.7 350.7l-9.3-7.4c-6.9-5.5-17-4.4-22.5 2.5l-10 12.5c-5.5 6.9-4.4 17 2.5 22.5l9.3 7.4c5.9 4.7 9.2 11.7 9.2 19.2 0 13.6-11 24.6-24.6 24.6H48c-8.8 0-16 7.2-16 16v16c0 8.8 7.2 16 16 16h516c39 0 73.7-29.3 75.9-68.3 1.4-23.8-8.7-46.3-27.2-61zM32 224c0 59.6 40.9 109.2 96 123.5V400h64v-48h192v48h64v-48c53 0 96-43 96-96v-96c17.7 0 32-14.3 32-32s-14.3-32-32-32h-96v64c0 35.3-28.7 64-64 64h-20.7c-65.8 0-125.9-37.2-155.3-96-29.4-58.8-89.6-96-155.3-96H32C14.3 32 0 46.3 0 64s14.3 32 32 32v128z"></path>
  </symbol>
  <symbol id="sliders-h" viewBox="0 0 512 512">
    <path d="M496 384H160v-16c0-8.8-7.2-16-16-16h-32c-8.8 0-16 7.2-16 16v16H16c-8.8 0-16 7.2-16 16v32c0 8.8 7.2 16 16 16h80v16c0 8.8 7.2 16 16 16h32c8.8 0 16-7.2 16-16v-16h336c8.8 0 16-7.2 16-16v-32c0-8.8-7.2-16-16-16zm0-160h-80v-16c0-8.8-7.2-16-16-16h-32c-8.8 0-16 7.2-16 16v16H16c-8.8 0-16 7.2-16 16v32c0 8.8 7.2 16 16 16h336v16c0 8.8 7.2 16 16 16h32c8.8 0 16-7.2 16-16v-16h80c8.8 0 16-7.2 16-16v-32c0-8.8-7.2-16-16-16zm0-160H288V48c0-8.8-7.2-16-16-16h-32c-8.8 0-16 7.2-16 16v16H16C7.2 64 0 71.2 0 80v32c0 8.8 7.2 16 16 16h208v16c0 8.8 7.2 16 16 16h32c8.8 0 16-7.2 16-16v-16h208c8.8 0 16-7.2 16-16V80c0-8.8-7.2-16-16-16z"></path>
  </symbol>
  <symbol id="smile" viewBox="0 0 496 512">
    <path d="M248 8C111 8 0 119 0 256s111 248 248 248 248-111 248-248S385 8 248 8zm80 168c17.7 0 32 14.3 32 32s-14.3 32-32 32-32-14.3-32-32 14.3-32 32-32zm-160 0c17.7 0 32 14.3 32 32s-14.3 32-32 32-32-14.3-32-32 14.3-32 32-32zm194.8 170.2C334.3 380.4 292.5 400 248 400s-86.3-19.6-114.8-53.8c-13.6-16.3 11-36.7 24.6-20.5 22.4 26.9 55.2 42.2 90.2 42.2s67.8-15.4 90.2-42.2c13.4-16.2 38.1 4.2 24.6 20.5z"></path>
  </symbol>
  <symbol id="smile-beam" viewBox="0 0 496 512">
    <path d="M248 8C111 8 0 119 0 256s111 248 248 248 248-111 248-248S385 8 248 8zM112 223.4c3.3-42.1 32.2-71.4 56-71.4s52.7 29.3 56 71.4c.7 8.6-10.8 11.9-14.9 4.5l-9.5-17c-7.7-13.7-19.2-21.6-31.5-21.6s-23.8 7.9-31.5 21.6l-9.5 17c-4.3 7.4-15.8 4-15.1-4.5zm250.8 122.8C334.3 380.4 292.5 400 248 400s-86.3-19.6-114.8-53.8c-13.5-16.3 11-36.7 24.6-20.5 22.4 26.9 55.2 42.2 90.2 42.2s67.8-15.4 90.2-42.2c13.6-16.2 38.1 4.3 24.6 20.5zm6.2-118.3l-9.5-17c-7.7-13.7-19.2-21.6-31.5-21.6s-23.8 7.9-31.5 21.6l-9.5 17c-4.1 7.3-15.6 4-14.9-4.5 3.3-42.1 32.2-71.4 56-71.4s52.7 29.3 56 71.4c.6 8.6-11 11.9-15.1 4.5z"></path>
  </symbol>
  <symbol id="smile-wink" viewBox="0 0 496 512">
    <path d="M0 256c0 137 111 248 248 248s248-111 248-248S385 8 248 8 0 119 0 256zm200-48c0 17.7-14.3 32-32 32s-32-14.3-32-32 14.3-32 32-32 32 14.3 32 32zm158.5 16.5c-14.8-13.2-46.2-13.2-61 0L288 233c-8.3 7.4-21.6.4-19.8-10.8 4-25.2 34.2-42.1 59.9-42.1S384 197 388 222.2c1.7 11.1-11.4 18.3-19.8 10.8l-9.7-8.5zM157.8 325.8C180.2 352.7 213 368 248 368s67.8-15.4 90.2-42.2c13.6-16.2 38.1 4.2 24.6 20.5C334.3 380.4 292.5 400 248 400s-86.3-19.6-114.8-53.8c-13.5-16.3 11.2-36.7 24.6-20.4z"></path>
  </symbol>
  <symbol id="smog" viewBox="0 0 640 512">
    <path d="M624 368H80c-8.8 0-16 7.2-16 16v16c0 8.8 7.2 16 16 16h544c8.8 0 16-7.2 16-16v-16c0-8.8-7.2-16-16-16zm-480 96H16c-8.8 0-16 7.2-16 16v16c0 8.8 7.2 16 16 16h128c8.8 0 16-7.2 16-16v-16c0-8.8-7.2-16-16-16zm416 0H224c-8.8 0-16 7.2-16 16v16c0 8.8 7.2 16 16 16h336c8.8 0 16-7.2 16-16v-16c0-8.8-7.2-16-16-16zM144 288h156.1c22.5 19.7 51.6 32 83.9 32s61.3-12.3 83.9-32H528c61.9 0 112-50.1 112-112S589.9 64 528 64c-18 0-34.7 4.6-49.7 12.1C454 31 406.8 0 352 0c-41 0-77.8 17.3-104 44.8C221.8 17.3 185 0 144 0 64.5 0 0 64.5 0 144s64.5 144 144 144z"></path>
  </symbol>
  <symbol id="smoking" viewBox="0 0 640 512">
    <path d="M632 352h-48c-4.4 0-8 3.6-8 8v144c0 4.4 3.6 8 8 8h48c4.4 0 8-3.6 8-8V360c0-4.4-3.6-8-8-8zM553.3 87.1c-5.7-3.8-9.3-10-9.3-16.8V8c0-4.4-3.6-8-8-8h-48c-4.4 0-8 3.6-8 8v62.3c0 22 10.2 43.4 28.6 55.4 42.2 27.3 67.4 73.8 67.4 124V280c0 4.4 3.6 8 8 8h48c4.4 0 8-3.6 8-8v-30.3c0-65.5-32.4-126.2-86.7-162.6zM432 352H48c-26.5 0-48 21.5-48 48v64c0 26.5 21.5 48 48 48h384c8.8 0 16-7.2 16-16V368c0-8.8-7.2-16-16-16zm-32 112H224v-64h176v64zm87.7-322.4C463.8 125 448 99.3 448 70.3V8c0-4.4-3.6-8-8-8h-48c-4.4 0-8 3.6-8 8v66.4c0 43.7 24.6 81.6 60.3 106.7 22.4 15.7 35.7 41.2 35.7 68.6V280c0 4.4 3.6 8 8 8h48c4.4 0 8-3.6 8-8v-30.3c0-43.3-21-83.4-56.3-108.1zM536 352h-48c-4.4 0-8 3.6-8 8v144c0 4.4 3.6 8 8 8h48c4.4 0 8-3.6 8-8V360c0-4.4-3.6-8-8-8z"></path>
  </symbol>
  <symbol id="smoking-ban" viewBox="0 0 512 512">
    <path d="M96 304c0 8.8 7.2 16 16 16h117.5l-96-96H112c-8.8 0-16 7.2-16 16v64zM256 0C114.6 0 0 114.6 0 256s114.6 256 256 256 256-114.6 256-256S397.4 0 256 0zm0 448c-105.9 0-192-86.1-192-192 0-41.4 13.3-79.7 35.7-111.1l267.4 267.4C335.7 434.7 297.4 448 256 448zm45.2-192H384v32h-50.8l-32-32zm111.1 111.1L365.2 320H400c8.8 0 16-7.2 16-16v-64c0-8.8-7.2-16-16-16H269.2L144.9 99.7C176.3 77.3 214.6 64 256 64c105.9 0 192 86.1 192 192 0 41.4-13.3 79.7-35.7 111.1zM320.6 128c-15.6 0-28.6-11.2-31.4-25.9-.7-3.6-4-6.1-7.7-6.1h-16.2c-5 0-8.7 4.5-8 9.4 4.6 30.9 31.2 54.6 63.3 54.6 15.6 0 28.6 11.2 31.4 25.9.7 3.6 4 6.1 7.7 6.1h16.2c5 0 8.7-4.5 8-9.4-4.6-30.9-31.2-54.6-63.3-54.6z"></path>
  </symbol>
  <symbol id="sms" viewBox="0 0 512 512">
    <path d="M256 32C114.6 32 0 125.1 0 240c0 49.6 21.4 95 57 130.7C44.5 421.1 2.7 466 2.2 466.5c-2.2 2.3-2.8 5.7-1.5 8.7 1.3 3 4.1 4.8 7.3 4.8 66.3 0 116-31.8 140.6-51.4 32.7 12.3 69 19.4 107.4 19.4 141.4 0 256-93.1 256-208S397.4 32 256 32zM128.2 304H116c-4.4 0-8-3.6-8-8v-16c0-4.4 3.6-8 8-8h12.3c6 0 10.4-3.5 10.4-6.6 0-1.3-.8-2.7-2.1-3.8l-21.9-18.8c-8.5-7.2-13.3-17.5-13.3-28.1 0-21.3 19-38.6 42.4-38.6H156c4.4 0 8 3.6 8 8v16c0 4.4-3.6 8-8 8h-12.3c-6 0-10.4 3.5-10.4 6.6 0 1.3.8 2.7 2.1 3.8l21.9 18.8c8.5 7.2 13.3 17.5 13.3 28.1.1 21.3-19 38.6-42.4 38.6zm191.8-8c0 4.4-3.6 8-8 8h-16c-4.4 0-8-3.6-8-8v-68.2l-24.8 55.8c-2.9 5.9-11.4 5.9-14.3 0L224 227.8V296c0 4.4-3.6 8-8 8h-16c-4.4 0-8-3.6-8-8V192c0-8.8 7.2-16 16-16h16c6.1 0 11.6 3.4 14.3 8.8l17.7 35.4 17.7-35.4c2.7-5.4 8.3-8.8 14.3-8.8h16c8.8 0 16 7.2 16 16v104zm48.3 8H356c-4.4 0-8-3.6-8-8v-16c0-4.4 3.6-8 8-8h12.3c6 0 10.4-3.5 10.4-6.6 0-1.3-.8-2.7-2.1-3.8l-21.9-18.8c-8.5-7.2-13.3-17.5-13.3-28.1 0-21.3 19-38.6 42.4-38.6H396c4.4 0 8 3.6 8 8v16c0 4.4-3.6 8-8 8h-12.3c-6 0-10.4 3.5-10.4 6.6 0 1.3.8 2.7 2.1 3.8l21.9 18.8c8.5 7.2 13.3 17.5 13.3 28.1.1 21.3-18.9 38.6-42.3 38.6z"></path>
  </symbol>
  <symbol id="snowboarding" viewBox="0 0 512 512">
    <path d="M432 96c26.5 0 48-21.5 48-48S458.5 0 432 0s-48 21.5-48 48 21.5 48 48 48zm28.8 153.6c5.8 4.3 12.5 6.4 19.2 6.4 9.7 0 19.3-4.4 25.6-12.8 10.6-14.1 7.8-34.2-6.4-44.8l-111.4-83.5c-13.8-10.3-29.1-18.4-45.4-23.8l-63.7-21.2-26.1-52.1C244.7 2 225.5-4.4 209.7 3.5c-15.8 7.9-22.2 27.1-14.3 42.9l29.1 58.1c5.7 11.4 15.6 19.9 27.7 24l16.4 5.5-41.2 20.6c-21.8 10.9-35.4 32.8-35.4 57.2v53.1l-74.1 24.7c-16.8 5.6-25.8 23.7-20.2 40.5 1.7 5.2 4.9 9.4 8.7 12.9l-38.7-14.1c-9.7-3.5-17.4-10.6-21.8-20-5.6-12-19.9-17.2-31.9-11.6s-17.2 19.9-11.6 31.9c9.8 21 27.1 36.9 48.9 44.8l364.8 132.7c9.7 3.5 19.7 5.3 29.7 5.3 12.5 0 24.9-2.7 36.5-8.2 12-5.6 17.2-19.9 11.6-31.9S474 454.7 462 460.3c-9.3 4.4-19.8 4.8-29.5 1.3l-90.8-33.1c8.7-4.1 15.6-11.8 17.8-21.9l21.9-102c3.9-18.2-3.2-37.2-18.1-48.4l-52-39 66-30.5 83.5 62.9zm-144.4 51.7l-19.7 92c-1.5 7.1-.1 13.9 2.8 20l-169.4-61.6c2.7-.2 5.4-.4 8-1.3l85-28.4c19.6-6.5 32.8-24.8 32.8-45.5V256l60.5 45.3z"></path>
  </symbol>
  <symbol id="snowflake" viewBox="0 0 448 512">
    <path d="M440.3 345.2l-33.8-19.5 26-7c8.2-2.2 13.1-10.7 10.9-18.9l-4-14.9c-2.2-8.2-10.7-13.1-18.9-10.9l-70.8 19-63.9-37 63.8-36.9 70.8 19c8.2 2.2 16.7-2.7 18.9-10.9l4-14.9c2.2-8.2-2.7-16.7-10.9-18.9l-26-7 33.8-19.5c7.4-4.3 9.9-13.7 5.7-21.1L430.4 119c-4.3-7.4-13.7-9.9-21.1-5.7l-33.8 19.5 7-26c2.2-8.2-2.7-16.7-10.9-18.9l-14.9-4c-8.2-2.2-16.7 2.7-18.9 10.9l-19 70.8-62.8 36.2v-77.5l53.7-53.7c6.2-6.2 6.2-16.4 0-22.6l-11.3-11.3c-6.2-6.2-16.4-6.2-22.6 0L256 56.4V16c0-8.8-7.2-16-16-16h-32c-8.8 0-16 7.2-16 16v40.4l-19.7-19.7c-6.2-6.2-16.4-6.2-22.6 0L138.3 48c-6.3 6.2-6.3 16.4 0 22.6l53.7 53.7v77.5l-62.8-36.2-19-70.8c-2.2-8.2-10.7-13.1-18.9-10.9l-14.9 4c-8.2 2.2-13.1 10.7-10.9 18.9l7 26-33.8-19.5c-7.4-4.3-16.8-1.7-21.1 5.7L2.1 145.7c-4.3 7.4-1.7 16.8 5.7 21.1l33.8 19.5-26 7c-8.3 2.2-13.2 10.7-11 19l4 14.9c2.2 8.2 10.7 13.1 18.9 10.9l70.8-19 63.8 36.9-63.8 36.9-70.8-19c-8.2-2.2-16.7 2.7-18.9 10.9l-4 14.9c-2.2 8.2 2.7 16.7 10.9 18.9l26 7-33.8 19.6c-7.4 4.3-9.9 13.7-5.7 21.1l15.5 26.8c4.3 7.4 13.7 9.9 21.1 5.7l33.8-19.5-7 26c-2.2 8.2 2.7 16.7 10.9 18.9l14.9 4c8.2 2.2 16.7-2.7 18.9-10.9l19-70.8 62.8-36.2v77.5l-53.7 53.7c-6.3 6.2-6.3 16.4 0 22.6l11.3 11.3c6.2 6.2 16.4 6.2 22.6 0l19.7-19.7V496c0 8.8 7.2 16 16 16h32c8.8 0 16-7.2 16-16v-40.4l19.7 19.7c6.2 6.2 16.4 6.2 22.6 0l11.3-11.3c6.2-6.2 6.2-16.4 0-22.6L256 387.7v-77.5l62.8 36.2 19 70.8c2.2 8.2 10.7 13.1 18.9 10.9l14.9-4c8.2-2.2 13.1-10.7 10.9-18.9l-7-26 33.8 19.5c7.4 4.3 16.8 1.7 21.1-5.7l15.5-26.8c4.3-7.3 1.8-16.8-5.6-21z"></path>
  </symbol>
  <symbol id="snowman" viewBox="0 0 512 512">
    <path d="M510.9 152.3l-5.9-14.5c-3.3-8-12.6-11.9-20.8-8.7L456 140.6v-29c0-8.6-7.2-15.6-16-15.6h-16c-8.8 0-16 7-16 15.6v46.9c0 .5.3 1 .3 1.5l-56.4 23c-5.9-10-13.3-18.9-22-26.6 13.6-16.6 22-37.4 22-60.5 0-53-43-96-96-96s-96 43-96 96c0 23.1 8.5 43.9 22 60.5-8.7 7.7-16 16.6-22 26.6l-56.4-23c.1-.5.3-1 .3-1.5v-46.9C104 103 96.8 96 88 96H72c-8.8 0-16 7-16 15.6v29l-28.1-11.5c-8.2-3.2-17.5.7-20.8 8.7l-5.9 14.5c-3.3 8 .7 17.1 8.9 20.3l135.2 55.2c-.4 4-1.2 8-1.2 12.2 0 10.1 1.7 19.6 4.2 28.9C120.9 296.4 104 334.2 104 376c0 54 28.4 100.9 70.8 127.8 9.3 5.9 20.3 8.2 31.3 8.2h99.2c13.3 0 26.3-4.1 37.2-11.7 46.5-32.3 74.4-89.4 62.9-152.6-5.5-30.2-20.5-57.6-41.6-79 2.5-9.2 4.2-18.7 4.2-28.7 0-4.2-.8-8.1-1.2-12.2L502 172.6c8.1-3.1 12.1-12.2 8.9-20.3zM224 96c-8.8 0-16-7.2-16-16s7.2-16 16-16 16 7.2 16 16-7.2 16-16 16zm32 272c-8.8 0-16-7.2-16-16s7.2-16 16-16 16 7.2 16 16-7.2 16-16 16zm0-64c-8.8 0-16-7.2-16-16s7.2-16 16-16 16 7.2 16 16-7.2 16-16 16zm0-64c-8.8 0-16-7.2-16-16s7.2-16 16-16 16 7.2 16 16-7.2 16-16 16zm0-88s-16-23.2-16-32 7.2-16 16-16 16 7.2 16 16-16 32-16 32zm32-56c-8.8 0-16-7.2-16-16s7.2-16 16-16 16 7.2 16 16-7.2 16-16 16z"></path>
  </symbol>
  <symbol id="snowplow" viewBox="0 0 640 512">
    <path d="M120 376c-13.3 0-24 10.7-24 24s10.7 24 24 24 24-10.7 24-24-10.7-24-24-24zm80 0c-13.3 0-24 10.7-24 24s10.7 24 24 24 24-10.7 24-24-10.7-24-24-24zm80 0c-13.3 0-24 10.7-24 24s10.7 24 24 24 24-10.7 24-24-10.7-24-24-24zm80 0c-13.3 0-24 10.7-24 24s10.7 24 24 24 24-10.7 24-24-10.7-24-24-24zm238.6 49.4c-14.5-14.5-22.6-34.1-22.6-54.6V269.2c0-20.5 8.1-40.1 22.6-54.6l36.7-36.7c6.2-6.2 6.2-16.4 0-22.6l-22.6-22.6c-6.2-6.2-16.4-6.2-22.6 0l-36.7 36.7c-26.5 26.5-41.4 62.4-41.4 99.9V288h-64v-50.9c0-8.7-1.8-17.2-5.2-25.2L364.5 29.1C356.9 11.4 339.6 0 320.3 0H176c-26.5 0-48 21.5-48 48v112h-16c-26.5 0-48 21.5-48 48v91.2C26.3 317.2 0 355.4 0 400c0 61.9 50.1 112 112 112h256c61.9 0 112-50.1 112-112 0-17.3-4.2-33.4-11.2-48H512v18.7c0 37.5 14.9 73.4 41.4 99.9l36.7 36.7c6.2 6.2 16.4 6.2 22.6 0l22.6-22.6c6.2-6.2 6.2-16.4 0-22.6l-36.7-36.7zM192 64h117.8l68.6 160H256l-64-64V64zm176 384H112c-26.5 0-48-21.5-48-48s21.5-48 48-48h256c26.5 0 48 21.5 48 48s-21.5 48-48 48z"></path>
  </symbol>
  <symbol id="socks" viewBox="0 0 512 512">
    <path d="M214.66 311.01L288 256V96H128v176l-86.65 64.61c-39.4 29.56-53.86 84.42-29.21 127.06C30.39 495.25 63.27 512 96.08 512c20.03 0 40.25-6.25 57.52-19.2l21.86-16.39c-29.85-55.38-13.54-125.84 39.2-165.4zM288 32c0-11.05 3.07-21.3 8.02-30.38C293.4.92 290.85 0 288 0H160c-17.67 0-32 14.33-32 32v32h160V32zM480 0H352c-17.67 0-32 14.33-32 32v32h192V32c0-17.67-14.33-32-32-32zM320 272l-86.13 64.61c-39.4 29.56-53.86 84.42-29.21 127.06 18.25 31.58 50.61 48.33 83.42 48.33 20.03 0 40.25-6.25 57.52-19.2l115.2-86.4A127.997 127.997 0 0 0 512 304V96H320v176z"></path>
  </symbol>
  <symbol id="solar-panel" viewBox="0 0 640 512">
    <path d="M431.98 448.01l-47.97.05V416h-128v32.21l-47.98.05c-8.82.01-15.97 7.16-15.98 15.99l-.05 31.73c-.01 8.85 7.17 16.03 16.02 16.02l223.96-.26c8.82-.01 15.97-7.16 15.98-15.98l.04-31.73c.01-8.85-7.17-16.03-16.02-16.02zM585.2 26.74C582.58 11.31 568.99 0 553.06 0H86.93C71 0 57.41 11.31 54.79 26.74-3.32 369.16.04 348.08.03 352c-.03 17.32 14.29 32 32.6 32h574.74c18.23 0 32.51-14.56 32.59-31.79.02-4.08 3.35 16.95-54.76-325.47zM259.83 64h120.33l9.77 96H250.06l9.77-96zm-75.17 256H71.09L90.1 208h105.97l-11.41 112zm16.29-160H98.24l16.29-96h96.19l-9.77 96zm32.82 160l11.4-112h149.65l11.4 112H233.77zm195.5-256h96.19l16.29 96H439.04l-9.77-96zm26.06 256l-11.4-112H549.9l19.01 112H455.33z"></path>
  </symbol>
  <symbol id="sort" viewBox="0 0 320 512">
    <path d="M41 288h238c21.4 0 32.1 25.9 17 41L177 448c-9.4 9.4-24.6 9.4-33.9 0L24 329c-15.1-15.1-4.4-41 17-41zm255-105L177 64c-9.4-9.4-24.6-9.4-33.9 0L24 183c-15.1 15.1-4.4 41 17 41h238c21.4 0 32.1-25.9 17-41z"></path>
  </symbol>
  <symbol id="sort-alpha-down" viewBox="0 0 448 512">
    <path d="M176 352h-48V48a16 16 0 0 0-16-16H80a16 16 0 0 0-16 16v304H16c-14.19 0-21.36 17.24-11.29 27.31l80 96a16 16 0 0 0 22.62 0l80-96C197.35 369.26 190.22 352 176 352zm240-64H288a16 16 0 0 0-16 16v32a16 16 0 0 0 16 16h56l-61.26 70.45A32 32 0 0 0 272 446.37V464a16 16 0 0 0 16 16h128a16 16 0 0 0 16-16v-32a16 16 0 0 0-16-16h-56l61.26-70.45A32 32 0 0 0 432 321.63V304a16 16 0 0 0-16-16zm31.06-85.38l-59.27-160A16 16 0 0 0 372.72 32h-41.44a16 16 0 0 0-15.07 10.62l-59.27 160A16 16 0 0 0 272 224h24.83a16 16 0 0 0 15.23-11.08l4.42-12.92h71l4.41 12.92A16 16 0 0 0 407.16 224H432a16 16 0 0 0 15.06-21.38zM335.61 144L352 96l16.39 48z"></path>
  </symbol>
  <symbol id="sort-alpha-down-alt" viewBox="0 0 448 512">
    <path d="M176 352h-48V48a16 16 0 0 0-16-16H80a16 16 0 0 0-16 16v304H16c-14.19 0-21.36 17.24-11.29 27.31l80 96a16 16 0 0 0 22.62 0l80-96C197.35 369.26 190.22 352 176 352zm112-128h128a16 16 0 0 0 16-16v-32a16 16 0 0 0-16-16h-56l61.26-70.45A32 32 0 0 0 432 65.63V48a16 16 0 0 0-16-16H288a16 16 0 0 0-16 16v32a16 16 0 0 0 16 16h56l-61.26 70.45A32 32 0 0 0 272 190.37V208a16 16 0 0 0 16 16zm159.06 234.62l-59.27-160A16 16 0 0 0 372.72 288h-41.44a16 16 0 0 0-15.07 10.62l-59.27 160A16 16 0 0 0 272 480h24.83a16 16 0 0 0 15.23-11.08l4.42-12.92h71l4.41 12.92A16 16 0 0 0 407.16 480H432a16 16 0 0 0 15.06-21.38zM335.61 400L352 352l16.39 48z"></path>
  </symbol>
  <symbol id="sort-alpha-up" viewBox="0 0 448 512">
    <path d="M16 160h48v304a16 16 0 0 0 16 16h32a16 16 0 0 0 16-16V160h48c14.21 0 21.38-17.24 11.31-27.31l-80-96a16 16 0 0 0-22.62 0l-80 96C-5.35 142.74 1.78 160 16 160zm400 128H288a16 16 0 0 0-16 16v32a16 16 0 0 0 16 16h56l-61.26 70.45A32 32 0 0 0 272 446.37V464a16 16 0 0 0 16 16h128a16 16 0 0 0 16-16v-32a16 16 0 0 0-16-16h-56l61.26-70.45A32 32 0 0 0 432 321.63V304a16 16 0 0 0-16-16zm31.06-85.38l-59.27-160A16 16 0 0 0 372.72 32h-41.44a16 16 0 0 0-15.07 10.62l-59.27 160A16 16 0 0 0 272 224h24.83a16 16 0 0 0 15.23-11.08l4.42-12.92h71l4.41 12.92A16 16 0 0 0 407.16 224H432a16 16 0 0 0 15.06-21.38zM335.61 144L352 96l16.39 48z"></path>
  </symbol>
  <symbol id="sort-alpha-up-alt" viewBox="0 0 448 512">
    <path d="M16 160h48v304a16 16 0 0 0 16 16h32a16 16 0 0 0 16-16V160h48c14.21 0 21.38-17.24 11.31-27.31l-80-96a16 16 0 0 0-22.62 0l-80 96C-5.35 142.74 1.78 160 16 160zm272 64h128a16 16 0 0 0 16-16v-32a16 16 0 0 0-16-16h-56l61.26-70.45A32 32 0 0 0 432 65.63V48a16 16 0 0 0-16-16H288a16 16 0 0 0-16 16v32a16 16 0 0 0 16 16h56l-61.26 70.45A32 32 0 0 0 272 190.37V208a16 16 0 0 0 16 16zm159.06 234.62l-59.27-160A16 16 0 0 0 372.72 288h-41.44a16 16 0 0 0-15.07 10.62l-59.27 160A16 16 0 0 0 272 480h24.83a16 16 0 0 0 15.23-11.08l4.42-12.92h71l4.41 12.92A16 16 0 0 0 407.16 480H432a16 16 0 0 0 15.06-21.38zM335.61 400L352 352l16.39 48z"></path>
  </symbol>
  <symbol id="sort-amount-down" viewBox="0 0 512 512">
    <path d="M304 416h-64a16 16 0 0 0-16 16v32a16 16 0 0 0 16 16h64a16 16 0 0 0 16-16v-32a16 16 0 0 0-16-16zm-128-64h-48V48a16 16 0 0 0-16-16H80a16 16 0 0 0-16 16v304H16c-14.19 0-21.37 17.24-11.29 27.31l80 96a16 16 0 0 0 22.62 0l80-96C197.35 369.26 190.22 352 176 352zm256-192H240a16 16 0 0 0-16 16v32a16 16 0 0 0 16 16h192a16 16 0 0 0 16-16v-32a16 16 0 0 0-16-16zm-64 128H240a16 16 0 0 0-16 16v32a16 16 0 0 0 16 16h128a16 16 0 0 0 16-16v-32a16 16 0 0 0-16-16zM496 32H240a16 16 0 0 0-16 16v32a16 16 0 0 0 16 16h256a16 16 0 0 0 16-16V48a16 16 0 0 0-16-16z"></path>
  </symbol>
  <symbol id="sort-amount-down-alt" viewBox="0 0 512 512">
    <path d="M240 96h64a16 16 0 0 0 16-16V48a16 16 0 0 0-16-16h-64a16 16 0 0 0-16 16v32a16 16 0 0 0 16 16zm0 128h128a16 16 0 0 0 16-16v-32a16 16 0 0 0-16-16H240a16 16 0 0 0-16 16v32a16 16 0 0 0 16 16zm256 192H240a16 16 0 0 0-16 16v32a16 16 0 0 0 16 16h256a16 16 0 0 0 16-16v-32a16 16 0 0 0-16-16zm-256-64h192a16 16 0 0 0 16-16v-32a16 16 0 0 0-16-16H240a16 16 0 0 0-16 16v32a16 16 0 0 0 16 16zm-64 0h-48V48a16 16 0 0 0-16-16H80a16 16 0 0 0-16 16v304H16c-14.19 0-21.37 17.24-11.29 27.31l80 96a16 16 0 0 0 22.62 0l80-96C197.35 369.26 190.22 352 176 352z"></path>
  </symbol>
  <symbol id="sort-amount-up" viewBox="0 0 512 512">
    <path d="M304 416h-64a16 16 0 0 0-16 16v32a16 16 0 0 0 16 16h64a16 16 0 0 0 16-16v-32a16 16 0 0 0-16-16zM16 160h48v304a16 16 0 0 0 16 16h32a16 16 0 0 0 16-16V160h48c14.21 0 21.38-17.24 11.31-27.31l-80-96a16 16 0 0 0-22.62 0l-80 96C-5.35 142.74 1.77 160 16 160zm416 0H240a16 16 0 0 0-16 16v32a16 16 0 0 0 16 16h192a16 16 0 0 0 16-16v-32a16 16 0 0 0-16-16zm-64 128H240a16 16 0 0 0-16 16v32a16 16 0 0 0 16 16h128a16 16 0 0 0 16-16v-32a16 16 0 0 0-16-16zM496 32H240a16 16 0 0 0-16 16v32a16 16 0 0 0 16 16h256a16 16 0 0 0 16-16V48a16 16 0 0 0-16-16z"></path>
  </symbol>
  <symbol id="sort-amount-up-alt" viewBox="0 0 512 512">
    <path d="M240 96h64a16 16 0 0 0 16-16V48a16 16 0 0 0-16-16h-64a16 16 0 0 0-16 16v32a16 16 0 0 0 16 16zm0 128h128a16 16 0 0 0 16-16v-32a16 16 0 0 0-16-16H240a16 16 0 0 0-16 16v32a16 16 0 0 0 16 16zm256 192H240a16 16 0 0 0-16 16v32a16 16 0 0 0 16 16h256a16 16 0 0 0 16-16v-32a16 16 0 0 0-16-16zm-256-64h192a16 16 0 0 0 16-16v-32a16 16 0 0 0-16-16H240a16 16 0 0 0-16 16v32a16 16 0 0 0 16 16zM16 160h48v304a16 16 0 0 0 16 16h32a16 16 0 0 0 16-16V160h48c14.21 0 21.39-17.24 11.31-27.31l-80-96a16 16 0 0 0-22.62 0l-80 96C-5.35 142.74 1.78 160 16 160z"></path>
  </symbol>
  <symbol id="sort-down" viewBox="0 0 320 512">
    <path d="M41 288h238c21.4 0 32.1 25.9 17 41L177 448c-9.4 9.4-24.6 9.4-33.9 0L24 329c-15.1-15.1-4.4-41 17-41z"></path>
  </symbol>
  <symbol id="sort-numeric-down" viewBox="0 0 448 512">
    <path d="M304 96h16v64h-16a16 16 0 0 0-16 16v32a16 16 0 0 0 16 16h96a16 16 0 0 0 16-16v-32a16 16 0 0 0-16-16h-16V48a16 16 0 0 0-16-16h-48a16 16 0 0 0-14.29 8.83l-16 32A16 16 0 0 0 304 96zm26.15 162.91a79 79 0 0 0-55 54.17c-14.25 51.05 21.21 97.77 68.85 102.53a84.07 84.07 0 0 1-20.85 12.91c-7.57 3.4-10.8 12.47-8.18 20.34l9.9 20c2.87 8.63 12.53 13.49 20.9 9.91 58-24.76 86.25-61.61 86.25-132V336c-.02-51.21-48.4-91.34-101.85-77.09zM352 356a20 20 0 1 1 20-20 20 20 0 0 1-20 20zm-176-4h-48V48a16 16 0 0 0-16-16H80a16 16 0 0 0-16 16v304H16c-14.19 0-21.36 17.24-11.29 27.31l80 96a16 16 0 0 0 22.62 0l80-96C197.35 369.26 190.22 352 176 352z"></path>
  </symbol>
  <symbol id="sort-numeric-down-alt" viewBox="0 0 448 512">
    <path d="M176 352h-48V48a16 16 0 0 0-16-16H80a16 16 0 0 0-16 16v304H16c-14.19 0-21.36 17.24-11.29 27.31l80 96a16 16 0 0 0 22.62 0l80-96C197.35 369.26 190.22 352 176 352zm224 64h-16V304a16 16 0 0 0-16-16h-48a16 16 0 0 0-14.29 8.83l-16 32A16 16 0 0 0 304 352h16v64h-16a16 16 0 0 0-16 16v32a16 16 0 0 0 16 16h96a16 16 0 0 0 16-16v-32a16 16 0 0 0-16-16zM330.17 34.91a79 79 0 0 0-55 54.17c-14.27 51.05 21.19 97.77 68.83 102.53a84.07 84.07 0 0 1-20.85 12.91c-7.57 3.4-10.8 12.47-8.18 20.34l9.9 20c2.87 8.63 12.53 13.49 20.9 9.91 58-24.77 86.25-61.61 86.25-132V112c-.02-51.21-48.4-91.34-101.85-77.09zM352 132a20 20 0 1 1 20-20 20 20 0 0 1-20 20z"></path>
  </symbol>
  <symbol id="sort-numeric-up" viewBox="0 0 448 512">
    <path d="M330.17 258.91a79 79 0 0 0-55 54.17c-14.27 51.05 21.19 97.77 68.83 102.53a84.07 84.07 0 0 1-20.85 12.91c-7.57 3.4-10.8 12.47-8.18 20.34l9.9 20c2.87 8.63 12.53 13.49 20.9 9.91 58-24.76 86.25-61.61 86.25-132V336c-.02-51.21-48.4-91.34-101.85-77.09zM352 356a20 20 0 1 1 20-20 20 20 0 0 1-20 20zM304 96h16v64h-16a16 16 0 0 0-16 16v32a16 16 0 0 0 16 16h96a16 16 0 0 0 16-16v-32a16 16 0 0 0-16-16h-16V48a16 16 0 0 0-16-16h-48a16 16 0 0 0-14.29 8.83l-16 32A16 16 0 0 0 304 96zM107.31 36.69a16 16 0 0 0-22.62 0l-80 96C-5.35 142.74 1.78 160 16 160h48v304a16 16 0 0 0 16 16h32a16 16 0 0 0 16-16V160h48c14.21 0 21.38-17.24 11.31-27.31z"></path>
  </symbol>
  <symbol id="sort-numeric-up-alt" viewBox="0 0 448 512">
    <path d="M107.31 36.69a16 16 0 0 0-22.62 0l-80 96C-5.35 142.74 1.78 160 16 160h48v304a16 16 0 0 0 16 16h32a16 16 0 0 0 16-16V160h48c14.21 0 21.38-17.24 11.31-27.31zM400 416h-16V304a16 16 0 0 0-16-16h-48a16 16 0 0 0-14.29 8.83l-16 32A16 16 0 0 0 304 352h16v64h-16a16 16 0 0 0-16 16v32a16 16 0 0 0 16 16h96a16 16 0 0 0 16-16v-32a16 16 0 0 0-16-16zM330.17 34.91a79 79 0 0 0-55 54.17c-14.27 51.05 21.19 97.77 68.83 102.53a84.07 84.07 0 0 1-20.85 12.91c-7.57 3.4-10.8 12.47-8.18 20.34l9.9 20c2.87 8.63 12.53 13.49 20.9 9.91 58-24.77 86.25-61.61 86.25-132V112c-.02-51.21-48.4-91.34-101.85-77.09zM352 132a20 20 0 1 1 20-20 20 20 0 0 1-20 20z"></path>
  </symbol>
  <symbol id="sort-up" viewBox="0 0 320 512">
    <path d="M279 224H41c-21.4 0-32.1-25.9-17-41L143 64c9.4-9.4 24.6-9.4 33.9 0l119 119c15.2 15.1 4.5 41-16.9 41z"></path>
  </symbol>
  <symbol id="spa" viewBox="0 0 576 512">
    <path d="M568.25 192c-29.04.13-135.01 6.16-213.84 83-33.12 29.63-53.36 63.3-66.41 94.86-13.05-31.56-33.29-65.23-66.41-94.86-78.83-76.84-184.8-82.87-213.84-83-4.41-.02-7.79 3.4-7.75 7.82.23 27.92 7.14 126.14 88.77 199.3C172.79 480.94 256 480 288 480s115.19.95 199.23-80.88c81.64-73.17 88.54-171.38 88.77-199.3.04-4.42-3.34-7.84-7.75-7.82zM287.98 302.6c12.82-18.85 27.6-35.78 44.09-50.52 19.09-18.61 39.58-33.3 60.26-45.18-16.44-70.5-51.72-133.05-96.73-172.22-4.11-3.58-11.02-3.58-15.14 0-44.99 39.14-80.27 101.63-96.74 172.07 20.37 11.7 40.5 26.14 59.22 44.39a282.768 282.768 0 0 1 45.04 51.46z"></path>
  </symbol>
  <symbol id="space-shuttle" viewBox="0 0 640 512">
    <path d="M592.604 208.244C559.735 192.836 515.777 184 472 184H186.327c-4.952-6.555-10.585-11.978-16.72-16H376C229.157 137.747 219.403 32 96.003 32H96v128H80V32c-26.51 0-48 28.654-48 64v64c-23.197 0-32 10.032-32 24v40c0 13.983 8.819 24 32 24v16c-23.197 0-32 10.032-32 24v40c0 13.983 8.819 24 32 24v64c0 35.346 21.49 64 48 64V352h16v128h.003c123.4 0 133.154-105.747 279.997-136H169.606c6.135-4.022 11.768-9.445 16.72-16H472c43.777 0 87.735-8.836 120.604-24.244C622.282 289.845 640 271.992 640 256s-17.718-33.845-47.396-47.756zM488 296a8 8 0 0 1-8-8v-64a8 8 0 0 1 8-8c31.909 0 31.942 80 0 80z"></path>
  </symbol>
  <symbol id="spell-check" viewBox="0 0 576 512">
    <path d="M272 256h91.36c43.2 0 82-32.2 84.51-75.34a79.82 79.82 0 0 0-25.26-63.07 79.81 79.81 0 0 0 9.06-44.91C427.9 30.57 389.3 0 347 0h-75a16 16 0 0 0-16 16v224a16 16 0 0 0 16 16zm40-200h40a24 24 0 0 1 0 48h-40zm0 96h56a24 24 0 0 1 0 48h-56zM155.12 22.25A32 32 0 0 0 124.64 0H99.36a32 32 0 0 0-30.48 22.25L.59 235.73A16 16 0 0 0 16 256h24.93a16 16 0 0 0 15.42-11.73L68.29 208h87.42l11.94 36.27A16 16 0 0 0 183.07 256H208a16 16 0 0 0 15.42-20.27zM89.37 144L112 75.3l22.63 68.7zm482 132.48l-45.21-45.3a15.88 15.88 0 0 0-22.59 0l-151.5 151.5-55.41-55.5a15.88 15.88 0 0 0-22.59 0l-45.3 45.3a16 16 0 0 0 0 22.59l112 112.21a15.89 15.89 0 0 0 22.6 0l208-208.21a16 16 0 0 0-.02-22.59z"></path>
  </symbol>
  <symbol id="spider" viewBox="0 0 576 512">
    <path d="M151.17 167.35L177.1 176h4.67l5.22-26.12c.72-3.58 1.8-7.58 3.21-11.79l-20.29-40.58 23.8-71.39c2.79-8.38-1.73-17.44-10.12-20.24L168.42.82c-8.38-2.8-17.45 1.73-20.24 10.12l-25.89 77.68a32.04 32.04 0 0 0 1.73 24.43l27.15 54.3zm422.14 182.03l-52.75-79.12a32.002 32.002 0 0 0-26.62-14.25H416l68.99-24.36a32.03 32.03 0 0 0 16.51-12.61l53.6-80.41c4.9-7.35 2.91-17.29-4.44-22.19l-13.31-8.88c-7.35-4.9-17.29-2.91-22.19 4.44l-50.56 75.83L404.1 208H368l-10.37-51.85C355.44 145.18 340.26 96 288 96c-52.26 0-67.44 49.18-69.63 60.15L208 208h-36.1l-60.49-20.17L60.84 112c-4.9-7.35-14.83-9.34-22.19-4.44l-13.31 8.88c-7.35 4.9-9.34 14.83-4.44 22.19l53.6 80.41a32.03 32.03 0 0 0 16.51 12.61L160 256H82.06a32.02 32.02 0 0 0-26.63 14.25L2.69 349.38c-4.9 7.35-2.92 17.29 4.44 22.19l13.31 8.88c7.35 4.9 17.29 2.91 22.19-4.44l48-72h47.06l-60.83 97.33A31.988 31.988 0 0 0 72 418.3V496c0 8.84 7.16 16 16 16h16c8.84 0 16-7.16 16-16v-73.11l74.08-118.53c-1.01 14.05-2.08 28.11-2.08 42.21C192 399.64 232.76 448 288 448s96-48.36 96-101.43c0-14.1-1.08-28.16-2.08-42.21L456 422.89V496c0 8.84 7.16 16 16 16h16c8.84 0 16-7.16 16-16v-77.71c0-6-1.69-11.88-4.86-16.96L438.31 304h47.06l48 72c4.9 7.35 14.84 9.34 22.19 4.44l13.31-8.88c7.36-4.9 9.34-14.83 4.44-22.18zM406.09 97.51l-20.29 40.58c1.41 4.21 2.49 8.21 3.21 11.79l5.22 26.12h4.67l25.93-8.65 27.15-54.3a31.995 31.995 0 0 0 1.73-24.43l-25.89-77.68C425.03 2.56 415.96-1.98 407.58.82l-15.17 5.06c-8.38 2.8-12.91 11.86-10.12 20.24l23.8 71.39z"></path>
  </symbol>
  <symbol id="spinner" viewBox="0 0 512 512">
    <path d="M304 48c0 26.51-21.49 48-48 48s-48-21.49-48-48 21.49-48 48-48 48 21.49 48 48zm-48 368c-26.51 0-48 21.49-48 48s21.49 48 48 48 48-21.49 48-48-21.49-48-48-48zm208-208c-26.51 0-48 21.49-48 48s21.49 48 48 48 48-21.49 48-48-21.49-48-48-48zM96 256c0-26.51-21.49-48-48-48S0 229.49 0 256s21.49 48 48 48 48-21.49 48-48zm12.922 99.078c-26.51 0-48 21.49-48 48s21.49 48 48 48 48-21.49 48-48c0-26.509-21.491-48-48-48zm294.156 0c-26.51 0-48 21.49-48 48s21.49 48 48 48 48-21.49 48-48c0-26.509-21.49-48-48-48zM108.922 60.922c-26.51 0-48 21.49-48 48s21.49 48 48 48 48-21.49 48-48-21.491-48-48-48z"></path>
  </symbol>
  <symbol id="splotch" viewBox="0 0 512 512">
    <path d="M472.29 195.89l-67.06-22.95c-19.28-6.6-33.54-20.92-38.14-38.3L351.1 74.19c-11.58-43.77-76.57-57.13-109.98-22.62l-46.14 47.67c-13.26 13.71-33.54 20.93-54.2 19.31l-71.88-5.62c-52.05-4.07-86.93 44.88-59.03 82.83l38.54 52.42c11.08 15.07 12.82 33.86 4.64 50.24L24.62 355.4c-20.59 41.25 22.84 84.87 73.49 73.81l69.96-15.28c20.11-4.39 41.45 0 57.07 11.73l54.32 40.83c39.32 29.56 101.04 7.57 104.45-37.22l4.7-61.86c1.35-17.79 12.8-33.86 30.63-42.99l62-31.74c44.88-22.96 39.59-80.17-8.95-96.79z"></path>
  </symbol>
  <symbol id="spray-can" viewBox="0 0 512 512">
    <path d="M224 32c0-17.67-14.33-32-32-32h-64c-17.67 0-32 14.33-32 32v96h128V32zm256 96c-17.67 0-32 14.33-32 32s14.33 32 32 32 32-14.33 32-32-14.33-32-32-32zm-256 32H96c-53.02 0-96 42.98-96 96v224c0 17.67 14.33 32 32 32h256c17.67 0 32-14.33 32-32V256c0-53.02-42.98-96-96-96zm-64 256c-44.18 0-80-35.82-80-80s35.82-80 80-80 80 35.82 80 80-35.82 80-80 80zM480 96c17.67 0 32-14.33 32-32s-14.33-32-32-32-32 14.33-32 32 14.33 32 32 32zm-96 32c-17.67 0-32 14.33-32 32s14.33 32 32 32 32-14.33 32-32-14.33-32-32-32zm-96-96c-17.67 0-32 14.33-32 32s14.33 32 32 32 32-14.33 32-32-14.33-32-32-32zm96 0c-17.67 0-32 14.33-32 32s14.33 32 32 32 32-14.33 32-32-14.33-32-32-32zm96 192c-17.67 0-32 14.33-32 32s14.33 32 32 32 32-14.33 32-32-14.33-32-32-32z"></path>
  </symbol>
  <symbol id="square" viewBox="0 0 448 512">
    <path d="M400 32H48C21.5 32 0 53.5 0 80v352c0 26.5 21.5 48 48 48h352c26.5 0 48-21.5 48-48V80c0-26.5-21.5-48-48-48z"></path>
  </symbol>
  <symbol id="square-full" viewBox="0 0 512 512">
    <path d="M512 512H0V0h512v512z"></path>
  </symbol>
  <symbol id="square-root-alt" viewBox="0 0 576 512">
    <path d="M571.31 251.31l-22.62-22.62c-6.25-6.25-16.38-6.25-22.63 0L480 274.75l-46.06-46.06c-6.25-6.25-16.38-6.25-22.63 0l-22.62 22.62c-6.25 6.25-6.25 16.38 0 22.63L434.75 320l-46.06 46.06c-6.25 6.25-6.25 16.38 0 22.63l22.62 22.62c6.25 6.25 16.38 6.25 22.63 0L480 365.25l46.06 46.06c6.25 6.25 16.38 6.25 22.63 0l22.62-22.62c6.25-6.25 6.25-16.38 0-22.63L525.25 320l46.06-46.06c6.25-6.25 6.25-16.38 0-22.63zM552 0H307.65c-14.54 0-27.26 9.8-30.95 23.87l-84.79 322.8-58.41-106.1A32.008 32.008 0 0 0 105.47 224H24c-13.25 0-24 10.74-24 24v48c0 13.25 10.75 24 24 24h43.62l88.88 163.73C168.99 503.5 186.3 512 204.94 512c17.27 0 44.44-9 54.28-41.48L357.03 96H552c13.25 0 24-10.75 24-24V24c0-13.26-10.75-24-24-24z"></path>
  </symbol>
  <symbol id="stamp" viewBox="0 0 512 512">
    <path d="M32 512h448v-64H32v64zm384-256h-66.56c-16.26 0-29.44-13.18-29.44-29.44v-9.46c0-27.37 8.88-53.41 21.46-77.72 9.11-17.61 12.9-38.39 9.05-60.42-6.77-38.78-38.47-70.7-77.26-77.45C212.62-9.04 160 37.33 160 96c0 14.16 3.12 27.54 8.69 39.58C182.02 164.43 192 194.7 192 226.49v.07c0 16.26-13.18 29.44-29.44 29.44H96c-53.02 0-96 42.98-96 96v32c0 17.67 14.33 32 32 32h448c17.67 0 32-14.33 32-32v-32c0-53.02-42.98-96-96-96z"></path>
  </symbol>
  <symbol id="star" viewBox="0 0 576 512">
    <path d="M259.3 17.8L194 150.2 47.9 171.5c-26.2 3.8-36.7 36.1-17.7 54.6l105.7 103-25 145.5c-4.5 26.3 23.2 46 46.4 33.7L288 439.6l130.7 68.7c23.2 12.2 50.9-7.4 46.4-33.7l-25-145.5 105.7-103c19-18.5 8.5-50.8-17.7-54.6L382 150.2 316.7 17.8c-11.7-23.6-45.6-23.9-57.4 0z"></path>
  </symbol>
  <symbol id="star-and-crescent" viewBox="0 0 512 512">
    <path d="M340.47 466.36c-1.45 0-6.89.46-9.18.46-116.25 0-210.82-94.57-210.82-210.82S215.04 45.18 331.29 45.18c2.32 0 7.7.46 9.18.46 7.13 0 13.33-5.03 14.75-12.07 1.46-7.25-2.55-14.49-9.47-17.09C316.58 5.54 286.39 0 256 0 114.84 0 0 114.84 0 256s114.84 256 256 256c30.23 0 60.28-5.49 89.32-16.32 5.96-2.02 10.28-7.64 10.28-14.26 0-8.09-6.39-15.06-15.13-15.06zm162.99-252.5l-76.38-11.1-34.16-69.21c-1.83-3.7-5.38-5.55-8.93-5.55s-7.1 1.85-8.93 5.55l-34.16 69.21-76.38 11.1c-8.17 1.18-11.43 11.22-5.52 16.99l55.27 53.87-13.05 76.07c-1.11 6.44 4.01 11.66 9.81 11.66 1.53 0 3.11-.36 4.64-1.17L384 335.37l68.31 35.91c1.53.8 3.11 1.17 4.64 1.17 5.8 0 10.92-5.23 9.81-11.66l-13.05-76.07 55.27-53.87c5.91-5.77 2.65-15.81-5.52-16.99z"></path>
  </symbol>
  <symbol id="star-half" viewBox="0 0 576 512">
    <path d="M288 0c-11.4 0-22.8 5.9-28.7 17.8L194 150.2 47.9 171.4c-26.2 3.8-36.7 36.1-17.7 54.6l105.7 103-25 145.5c-4.5 26.1 23 46 46.4 33.7L288 439.6V0z"></path>
  </symbol>
  <symbol id="star-half-alt" viewBox="0 0 536 512">
    <path d="M508.55 171.51L362.18 150.2 296.77 17.81C290.89 5.98 279.42 0 267.95 0c-11.4 0-22.79 5.9-28.69 17.81l-65.43 132.38-146.38 21.29c-26.25 3.8-36.77 36.09-17.74 54.59l105.89 103-25.06 145.48C86.98 495.33 103.57 512 122.15 512c4.93 0 10-1.17 14.87-3.75l130.95-68.68 130.94 68.7c4.86 2.55 9.92 3.71 14.83 3.71 18.6 0 35.22-16.61 31.66-37.4l-25.03-145.49 105.91-102.98c19.04-18.5 8.52-50.8-17.73-54.6zm-121.74 123.2l-18.12 17.62 4.28 24.88 19.52 113.45-102.13-53.59-22.38-11.74.03-317.19 51.03 103.29 11.18 22.63 25.01 3.64 114.23 16.63-82.65 80.38z"></path>
  </symbol>
  <symbol id="star-of-david" viewBox="0 0 464 512">
    <path d="M405.68 256l53.21-89.39C473.3 142.4 455.48 112 426.88 112H319.96l-55.95-93.98C256.86 6.01 244.43 0 232 0s-24.86 6.01-32.01 18.02L144.04 112H37.11c-28.6 0-46.42 30.4-32.01 54.61L58.32 256 5.1 345.39C-9.31 369.6 8.51 400 37.11 400h106.93l55.95 93.98C207.14 505.99 219.57 512 232 512s24.86-6.01 32.01-18.02L319.96 400h106.93c28.6 0 46.42-30.4 32.01-54.61L405.68 256zm-12.78-88l-19.8 33.26L353.3 168h39.6zm-52.39 88l-52.39 88H175.88l-52.39-88 52.38-88h112.25l52.39 88zM232 73.72L254.79 112h-45.57L232 73.72zM71.1 168h39.6l-19.8 33.26L71.1 168zm0 176l19.8-33.26L110.7 344H71.1zM232 438.28L209.21 400h45.57L232 438.28zM353.29 344l19.8-33.26L392.9 344h-39.61z"></path>
  </symbol>
  <symbol id="star-of-life" viewBox="0 0 480 512">
    <path d="M471.99 334.43L336.06 256l135.93-78.43c7.66-4.42 10.28-14.2 5.86-21.86l-32.02-55.43c-4.42-7.65-14.21-10.28-21.87-5.86l-135.93 78.43V16c0-8.84-7.17-16-16.01-16h-64.04c-8.84 0-16.01 7.16-16.01 16v156.86L56.04 94.43c-7.66-4.42-17.45-1.79-21.87 5.86L2.15 155.71c-4.42 7.65-1.8 17.44 5.86 21.86L143.94 256 8.01 334.43c-7.66 4.42-10.28 14.21-5.86 21.86l32.02 55.43c4.42 7.65 14.21 10.27 21.87 5.86l135.93-78.43V496c0 8.84 7.17 16 16.01 16h64.04c8.84 0 16.01-7.16 16.01-16V339.14l135.93 78.43c7.66 4.42 17.45 1.8 21.87-5.86l32.02-55.43c4.42-7.65 1.8-17.43-5.86-21.85z"></path>
  </symbol>
  <symbol id="step-backward" viewBox="0 0 448 512">
    <path d="M64 468V44c0-6.6 5.4-12 12-12h48c6.6 0 12 5.4 12 12v176.4l195.5-181C352.1 22.3 384 36.6 384 64v384c0 27.4-31.9 41.7-52.5 24.6L136 292.7V468c0 6.6-5.4 12-12 12H76c-6.6 0-12-5.4-12-12z"></path>
  </symbol>
  <symbol id="step-forward" viewBox="0 0 448 512">
    <path d="M384 44v424c0 6.6-5.4 12-12 12h-48c-6.6 0-12-5.4-12-12V291.6l-195.5 181C95.9 489.7 64 475.4 64 448V64c0-27.4 31.9-41.7 52.5-24.6L312 219.3V44c0-6.6 5.4-12 12-12h48c6.6 0 12 5.4 12 12z"></path>
  </symbol>
  <symbol id="stethoscope" viewBox="0 0 512 512">
    <path d="M447.1 112c-34.2.5-62.3 28.4-63 62.6-.5 24.3 12.5 45.6 32 56.8V344c0 57.3-50.2 104-112 104-60 0-109.2-44.1-111.9-99.2C265 333.8 320 269.2 320 192V36.6c0-11.4-8.1-21.3-19.3-23.5L237.8.5c-13-2.6-25.6 5.8-28.2 18.8L206.4 35c-2.6 13 5.8 25.6 18.8 28.2l30.7 6.1v121.4c0 52.9-42.2 96.7-95.1 97.2-53.4.5-96.9-42.7-96.9-96V69.4l30.7-6.1c13-2.6 21.4-15.2 18.8-28.2l-3.1-15.7C107.7 6.4 95.1-2 82.1.6L19.3 13C8.1 15.3 0 25.1 0 36.6V192c0 77.3 55.1 142 128.1 156.8C130.7 439.2 208.6 512 304 512c97 0 176-75.4 176-168V231.4c19.1-11.1 32-31.7 32-55.4 0-35.7-29.2-64.5-64.9-64zm.9 80c-8.8 0-16-7.2-16-16s7.2-16 16-16 16 7.2 16 16-7.2 16-16 16z"></path>
  </symbol>
  <symbol id="sticky-note" viewBox="0 0 448 512">
    <path d="M312 320h136V56c0-13.3-10.7-24-24-24H24C10.7 32 0 42.7 0 56v400c0 13.3 10.7 24 24 24h264V344c0-13.2 10.8-24 24-24zm129 55l-98 98c-4.5 4.5-10.6 7-17 7h-6V352h128v6.1c0 6.3-2.5 12.4-7 16.9z"></path>
  </symbol>
  <symbol id="stop" viewBox="0 0 448 512">
    <path d="M400 32H48C21.5 32 0 53.5 0 80v352c0 26.5 21.5 48 48 48h352c26.5 0 48-21.5 48-48V80c0-26.5-21.5-48-48-48z"></path>
  </symbol>
  <symbol id="stop-circle" viewBox="0 0 512 512">
    <path d="M256 8C119 8 8 119 8 256s111 248 248 248 248-111 248-248S393 8 256 8zm96 328c0 8.8-7.2 16-16 16H176c-8.8 0-16-7.2-16-16V176c0-8.8 7.2-16 16-16h160c8.8 0 16 7.2 16 16v160z"></path>
  </symbol>
  <symbol id="stopwatch" viewBox="0 0 448 512">
    <path d="M432 304c0 114.9-93.1 208-208 208S16 418.9 16 304c0-104 76.3-190.2 176-205.5V64h-28c-6.6 0-12-5.4-12-12V12c0-6.6 5.4-12 12-12h120c6.6 0 12 5.4 12 12v40c0 6.6-5.4 12-12 12h-28v34.5c37.5 5.8 71.7 21.6 99.7 44.6l27.5-27.5c4.7-4.7 12.3-4.7 17 0l28.3 28.3c4.7 4.7 4.7 12.3 0 17l-29.4 29.4-.6.6C419.7 223.3 432 262.2 432 304zm-176 36V188.5c0-6.6-5.4-12-12-12h-40c-6.6 0-12 5.4-12 12V340c0 6.6 5.4 12 12 12h40c6.6 0 12-5.4 12-12z"></path>
  </symbol>
  <symbol id="store" viewBox="0 0 616 512">
    <path d="M602 118.6L537.1 15C531.3 5.7 521 0 510 0H106C95 0 84.7 5.7 78.9 15L14 118.6c-33.5 53.5-3.8 127.9 58.8 136.4 4.5.6 9.1.9 13.7.9 29.6 0 55.8-13 73.8-33.1 18 20.1 44.3 33.1 73.8 33.1 29.6 0 55.8-13 73.8-33.1 18 20.1 44.3 33.1 73.8 33.1 29.6 0 55.8-13 73.8-33.1 18.1 20.1 44.3 33.1 73.8 33.1 4.7 0 9.2-.3 13.7-.9 62.8-8.4 92.6-82.8 59-136.4zM529.5 288c-10 0-19.9-1.5-29.5-3.8V384H116v-99.8c-9.6 2.2-19.5 3.8-29.5 3.8-6 0-12.1-.4-18-1.2-5.6-.8-11.1-2.1-16.4-3.6V480c0 17.7 14.3 32 32 32h448c17.7 0 32-14.3 32-32V283.2c-5.4 1.6-10.8 2.9-16.4 3.6-6.1.8-12.1 1.2-18.2 1.2z"></path>
  </symbol>
  <symbol id="store-alt" viewBox="0 0 640 512">
    <path d="M320 384H128V224H64v256c0 17.7 14.3 32 32 32h256c17.7 0 32-14.3 32-32V224h-64v160zm314.6-241.8l-85.3-128c-6-8.9-16-14.2-26.7-14.2H117.4c-10.7 0-20.7 5.3-26.6 14.2l-85.3 128c-14.2 21.3 1 49.8 26.6 49.8H608c25.5 0 40.7-28.5 26.6-49.8zM512 496c0 8.8 7.2 16 16 16h32c8.8 0 16-7.2 16-16V224h-64v272z"></path>
  </symbol>
  <symbol id="stream" viewBox="0 0 512 512">
    <path d="M16 128h416c8.84 0 16-7.16 16-16V48c0-8.84-7.16-16-16-16H16C7.16 32 0 39.16 0 48v64c0 8.84 7.16 16 16 16zm480 80H80c-8.84 0-16 7.16-16 16v64c0 8.84 7.16 16 16 16h416c8.84 0 16-7.16 16-16v-64c0-8.84-7.16-16-16-16zm-64 176H16c-8.84 0-16 7.16-16 16v64c0 8.84 7.16 16 16 16h416c8.84 0 16-7.16 16-16v-64c0-8.84-7.16-16-16-16z"></path>
  </symbol>
  <symbol id="street-view" viewBox="0 0 512 512">
    <path d="M367.9 329.76c-4.62 5.3-9.78 10.1-15.9 13.65v22.94c66.52 9.34 112 28.05 112 49.65 0 30.93-93.12 56-208 56S48 446.93 48 416c0-21.6 45.48-40.3 112-49.65v-22.94c-6.12-3.55-11.28-8.35-15.9-13.65C58.87 345.34 0 378.05 0 416c0 53.02 114.62 96 256 96s256-42.98 256-96c0-37.95-58.87-70.66-144.1-86.24zM256 128c35.35 0 64-28.65 64-64S291.35 0 256 0s-64 28.65-64 64 28.65 64 64 64zm-64 192v96c0 17.67 14.33 32 32 32h64c17.67 0 32-14.33 32-32v-96c17.67 0 32-14.33 32-32v-96c0-26.51-21.49-48-48-48h-11.8c-11.07 5.03-23.26 8-36.2 8s-25.13-2.97-36.2-8H208c-26.51 0-48 21.49-48 48v96c0 17.67 14.33 32 32 32z"></path>
  </symbol>
  <symbol id="strikethrough" viewBox="0 0 512 512">
    <path d="M496 224H293.9l-87.17-26.83A43.55 43.55 0 0 1 219.55 112h66.79A49.89 49.89 0 0 1 331 139.58a16 16 0 0 0 21.46 7.15l42.94-21.47a16 16 0 0 0 7.16-21.46l-.53-1A128 128 0 0 0 287.51 32h-68a123.68 123.68 0 0 0-123 135.64c2 20.89 10.1 39.83 21.78 56.36H16a16 16 0 0 0-16 16v32a16 16 0 0 0 16 16h480a16 16 0 0 0 16-16v-32a16 16 0 0 0-16-16zm-180.24 96A43 43 0 0 1 336 356.45 43.59 43.59 0 0 1 292.45 400h-66.79A49.89 49.89 0 0 1 181 372.42a16 16 0 0 0-21.46-7.15l-42.94 21.47a16 16 0 0 0-7.16 21.46l.53 1A128 128 0 0 0 224.49 480h68a123.68 123.68 0 0 0 123-135.64 114.25 114.25 0 0 0-5.34-24.36z"></path>
  </symbol>
  <symbol id="stroopwafel" viewBox="0 0 512 512">
    <path d="M188.12 210.74L142.86 256l45.25 45.25L233.37 256l-45.25-45.26zm113.13-22.62L256 142.86l-45.25 45.25L256 233.37l45.25-45.25zm-90.5 135.76L256 369.14l45.26-45.26L256 278.63l-45.25 45.25zM256 0C114.62 0 0 114.62 0 256s114.62 256 256 256 256-114.62 256-256S397.38 0 256 0zm186.68 295.6l-11.31 11.31c-3.12 3.12-8.19 3.12-11.31 0l-28.29-28.29-45.25 45.25 33.94 33.94 16.97-16.97c3.12-3.12 8.19-3.12 11.31 0l11.31 11.31c3.12 3.12 3.12 8.19 0 11.31l-16.97 16.97 16.97 16.97c3.12 3.12 3.12 8.19 0 11.31l-11.31 11.31c-3.12 3.12-8.19 3.12-11.31 0l-16.97-16.97-16.97 16.97c-3.12 3.12-8.19 3.12-11.31 0l-11.31-11.31c-3.12-3.12-3.12-8.19 0-11.31l16.97-16.97-33.94-33.94-45.26 45.26 28.29 28.29c3.12 3.12 3.12 8.19 0 11.31l-11.31 11.31c-3.12 3.12-8.19 3.12-11.31 0L256 414.39l-28.29 28.29c-3.12 3.12-8.19 3.12-11.31 0l-11.31-11.31c-3.12-3.12-3.12-8.19 0-11.31l28.29-28.29-45.25-45.26-33.94 33.94 16.97 16.97c3.12 3.12 3.12 8.19 0 11.31l-11.31 11.31c-3.12 3.12-8.19 3.12-11.31 0l-16.97-16.97-16.97 16.97c-3.12 3.12-8.19 3.12-11.31 0l-11.31-11.31c-3.12-3.12-3.12-8.19 0-11.31l16.97-16.97-16.97-16.97c-3.12-3.12-3.12-8.19 0-11.31l11.31-11.31c3.12-3.12 8.19-3.12 11.31 0l16.97 16.97 33.94-33.94-45.25-45.25-28.29 28.29c-3.12 3.12-8.19 3.12-11.31 0L69.32 295.6c-3.12-3.12-3.12-8.19 0-11.31L97.61 256l-28.29-28.29c-3.12-3.12-3.12-8.19 0-11.31l11.31-11.31c3.12-3.12 8.19-3.12 11.31 0l28.29 28.29 45.25-45.26-33.94-33.94-16.97 16.97c-3.12 3.12-8.19 3.12-11.31 0l-11.31-11.31c-3.12-3.12-3.12-8.19 0-11.31l16.97-16.97-16.97-16.97c-3.12-3.12-3.12-8.19 0-11.31l11.31-11.31c3.12-3.12 8.19-3.12 11.31 0l16.97 16.97 16.97-16.97c3.12-3.12 8.19-3.12 11.31 0l11.31 11.31c3.12 3.12 3.12 8.19 0 11.31l-16.97 16.97 33.94 33.94 45.26-45.25-28.29-28.29c-3.12-3.12-3.12-8.19 0-11.31l11.31-11.31c3.12-3.12 8.19-3.12 11.31 0L256 97.61l28.29-28.29c3.12-3.12 8.19-3.12 11.31 0l11.31 11.31c3.12 3.12 3.12 8.19 0 11.31l-28.29 28.29 45.26 45.25 33.94-33.94-16.97-16.97c-3.12-3.12-3.12-8.19 0-11.31l11.31-11.31c3.12-3.12 8.19-3.12 11.31 0l16.97 16.97 16.97-16.97c3.12-3.12 8.19-3.12 11.31 0l11.31 11.31c3.12 3.12 3.12 8.19 0 11.31l-16.97 16.97 16.97 16.97c3.12 3.12 3.12 8.19 0 11.31l-11.31 11.31c-3.12 3.12-8.19 3.12-11.31 0l-16.97-16.97-33.94 33.94 45.25 45.26 28.29-28.29c3.12-3.12 8.19-3.12 11.31 0l11.31 11.31c3.12 3.12 3.12 8.19 0 11.31L414.39 256l28.29 28.28a8.015 8.015 0 0 1 0 11.32zM278.63 256l45.26 45.25L369.14 256l-45.25-45.26L278.63 256z"></path>
  </symbol>
  <symbol id="subscript" viewBox="0 0 512 512">
    <path d="M496 448h-16V304a16 16 0 0 0-16-16h-48a16 16 0 0 0-14.29 8.83l-16 32A16 16 0 0 0 400 352h16v96h-16a16 16 0 0 0-16 16v32a16 16 0 0 0 16 16h96a16 16 0 0 0 16-16v-32a16 16 0 0 0-16-16zM336 64h-67a16 16 0 0 0-13.14 6.87l-79.9 115-79.9-115A16 16 0 0 0 83 64H16A16 16 0 0 0 0 80v48a16 16 0 0 0 16 16h33.48l77.81 112-77.81 112H16a16 16 0 0 0-16 16v48a16 16 0 0 0 16 16h67a16 16 0 0 0 13.14-6.87l79.9-115 79.9 115A16 16 0 0 0 269 448h67a16 16 0 0 0 16-16v-48a16 16 0 0 0-16-16h-33.48l-77.81-112 77.81-112H336a16 16 0 0 0 16-16V80a16 16 0 0 0-16-16z"></path>
  </symbol>
  <symbol id="subway" viewBox="0 0 448 512">
    <path d="M448 96v256c0 51.815-61.624 96-130.022 96l62.98 49.721C386.905 502.417 383.562 512 376 512H72c-7.578 0-10.892-9.594-4.957-14.279L130.022 448C61.82 448 0 403.954 0 352V96C0 42.981 64 0 128 0h192c65 0 128 42.981 128 96zM200 232V120c0-13.255-10.745-24-24-24H72c-13.255 0-24 10.745-24 24v112c0 13.255 10.745 24 24 24h104c13.255 0 24-10.745 24-24zm200 0V120c0-13.255-10.745-24-24-24H272c-13.255 0-24 10.745-24 24v112c0 13.255 10.745 24 24 24h104c13.255 0 24-10.745 24-24zm-48 56c-26.51 0-48 21.49-48 48s21.49 48 48 48 48-21.49 48-48-21.49-48-48-48zm-256 0c-26.51 0-48 21.49-48 48s21.49 48 48 48 48-21.49 48-48-21.49-48-48-48z"></path>
  </symbol>
  <symbol id="suitcase" viewBox="0 0 512 512">
    <path d="M128 480h256V80c0-26.5-21.5-48-48-48H176c-26.5 0-48 21.5-48 48v400zm64-384h128v32H192V96zm320 80v256c0 26.5-21.5 48-48 48h-48V128h48c26.5 0 48 21.5 48 48zM96 480H48c-26.5 0-48-21.5-48-48V176c0-26.5 21.5-48 48-48h48v352z"></path>
  </symbol>
  <symbol id="suitcase-rolling" viewBox="0 0 384 512">
    <path d="M336 160H48c-26.51 0-48 21.49-48 48v224c0 26.51 21.49 48 48 48h16v16c0 8.84 7.16 16 16 16h32c8.84 0 16-7.16 16-16v-16h128v16c0 8.84 7.16 16 16 16h32c8.84 0 16-7.16 16-16v-16h16c26.51 0 48-21.49 48-48V208c0-26.51-21.49-48-48-48zm-16 216c0 4.42-3.58 8-8 8H72c-4.42 0-8-3.58-8-8v-16c0-4.42 3.58-8 8-8h240c4.42 0 8 3.58 8 8v16zm0-96c0 4.42-3.58 8-8 8H72c-4.42 0-8-3.58-8-8v-16c0-4.42 3.58-8 8-8h240c4.42 0 8 3.58 8 8v16zM144 48h96v80h48V48c0-26.51-21.49-48-48-48h-96c-26.51 0-48 21.49-48 48v80h48V48z"></path>
  </symbol>
  <symbol id="sun" viewBox="0 0 512 512">
    <path d="M256 160c-52.9 0-96 43.1-96 96s43.1 96 96 96 96-43.1 96-96-43.1-96-96-96zm246.4 80.5l-94.7-47.3 33.5-100.4c4.5-13.6-8.4-26.5-21.9-21.9l-100.4 33.5-47.4-94.8c-6.4-12.8-24.6-12.8-31 0l-47.3 94.7L92.7 70.8c-13.6-4.5-26.5 8.4-21.9 21.9l33.5 100.4-94.7 47.4c-12.8 6.4-12.8 24.6 0 31l94.7 47.3-33.5 100.5c-4.5 13.6 8.4 26.5 21.9 21.9l100.4-33.5 47.3 94.7c6.4 12.8 24.6 12.8 31 0l47.3-94.7 100.4 33.5c13.6 4.5 26.5-8.4 21.9-21.9l-33.5-100.4 94.7-47.3c13-6.5 13-24.7.2-31.1zm-155.9 106c-49.9 49.9-131.1 49.9-181 0-49.9-49.9-49.9-131.1 0-181 49.9-49.9 131.1-49.9 181 0 49.9 49.9 49.9 131.1 0 181z"></path>
  </symbol>
  <symbol id="superscript" viewBox="0 0 512 512">
    <path d="M496 160h-16V16a16 16 0 0 0-16-16h-48a16 16 0 0 0-14.29 8.83l-16 32A16 16 0 0 0 400 64h16v96h-16a16 16 0 0 0-16 16v32a16 16 0 0 0 16 16h96a16 16 0 0 0 16-16v-32a16 16 0 0 0-16-16zM336 64h-67a16 16 0 0 0-13.14 6.87l-79.9 115-79.9-115A16 16 0 0 0 83 64H16A16 16 0 0 0 0 80v48a16 16 0 0 0 16 16h33.48l77.81 112-77.81 112H16a16 16 0 0 0-16 16v48a16 16 0 0 0 16 16h67a16 16 0 0 0 13.14-6.87l79.9-115 79.9 115A16 16 0 0 0 269 448h67a16 16 0 0 0 16-16v-48a16 16 0 0 0-16-16h-33.48l-77.81-112 77.81-112H336a16 16 0 0 0 16-16V80a16 16 0 0 0-16-16z"></path>
  </symbol>
  <symbol id="surprise" viewBox="0 0 496 512">
    <path d="M248 8C111 8 0 119 0 256s111 248 248 248 248-111 248-248S385 8 248 8zM136 208c0-17.7 14.3-32 32-32s32 14.3 32 32-14.3 32-32 32-32-14.3-32-32zm112 208c-35.3 0-64-28.7-64-64s28.7-64 64-64 64 28.7 64 64-28.7 64-64 64zm80-176c-17.7 0-32-14.3-32-32s14.3-32 32-32 32 14.3 32 32-14.3 32-32 32z"></path>
  </symbol>
  <symbol id="swatchbook" viewBox="0 0 511 512">
    <path d="M479.06 320H372.29L186.15 506.51c-2.06 2.07-4.49 3.58-6.67 5.49h299.58c17.64 0 31.94-14.33 31.94-32V352c0-17.67-14.3-32-31.94-32zm-44.5-152.9l-90.33-90.51c-12.47-12.5-32.69-12.5-45.17 0l-75.5 75.65V416c0 2.96-.67 5.73-.87 8.64l211.87-212.28c12.47-12.5 12.47-32.77 0-45.26zM191.62 32c0-17.67-14.3-32-31.94-32H31.94C14.3 0 0 14.33 0 32v384c0 53.02 42.9 96 95.81 96s95.81-42.98 95.81-96V32zM95.81 440c-13.23 0-23.95-10.75-23.95-24 0-13.26 10.73-24 23.95-24s23.95 10.74 23.95 24c.01 13.25-10.72 24-23.95 24zm31.94-184H63.88v-64h63.88v64zm0-128H63.88V64h63.88v64z"></path>
  </symbol>
  <symbol id="swimmer" viewBox="0 0 640 512">
    <path d="M189.61 310.58c3.54 3.26 15.27 9.42 34.39 9.42s30.86-6.16 34.39-9.42c16.02-14.77 34.5-22.58 53.46-22.58h16.3c18.96 0 37.45 7.81 53.46 22.58 3.54 3.26 15.27 9.42 34.39 9.42s30.86-6.16 34.39-9.42c14.86-13.71 31.88-21.12 49.39-22.16l-112.84-80.6 18-12.86c3.64-2.58 8.28-3.52 12.62-2.61l100.35 21.53c25.91 5.53 51.44-10.97 57-36.88 5.55-25.92-10.95-51.44-36.88-57L437.68 98.47c-30.73-6.58-63.02.12-88.56 18.38l-80.02 57.17c-10.38 7.39-19.36 16.44-26.72 26.94L173.75 299c5.47 3.23 10.82 6.93 15.86 11.58zM624 352h-16c-26.04 0-45.8-8.42-56.09-17.9-8.9-8.21-19.66-14.1-31.77-14.1h-16.3c-12.11 0-22.87 5.89-31.77 14.1C461.8 343.58 442.04 352 416 352s-45.8-8.42-56.09-17.9c-8.9-8.21-19.66-14.1-31.77-14.1h-16.3c-12.11 0-22.87 5.89-31.77 14.1C269.8 343.58 250.04 352 224 352s-45.8-8.42-56.09-17.9c-8.9-8.21-19.66-14.1-31.77-14.1h-16.3c-12.11 0-22.87 5.89-31.77 14.1C77.8 343.58 58.04 352 32 352H16c-8.84 0-16 7.16-16 16v32c0 8.84 7.16 16 16 16h16c38.62 0 72.72-12.19 96-31.84 23.28 19.66 57.38 31.84 96 31.84s72.72-12.19 96-31.84c23.28 19.66 57.38 31.84 96 31.84s72.72-12.19 96-31.84c23.28 19.66 57.38 31.84 96 31.84h16c8.84 0 16-7.16 16-16v-32c0-8.84-7.16-16-16-16zm-512-96c44.18 0 80-35.82 80-80s-35.82-80-80-80-80 35.82-80 80 35.82 80 80 80z"></path>
  </symbol>
  <symbol id="swimming-pool" viewBox="0 0 640 512">
    <path d="M624 416h-16c-26.04 0-45.8-8.42-56.09-17.9-8.9-8.21-19.66-14.1-31.77-14.1h-16.3c-12.11 0-22.87 5.89-31.77 14.1C461.8 407.58 442.04 416 416 416s-45.8-8.42-56.09-17.9c-8.9-8.21-19.66-14.1-31.77-14.1h-16.3c-12.11 0-22.87 5.89-31.77 14.1C269.8 407.58 250.04 416 224 416s-45.8-8.42-56.09-17.9c-8.9-8.21-19.66-14.1-31.77-14.1h-16.3c-12.11 0-22.87 5.89-31.77 14.1C77.8 407.58 58.04 416 32 416H16c-8.84 0-16 7.16-16 16v32c0 8.84 7.16 16 16 16h16c38.62 0 72.72-12.19 96-31.84 23.28 19.66 57.38 31.84 96 31.84s72.72-12.19 96-31.84c23.28 19.66 57.38 31.84 96 31.84s72.72-12.19 96-31.84c23.28 19.66 57.38 31.84 96 31.84h16c8.84 0 16-7.16 16-16v-32c0-8.84-7.16-16-16-16zm-400-32v-96h192v96c19.12 0 30.86-6.16 34.39-9.42 9.17-8.46 19.2-14.34 29.61-18.07V128c0-17.64 14.36-32 32-32s32 14.36 32 32v16c0 8.84 7.16 16 16 16h32c8.84 0 16-7.16 16-16v-16c0-52.94-43.06-96-96-96s-96 43.06-96 96v96H224v-96c0-17.64 14.36-32 32-32s32 14.36 32 32v16c0 8.84 7.16 16 16 16h32c8.84 0 16-7.16 16-16v-16c0-52.94-43.06-96-96-96s-96 43.06-96 96v228.5c10.41 3.73 20.44 9.62 29.61 18.07 3.53 3.27 15.27 9.43 34.39 9.43z"></path>
  </symbol>
  <symbol id="synagogue" viewBox="0 0 640 512">
    <path d="M70 196.51L6.67 268.29A26.643 26.643 0 0 0 0 285.93V512h128V239.58l-38-43.07c-5.31-6.01-14.69-6.01-20 0zm563.33 71.78L570 196.51c-5.31-6.02-14.69-6.02-20 0l-38 43.07V512h128V285.93c0-6.5-2.37-12.77-6.67-17.64zM339.99 7.01c-11.69-9.35-28.29-9.35-39.98 0l-128 102.4A32.005 32.005 0 0 0 160 134.4V512h96v-92.57c0-31.88 21.78-61.43 53.25-66.55C349.34 346.35 384 377.13 384 416v96h96V134.4c0-9.72-4.42-18.92-12.01-24.99l-128-102.4zm52.07 215.55c1.98 3.15-.29 7.24-4 7.24h-38.94L324 269.79c-1.85 2.95-6.15 2.95-8 0l-25.12-39.98h-38.94c-3.72 0-5.98-4.09-4-7.24l19.2-30.56-19.2-30.56c-1.98-3.15.29-7.24 4-7.24h38.94l25.12-40c1.85-2.95 6.15-2.95 8 0l25.12 39.98h38.95c3.71 0 5.98 4.09 4 7.24L372.87 192l19.19 30.56z"></path>
  </symbol>
  <symbol id="sync" viewBox="0 0 512 512">
    <path d="M440.65 12.57l4 82.77A247.16 247.16 0 0 0 255.83 8C134.73 8 33.91 94.92 12.29 209.82A12 12 0 0 0 24.09 224h49.05a12 12 0 0 0 11.67-9.26 175.91 175.91 0 0 1 317-56.94l-101.46-4.86a12 12 0 0 0-12.57 12v47.41a12 12 0 0 0 12 12H500a12 12 0 0 0 12-12V12a12 12 0 0 0-12-12h-47.37a12 12 0 0 0-11.98 12.57zM255.83 432a175.61 175.61 0 0 1-146-77.8l101.8 4.87a12 12 0 0 0 12.57-12v-47.4a12 12 0 0 0-12-12H12a12 12 0 0 0-12 12V500a12 12 0 0 0 12 12h47.35a12 12 0 0 0 12-12.6l-4.15-82.57A247.17 247.17 0 0 0 255.83 504c121.11 0 221.93-86.92 243.55-201.82a12 12 0 0 0-11.8-14.18h-49.05a12 12 0 0 0-11.67 9.26A175.86 175.86 0 0 1 255.83 432z"></path>
  </symbol>
  <symbol id="sync-alt" viewBox="0 0 512 512">
    <path d="M370.72 133.28C339.458 104.008 298.888 87.962 255.848 88c-77.458.068-144.328 53.178-162.791 126.85-1.344 5.363-6.122 9.15-11.651 9.15H24.103c-7.498 0-13.194-6.807-11.807-14.176C33.933 94.924 134.813 8 256 8c66.448 0 126.791 26.136 171.315 68.685L463.03 40.97C478.149 25.851 504 36.559 504 57.941V192c0 13.255-10.745 24-24 24H345.941c-21.382 0-32.09-25.851-16.971-40.971l41.75-41.749zM32 296h134.059c21.382 0 32.09 25.851 16.971 40.971l-41.75 41.75c31.262 29.273 71.835 45.319 114.876 45.28 77.418-.07 144.315-53.144 162.787-126.849 1.344-5.363 6.122-9.15 11.651-9.15h57.304c7.498 0 13.194 6.807 11.807 14.176C478.067 417.076 377.187 504 256 504c-66.448 0-126.791-26.136-171.315-68.685L48.97 471.03C33.851 486.149 8 475.441 8 454.059V320c0-13.255 10.745-24 24-24z"></path>
  </symbol>
  <symbol id="syringe" viewBox="0 0 512 512">
    <path d="M201.5 174.8l55.7 55.8c3.1 3.1 3.1 8.2 0 11.3l-11.3 11.3c-3.1 3.1-8.2 3.1-11.3 0l-55.7-55.8-45.3 45.3 55.8 55.8c3.1 3.1 3.1 8.2 0 11.3l-11.3 11.3c-3.1 3.1-8.2 3.1-11.3 0L111 265.2l-26.4 26.4c-17.3 17.3-25.6 41.1-23 65.4l7.1 63.6L2.3 487c-3.1 3.1-3.1 8.2 0 11.3l11.3 11.3c3.1 3.1 8.2 3.1 11.3 0l66.3-66.3 63.6 7.1c23.9 2.6 47.9-5.4 65.4-23l181.9-181.9-135.7-135.7-64.9 65zm308.2-93.3L430.5 2.3c-3.1-3.1-8.2-3.1-11.3 0l-11.3 11.3c-3.1 3.1-3.1 8.2 0 11.3l28.3 28.3-45.3 45.3-56.6-56.6-17-17c-3.1-3.1-8.2-3.1-11.3 0l-33.9 33.9c-3.1 3.1-3.1 8.2 0 11.3l17 17L424.8 223l17 17c3.1 3.1 8.2 3.1 11.3 0l33.9-34c3.1-3.1 3.1-8.2 0-11.3l-73.5-73.5 45.3-45.3 28.3 28.3c3.1 3.1 8.2 3.1 11.3 0l11.3-11.3c3.1-3.2 3.1-8.2 0-11.4z"></path>
  </symbol>
</svg>