<?xml version="1.0" encoding="UTF-8"?>
<!--
Font Awesome Free 5.9.0 by @fontawesome - https://fontawesome.com
License - https://fontawesome.com/license/free (Icons: CC BY 4.0, Fonts: SIL OFL 1.1, Code: MIT License)
-->
<svg xmlns="http://www.w3.org/2000/svg" style="display: none;">
  <symbol id="i-cursor" viewBox="0 0 256 512">
    <path d="M256 52.048V12.065C256 5.496 250.726.148 244.158.066 211.621-.344 166.469.011 128 37.959 90.266.736 46.979-.114 11.913.114 5.318.157 0 5.519 0 12.114v39.645c0 6.687 5.458 12.078 12.145 11.998C38.111 63.447 96 67.243 96 112.182V224H60c-6.627 0-12 5.373-12 12v40c0 6.627 5.373 12 12 12h36v112c0 44.932-56.075 48.031-83.95 47.959C5.404 447.942 0 453.306 0 459.952v39.983c0 6.569 5.274 11.917 11.842 11.999 32.537.409 77.689.054 116.158-37.894 37.734 37.223 81.021 38.073 116.087 37.845 6.595-.043 11.913-5.405 11.913-12V460.24c0-6.687-5.458-12.078-12.145-11.998C217.889 448.553 160 444.939 160 400V288h36c6.627 0 12-5.373 12-12v-40c0-6.627-5.373-12-12-12h-36V112.182c0-44.932 56.075-48.213 83.95-48.142 6.646.018 12.05-5.346 12.05-11.992z"></path>
  </symbol>
  <symbol id="ice-cream" viewBox="0 0 448 512">
    <path d="M368 160h-.94a144 144 0 1 0-286.12 0H80a48 48 0 0 0 0 96h288a48 48 0 0 0 0-96zM195.38 493.69a31.52 31.52 0 0 0 57.24 0L352 288H96z"></path>
  </symbol>
  <symbol id="icicles" viewBox="0 0 512 512">
    <path d="M511.4 37.9C515.1 18.2 500 0 480 0H32C10.6 0-4.8 20.7 1.4 41.2l87.1 273.4c2.5 7.2 12.7 7.2 15.1 0L140 190.5l44.2 187.3c1.9 8.3 13.7 8.3 15.6 0l46.5-196.9 34.1 133.4c2.3 7.6 13 7.6 15.3 0l45.8-172.5 66.7 363.8c1.7 8.6 14 8.6 15.7 0l87.5-467.7z"></path>
  </symbol>
  <symbol id="icons" viewBox="0 0 512 512">
    <path d="M116.65 219.35a15.68 15.68 0 0 0 22.65 0l96.75-99.83c28.15-29 26.5-77.1-4.91-103.88C203.75-7.7 163-3.5 137.86 22.44L128 32.58l-9.85-10.14C93.05-3.5 52.25-7.7 24.86 15.64c-31.41 26.78-33 74.85-5 103.88zm143.92 100.49h-48l-7.08-14.24a27.39 27.39 0 0 0-25.66-17.78h-71.71a27.39 27.39 0 0 0-25.66 17.78l-7 14.24h-48A27.45 27.45 0 0 0 0 347.3v137.25A27.44 27.44 0 0 0 27.43 512h233.14A27.45 27.45 0 0 0 288 484.55V347.3a27.45 27.45 0 0 0-27.43-27.46zM144 468a52 52 0 1 1 52-52 52 52 0 0 1-52 52zm355.4-115.9h-60.58l22.36-50.75c2.1-6.65-3.93-13.21-12.18-13.21h-75.59c-6.3 0-11.66 3.9-12.5 9.1l-16.8 106.93c-1 6.3 4.88 11.89 12.5 11.89h62.31l-24.2 83c-1.89 6.65 4.2 12.9 12.23 12.9a13.26 13.26 0 0 0 10.92-5.25l92.4-138.91c4.88-6.91-1.16-15.7-10.87-15.7zM478.08.33L329.51 23.17C314.87 25.42 304 38.92 304 54.83V161.6a83.25 83.25 0 0 0-16-1.7c-35.35 0-64 21.48-64 48s28.65 48 64 48c35.2 0 63.73-21.32 64-47.66V99.66l112-17.22v47.18a83.25 83.25 0 0 0-16-1.7c-35.35 0-64 21.48-64 48s28.65 48 64 48c35.2 0 63.73-21.32 64-47.66V32c0-19.48-16-34.42-33.92-31.67z"></path>
  </symbol>
  <symbol id="id-badge" viewBox="0 0 384 512">
    <path d="M336 0H48C21.5 0 0 21.5 0 48v416c0 26.5 21.5 48 48 48h288c26.5 0 48-21.5 48-48V48c0-26.5-21.5-48-48-48zM144 32h96c8.8 0 16 7.2 16 16s-7.2 16-16 16h-96c-8.8 0-16-7.2-16-16s7.2-16 16-16zm48 128c35.3 0 64 28.7 64 64s-28.7 64-64 64-64-28.7-64-64 28.7-64 64-64zm112 236.8c0 10.6-10 19.2-22.4 19.2H102.4C90 416 80 407.4 80 396.8v-19.2c0-31.8 30.1-57.6 67.2-57.6h5c12.3 5.1 25.7 8 39.8 8s27.6-2.9 39.8-8h5c37.1 0 67.2 25.8 67.2 57.6v19.2z"></path>
  </symbol>
  <symbol id="id-card" viewBox="0 0 576 512">
    <path d="M528 32H48C21.5 32 0 53.5 0 80v16h576V80c0-26.5-21.5-48-48-48zM0 432c0 26.5 21.5 48 48 48h480c26.5 0 48-21.5 48-48V128H0v304zm352-232c0-4.4 3.6-8 8-8h144c4.4 0 8 3.6 8 8v16c0 4.4-3.6 8-8 8H360c-4.4 0-8-3.6-8-8v-16zm0 64c0-4.4 3.6-8 8-8h144c4.4 0 8 3.6 8 8v16c0 4.4-3.6 8-8 8H360c-4.4 0-8-3.6-8-8v-16zm0 64c0-4.4 3.6-8 8-8h144c4.4 0 8 3.6 8 8v16c0 4.4-3.6 8-8 8H360c-4.4 0-8-3.6-8-8v-16zM176 192c35.3 0 64 28.7 64 64s-28.7 64-64 64-64-28.7-64-64 28.7-64 64-64zM67.1 396.2C75.5 370.5 99.6 352 128 352h8.2c12.3 5.1 25.7 8 39.8 8s27.6-2.9 39.8-8h8.2c28.4 0 52.5 18.5 60.9 44.2 3.2 9.9-5.2 19.8-15.6 19.8H82.7c-10.4 0-18.8-10-15.6-19.8z"></path>
  </symbol>
  <symbol id="id-card-alt" viewBox="0 0 576 512">
    <path d="M528 64H384v96H192V64H48C21.5 64 0 85.5 0 112v352c0 26.5 21.5 48 48 48h480c26.5 0 48-21.5 48-48V112c0-26.5-21.5-48-48-48zM288 224c35.3 0 64 28.7 64 64s-28.7 64-64 64-64-28.7-64-64 28.7-64 64-64zm93.3 224H194.7c-10.4 0-18.8-10-15.6-19.8 8.3-25.6 32.4-44.2 60.9-44.2h8.2c12.3 5.1 25.7 8 39.8 8s27.6-2.9 39.8-8h8.2c28.4 0 52.5 18.5 60.9 44.2 3.2 9.8-5.2 19.8-15.6 19.8zM352 32c0-17.7-14.3-32-32-32h-64c-17.7 0-32 14.3-32 32v96h128V32z"></path>
  </symbol>
  <symbol id="igloo" viewBox="0 0 576 512">
    <path d="M320 33.9c-10.5-1.2-21.2-1.9-32-1.9-99.8 0-187.8 50.8-239.4 128H320V33.9zM96 192H30.3C11.1 230.6 0 274 0 320h96V192zM352 39.4V160h175.4C487.2 99.9 424.8 55.9 352 39.4zM480 320h96c0-46-11.1-89.4-30.3-128H480v128zm-64 64v96h128c17.7 0 32-14.3 32-32v-96H411.5c2.6 10.3 4.5 20.9 4.5 32zm32-192H128v128h49.8c22.2-38.1 63-64 110.2-64s88 25.9 110.2 64H448V192zM0 448c0 17.7 14.3 32 32 32h128v-96c0-11.1 1.9-21.7 4.5-32H0v96zm288-160c-53 0-96 43-96 96v96h192v-96c0-53-43-96-96-96z"></path>
  </symbol>
  <symbol id="image" viewBox="0 0 512 512">
    <path d="M464 448H48c-26.51 0-48-21.49-48-48V112c0-26.51 21.49-48 48-48h416c26.51 0 48 21.49 48 48v288c0 26.51-21.49 48-48 48zM112 120c-30.928 0-56 25.072-56 56s25.072 56 56 56 56-25.072 56-56-25.072-56-56-56zM64 384h384V272l-87.515-87.515c-4.686-4.686-12.284-4.686-16.971 0L208 320l-55.515-55.515c-4.686-4.686-12.284-4.686-16.971 0L64 336v48z"></path>
  </symbol>
  <symbol id="images" viewBox="0 0 576 512">
    <path d="M480 416v16c0 26.51-21.49 48-48 48H48c-26.51 0-48-21.49-48-48V176c0-26.51 21.49-48 48-48h16v208c0 44.112 35.888 80 80 80h336zm96-80V80c0-26.51-21.49-48-48-48H144c-26.51 0-48 21.49-48 48v256c0 26.51 21.49 48 48 48h384c26.51 0 48-21.49 48-48zM256 128c0 26.51-21.49 48-48 48s-48-21.49-48-48 21.49-48 48-48 48 21.49 48 48zm-96 144l55.515-55.515c4.686-4.686 12.284-4.686 16.971 0L272 256l135.515-135.515c4.686-4.686 12.284-4.686 16.971 0L512 208v112H160v-48z"></path>
  </symbol>
  <symbol id="inbox" viewBox="0 0 576 512">
    <path d="M567.938 243.908L462.25 85.374A48.003 48.003 0 0 0 422.311 64H153.689a48 48 0 0 0-39.938 21.374L8.062 243.908A47.994 47.994 0 0 0 0 270.533V400c0 26.51 21.49 48 48 48h480c26.51 0 48-21.49 48-48V270.533a47.994 47.994 0 0 0-8.062-26.625zM162.252 128h251.497l85.333 128H376l-32 64H232l-32-64H76.918l85.334-128z"></path>
  </symbol>
  <symbol id="indent" viewBox="0 0 448 512">
    <path d="M27.31 363.3l96-96a16 16 0 0 0 0-22.62l-96-96C17.27 138.66 0 145.78 0 160v192c0 14.31 17.33 21.3 27.31 11.3zM432 416H16a16 16 0 0 0-16 16v32a16 16 0 0 0 16 16h416a16 16 0 0 0 16-16v-32a16 16 0 0 0-16-16zm3.17-128H204.83A12.82 12.82 0 0 0 192 300.83v38.34A12.82 12.82 0 0 0 204.83 352h230.34A12.82 12.82 0 0 0 448 339.17v-38.34A12.82 12.82 0 0 0 435.17 288zm0-128H204.83A12.82 12.82 0 0 0 192 172.83v38.34A12.82 12.82 0 0 0 204.83 224h230.34A12.82 12.82 0 0 0 448 211.17v-38.34A12.82 12.82 0 0 0 435.17 160zM432 32H16A16 16 0 0 0 0 48v32a16 16 0 0 0 16 16h416a16 16 0 0 0 16-16V48a16 16 0 0 0-16-16z"></path>
  </symbol>
  <symbol id="industry" viewBox="0 0 512 512">
    <path d="M475.115 163.781L336 252.309v-68.28c0-18.916-20.931-30.399-36.885-20.248L160 252.309V56c0-13.255-10.745-24-24-24H24C10.745 32 0 42.745 0 56v400c0 13.255 10.745 24 24 24h464c13.255 0 24-10.745 24-24V184.029c0-18.917-20.931-30.399-36.885-20.248z"></path>
  </symbol>
  <symbol id="infinity" viewBox="0 0 640 512">
    <path d="M471.1 96C405 96 353.3 137.3 320 174.6 286.7 137.3 235 96 168.9 96 75.8 96 0 167.8 0 256s75.8 160 168.9 160c66.1 0 117.8-41.3 151.1-78.6 33.3 37.3 85 78.6 151.1 78.6 93.1 0 168.9-71.8 168.9-160S564.2 96 471.1 96zM168.9 320c-40.2 0-72.9-28.7-72.9-64s32.7-64 72.9-64c38.2 0 73.4 36.1 94 64-20.4 27.6-55.9 64-94 64zm302.2 0c-38.2 0-73.4-36.1-94-64 20.4-27.6 55.9-64 94-64 40.2 0 72.9 28.7 72.9 64s-32.7 64-72.9 64z"></path>
  </symbol>
  <symbol id="info" viewBox="0 0 192 512">
    <path d="M20 424.229h20V279.771H20c-11.046 0-20-8.954-20-20V212c0-11.046 8.954-20 20-20h112c11.046 0 20 8.954 20 20v212.229h20c11.046 0 20 8.954 20 20V492c0 11.046-8.954 20-20 20H20c-11.046 0-20-8.954-20-20v-47.771c0-11.046 8.954-20 20-20zM96 0C56.235 0 24 32.235 24 72s32.235 72 72 72 72-32.235 72-72S135.764 0 96 0z"></path>
  </symbol>
  <symbol id="info-circle" viewBox="0 0 512 512">
    <path d="M256 8C119.043 8 8 119.083 8 256c0 136.997 111.043 248 248 248s248-111.003 248-248C504 119.083 392.957 8 256 8zm0 110c23.196 0 42 18.804 42 42s-18.804 42-42 42-42-18.804-42-42 18.804-42 42-42zm56 254c0 6.627-5.373 12-12 12h-88c-6.627 0-12-5.373-12-12v-24c0-6.627 5.373-12 12-12h12v-64h-12c-6.627 0-12-5.373-12-12v-24c0-6.627 5.373-12 12-12h64c6.627 0 12 5.373 12 12v100h12c6.627 0 12 5.373 12 12v24z"></path>
  </symbol>
  <symbol id="italic" viewBox="0 0 320 512">
    <path d="M320 48v32a16 16 0 0 1-16 16h-62.76l-80 320H208a16 16 0 0 1 16 16v32a16 16 0 0 1-16 16H16a16 16 0 0 1-16-16v-32a16 16 0 0 1 16-16h62.76l80-320H112a16 16 0 0 1-16-16V48a16 16 0 0 1 16-16h192a16 16 0 0 1 16 16z"></path>
  </symbol>
</svg>