<?xml version="1.0" encoding="UTF-8"?>
<!--
Font Awesome Free 5.9.0 by @fontawesome - https://fontawesome.com
License - https://fontawesome.com/license/free (Icons: CC BY 4.0, Fonts: SIL OFL 1.1, Code: MIT License)
-->
<svg xmlns="http://www.w3.org/2000/svg" style="display: none;">
  <symbol id="database" viewBox="0 0 448 512">
    <path d="M448 73.143v45.714C448 159.143 347.667 192 224 192S0 159.143 0 118.857V73.143C0 32.857 100.333 0 224 0s224 32.857 224 73.143zM448 176v102.857C448 319.143 347.667 352 224 352S0 319.143 0 278.857V176c48.125 33.143 136.208 48.572 224 48.572S399.874 209.143 448 176zm0 160v102.857C448 479.143 347.667 512 224 512S0 479.143 0 438.857V336c48.125 33.143 136.208 48.572 224 48.572S399.874 369.143 448 336z"></path>
  </symbol>
  <symbol id="deaf" viewBox="0 0 512 512">
    <path d="M216 260c0 15.464-12.536 28-28 28s-28-12.536-28-28c0-44.112 35.888-80 80-80s80 35.888 80 80c0 15.464-12.536 28-28 28s-28-12.536-28-28c0-13.234-10.767-24-24-24s-24 10.766-24 24zm24-176c-97.047 0-176 78.953-176 176 0 15.464 12.536 28 28 28s28-12.536 28-28c0-66.168 53.832-120 120-120s120 53.832 120 120c0 75.164-71.009 70.311-71.997 143.622L288 404c0 28.673-23.327 52-52 52-15.464 0-28 12.536-28 28s12.536 28 28 28c59.475 0 107.876-48.328 108-107.774.595-34.428 72-48.24 72-144.226 0-97.047-78.953-176-176-176zm268.485-52.201L480.2 3.515c-4.687-4.686-12.284-4.686-16.971 0L376.2 90.544c-4.686 4.686-4.686 12.284 0 16.971l28.285 28.285c4.686 4.686 12.284 4.686 16.97 0l87.03-87.029c4.687-4.688 4.687-12.286 0-16.972zM168.97 314.745c-4.686-4.686-12.284-4.686-16.97 0L3.515 463.23c-4.686 4.686-4.686 12.284 0 16.971L31.8 508.485c4.687 4.686 12.284 4.686 16.971 0L197.256 360c4.686-4.686 4.686-12.284 0-16.971l-28.286-28.284z"></path>
  </symbol>
  <symbol id="democrat" viewBox="0 0 640 512">
    <path d="M637.3 256.9l-19.6-29.4c-28.2-42.3-75.3-67.5-126.1-67.5H256l-81.2-81.2c20.1-20.1 22.6-51.1 7.5-73.9-3.4-5.2-10.8-5.9-15.2-1.5l-41.8 41.8L82.4 2.4c-3.6-3.6-9.6-3-12.4 1.2-12.3 18.6-10.3 44 6.1 60.4 3.3 3.3 7.3 5.3 11.3 7.5-2.2 1.7-4.7 3.1-6.4 5.4L6.4 176.2c-7.3 9.7-8.4 22.7-3 33.5l14.3 28.6c5.4 10.8 16.5 17.7 28.6 17.7h31c8.5 0 16.6-3.4 22.6-9.4L138 212l54 108h352v-77.8c16.2 12.2 18.3 17.6 40.1 50.3 4.9 7.4 14.8 9.3 22.2 4.4l26.6-17.7c7.3-5 9.3-14.9 4.4-22.3zm-341.1-13.6l-16.5 16.1 3.9 22.7c.7 4.1-3.6 7.2-7.2 5.3L256 276.7l-20.4 10.7c-3.6 1.9-7.9-1.2-7.2-5.3l3.9-22.7-16.5-16.1c-3-2.9-1.3-7.9 2.8-8.5l22.8-3.3 10.2-20.7c1.8-3.7 7.1-3.7 9 0l10.2 20.7 22.8 3.3c4 .6 5.6 5.6 2.6 8.5zm112 0l-16.5 16.1 3.9 22.7c.7 4.1-3.6 7.2-7.2 5.3L368 276.7l-20.4 10.7c-3.6 1.9-7.9-1.2-7.2-5.3l3.9-22.7-16.5-16.1c-3-2.9-1.3-7.9 2.8-8.5l22.8-3.3 10.2-20.7c1.8-3.7 7.1-3.7 9 0l10.2 20.7 22.8 3.3c4 .6 5.6 5.6 2.6 8.5zm112 0l-16.5 16.1 3.9 22.7c.7 4.1-3.6 7.2-7.2 5.3L480 276.7l-20.4 10.7c-3.6 1.9-7.9-1.2-7.2-5.3l3.9-22.7-16.5-16.1c-3-2.9-1.3-7.9 2.8-8.5l22.8-3.3 10.2-20.7c1.8-3.7 7.1-3.7 9 0l10.2 20.7 22.8 3.3c4 .6 5.6 5.6 2.6 8.5zM192 496c0 8.8 7.2 16 16 16h64c8.8 0 16-7.2 16-16v-80h160v80c0 8.8 7.2 16 16 16h64c8.8 0 16-7.2 16-16V352H192v144z"></path>
  </symbol>
  <symbol id="desktop" viewBox="0 0 576 512">
    <path d="M528 0H48C21.5 0 0 21.5 0 48v320c0 26.5 21.5 48 48 48h192l-16 48h-72c-13.3 0-24 10.7-24 24s10.7 24 24 24h272c13.3 0 24-10.7 24-24s-10.7-24-24-24h-72l-16-48h192c26.5 0 48-21.5 48-48V48c0-26.5-21.5-48-48-48zm-16 352H64V64h448v288z"></path>
  </symbol>
  <symbol id="dharmachakra" viewBox="0 0 512 512">
    <path d="M495 225.06l-17.22 1.08c-5.27-39.49-20.79-75.64-43.86-105.84l12.95-11.43c6.92-6.11 7.25-16.79.73-23.31L426.44 64.4c-6.53-6.53-17.21-6.19-23.31.73L391.7 78.07c-30.2-23.06-66.35-38.58-105.83-43.86L286.94 17c.58-9.21-6.74-17-15.97-17h-29.94c-9.23 0-16.54 7.79-15.97 17l1.08 17.22c-39.49 5.27-75.64 20.79-105.83 43.86l-11.43-12.95c-6.11-6.92-16.79-7.25-23.31-.73L64.4 85.56c-6.53 6.53-6.19 17.21.73 23.31l12.95 11.43c-23.06 30.2-38.58 66.35-43.86 105.84L17 225.06c-9.21-.58-17 6.74-17 15.97v29.94c0 9.23 7.79 16.54 17 15.97l17.22-1.08c5.27 39.49 20.79 75.64 43.86 105.83l-12.95 11.43c-6.92 6.11-7.25 16.79-.73 23.31l21.17 21.17c6.53 6.53 17.21 6.19 23.31-.73l11.43-12.95c30.2 23.06 66.35 38.58 105.84 43.86L225.06 495c-.58 9.21 6.74 17 15.97 17h29.94c9.23 0 16.54-7.79 15.97-17l-1.08-17.22c39.49-5.27 75.64-20.79 105.84-43.86l11.43 12.95c6.11 6.92 16.79 7.25 23.31.73l21.17-21.17c6.53-6.53 6.19-17.21-.73-23.31l-12.95-11.43c23.06-30.2 38.58-66.35 43.86-105.83l17.22 1.08c9.21.58 17-6.74 17-15.97v-29.94c-.01-9.23-7.8-16.54-17.01-15.97zM281.84 98.61c24.81 4.07 47.63 13.66 67.23 27.78l-42.62 48.29c-8.73-5.44-18.32-9.54-28.62-11.95l4.01-64.12zm-51.68 0l4.01 64.12c-10.29 2.41-19.89 6.52-28.62 11.95l-42.62-48.29c19.6-14.12 42.42-23.71 67.23-27.78zm-103.77 64.33l48.3 42.61c-5.44 8.73-9.54 18.33-11.96 28.62l-64.12-4.01c4.07-24.81 13.66-47.62 27.78-67.22zm-27.78 118.9l64.12-4.01c2.41 10.29 6.52 19.89 11.95 28.62l-48.29 42.62c-14.12-19.6-23.71-42.42-27.78-67.23zm131.55 131.55c-24.81-4.07-47.63-13.66-67.23-27.78l42.61-48.3c8.73 5.44 18.33 9.54 28.62 11.96l-4 64.12zM256 288c-17.67 0-32-14.33-32-32s14.33-32 32-32 32 14.33 32 32-14.33 32-32 32zm25.84 125.39l-4.01-64.12c10.29-2.41 19.89-6.52 28.62-11.96l42.61 48.3c-19.6 14.12-42.41 23.71-67.22 27.78zm103.77-64.33l-48.29-42.62c5.44-8.73 9.54-18.32 11.95-28.62l64.12 4.01c-4.07 24.82-13.66 47.64-27.78 67.23zm-36.34-114.89c-2.41-10.29-6.52-19.89-11.96-28.62l48.3-42.61c14.12 19.6 23.71 42.42 27.78 67.23l-64.12 4z"></path>
  </symbol>
  <symbol id="diagnoses" viewBox="0 0 640 512">
    <path d="M496 256c8.8 0 16-7.2 16-16s-7.2-16-16-16-16 7.2-16 16 7.2 16 16 16zm-176-80c48.5 0 88-39.5 88-88S368.5 0 320 0s-88 39.5-88 88 39.5 88 88 88zM59.8 364c10.2 15.3 29.3 17.8 42.9 9.8 16.2-9.6 56.2-31.7 105.3-48.6V416h224v-90.7c49.1 16.8 89.1 39 105.3 48.6 13.6 8 32.7 5.3 42.9-9.8l17.8-26.7c8.8-13.2 7.6-34.6-10-45.1-11.9-7.1-29.7-17-51.1-27.4-28.1 46.1-99.4 17.8-87.7-35.1C409.3 217.2 365.1 208 320 208c-57 0-112.9 14.5-160 32.2-.2 40.2-47.6 63.3-79.2 36-11.2 6-21.3 11.6-28.7 16-17.6 10.5-18.8 31.8-10 45.1L59.8 364zM368 344c13.3 0 24 10.7 24 24s-10.7 24-24 24-24-10.7-24-24 10.7-24 24-24zm-96-96c13.3 0 24 10.7 24 24s-10.7 24-24 24-24-10.7-24-24 10.7-24 24-24zm-160 8c8.8 0 16-7.2 16-16s-7.2-16-16-16-16 7.2-16 16 7.2 16 16 16zm512 192H16c-8.8 0-16 7.2-16 16v32c0 8.8 7.2 16 16 16h608c8.8 0 16-7.2 16-16v-32c0-8.8-7.2-16-16-16z"></path>
  </symbol>
  <symbol id="dice" viewBox="0 0 640 512">
    <path d="M592 192H473.26c12.69 29.59 7.12 65.2-17 89.32L320 417.58V464c0 26.51 21.49 48 48 48h224c26.51 0 48-21.49 48-48V240c0-26.51-21.49-48-48-48zM480 376c-13.25 0-24-10.75-24-24 0-13.26 10.75-24 24-24s24 10.74 24 24c0 13.25-10.75 24-24 24zm-46.37-186.7L258.7 14.37c-19.16-19.16-50.23-19.16-69.39 0L14.37 189.3c-19.16 19.16-19.16 50.23 0 69.39L189.3 433.63c19.16 19.16 50.23 19.16 69.39 0L433.63 258.7c19.16-19.17 19.16-50.24 0-69.4zM96 248c-13.25 0-24-10.75-24-24 0-13.26 10.75-24 24-24s24 10.74 24 24c0 13.25-10.75 24-24 24zm128 128c-13.25 0-24-10.75-24-24 0-13.26 10.75-24 24-24s24 10.74 24 24c0 13.25-10.75 24-24 24zm0-128c-13.25 0-24-10.75-24-24 0-13.26 10.75-24 24-24s24 10.74 24 24c0 13.25-10.75 24-24 24zm0-128c-13.25 0-24-10.75-24-24 0-13.26 10.75-24 24-24s24 10.74 24 24c0 13.25-10.75 24-24 24zm128 128c-13.25 0-24-10.75-24-24 0-13.26 10.75-24 24-24s24 10.74 24 24c0 13.25-10.75 24-24 24z"></path>
  </symbol>
  <symbol id="dice-d20" viewBox="0 0 480 512">
    <path d="M106.75 215.06L1.2 370.95c-3.08 5 .1 11.5 5.93 12.14l208.26 22.07-108.64-190.1zM7.41 315.43L82.7 193.08 6.06 147.1c-2.67-1.6-6.06.32-6.06 3.43v162.81c0 4.03 5.29 5.53 7.41 2.09zM18.25 423.6l194.4 87.66c5.3 2.45 11.35-1.43 11.35-7.26v-65.67l-203.55-22.3c-4.45-.5-6.23 5.59-2.2 7.57zm81.22-257.78L179.4 22.88c4.34-7.06-3.59-15.25-10.78-11.14L17.81 110.35c-2.47 1.62-2.39 5.26.13 6.78l81.53 48.69zM240 176h109.21L253.63 7.62C250.5 2.54 245.25 0 240 0s-10.5 2.54-13.63 7.62L130.79 176H240zm233.94-28.9l-76.64 45.99 75.29 122.35c2.11 3.44 7.41 1.94 7.41-2.1V150.53c0-3.11-3.39-5.03-6.06-3.43zm-93.41 18.72l81.53-48.7c2.53-1.52 2.6-5.16.13-6.78l-150.81-98.6c-7.19-4.11-15.12 4.08-10.78 11.14l79.93 142.94zm79.02 250.21L256 438.32v65.67c0 5.84 6.05 9.71 11.35 7.26l194.4-87.66c4.03-1.97 2.25-8.06-2.2-7.56zm-86.3-200.97l-108.63 190.1 208.26-22.07c5.83-.65 9.01-7.14 5.93-12.14L373.25 215.06zM240 208H139.57L240 383.75 340.43 208H240z"></path>
  </symbol>
  <symbol id="dice-d6" viewBox="0 0 448 512">
    <path d="M422.19 109.95L256.21 9.07c-19.91-12.1-44.52-12.1-64.43 0L25.81 109.95c-5.32 3.23-5.29 11.27.06 14.46L224 242.55l198.14-118.14c5.35-3.19 5.38-11.22.05-14.46zm13.84 44.63L240 271.46v223.82c0 12.88 13.39 20.91 24.05 14.43l152.16-92.48c19.68-11.96 31.79-33.94 31.79-57.7v-197.7c0-6.41-6.64-10.43-11.97-7.25zM0 161.83v197.7c0 23.77 12.11 45.74 31.79 57.7l152.16 92.47c10.67 6.48 24.05-1.54 24.05-14.43V271.46L11.97 154.58C6.64 151.4 0 155.42 0 161.83z"></path>
  </symbol>
  <symbol id="dice-five" viewBox="0 0 448 512">
    <path d="M384 32H64C28.65 32 0 60.65 0 96v320c0 35.35 28.65 64 64 64h320c35.35 0 64-28.65 64-64V96c0-35.35-28.65-64-64-64zM128 384c-17.67 0-32-14.33-32-32s14.33-32 32-32 32 14.33 32 32-14.33 32-32 32zm0-192c-17.67 0-32-14.33-32-32s14.33-32 32-32 32 14.33 32 32-14.33 32-32 32zm96 96c-17.67 0-32-14.33-32-32s14.33-32 32-32 32 14.33 32 32-14.33 32-32 32zm96 96c-17.67 0-32-14.33-32-32s14.33-32 32-32 32 14.33 32 32-14.33 32-32 32zm0-192c-17.67 0-32-14.33-32-32s14.33-32 32-32 32 14.33 32 32-14.33 32-32 32z"></path>
  </symbol>
  <symbol id="dice-four" viewBox="0 0 448 512">
    <path d="M384 32H64C28.65 32 0 60.65 0 96v320c0 35.35 28.65 64 64 64h320c35.35 0 64-28.65 64-64V96c0-35.35-28.65-64-64-64zM128 384c-17.67 0-32-14.33-32-32s14.33-32 32-32 32 14.33 32 32-14.33 32-32 32zm0-192c-17.67 0-32-14.33-32-32s14.33-32 32-32 32 14.33 32 32-14.33 32-32 32zm192 192c-17.67 0-32-14.33-32-32s14.33-32 32-32 32 14.33 32 32-14.33 32-32 32zm0-192c-17.67 0-32-14.33-32-32s14.33-32 32-32 32 14.33 32 32-14.33 32-32 32z"></path>
  </symbol>
  <symbol id="dice-one" viewBox="0 0 448 512">
    <path d="M384 32H64C28.65 32 0 60.65 0 96v320c0 35.35 28.65 64 64 64h320c35.35 0 64-28.65 64-64V96c0-35.35-28.65-64-64-64zM224 288c-17.67 0-32-14.33-32-32s14.33-32 32-32 32 14.33 32 32-14.33 32-32 32z"></path>
  </symbol>
  <symbol id="dice-six" viewBox="0 0 448 512">
    <path d="M384 32H64C28.65 32 0 60.65 0 96v320c0 35.35 28.65 64 64 64h320c35.35 0 64-28.65 64-64V96c0-35.35-28.65-64-64-64zM128 384c-17.67 0-32-14.33-32-32s14.33-32 32-32 32 14.33 32 32-14.33 32-32 32zm0-96c-17.67 0-32-14.33-32-32s14.33-32 32-32 32 14.33 32 32-14.33 32-32 32zm0-96c-17.67 0-32-14.33-32-32s14.33-32 32-32 32 14.33 32 32-14.33 32-32 32zm192 192c-17.67 0-32-14.33-32-32s14.33-32 32-32 32 14.33 32 32-14.33 32-32 32zm0-96c-17.67 0-32-14.33-32-32s14.33-32 32-32 32 14.33 32 32-14.33 32-32 32zm0-96c-17.67 0-32-14.33-32-32s14.33-32 32-32 32 14.33 32 32-14.33 32-32 32z"></path>
  </symbol>
  <symbol id="dice-three" viewBox="0 0 448 512">
    <path d="M384 32H64C28.65 32 0 60.65 0 96v320c0 35.35 28.65 64 64 64h320c35.35 0 64-28.65 64-64V96c0-35.35-28.65-64-64-64zM128 192c-17.67 0-32-14.33-32-32s14.33-32 32-32 32 14.33 32 32-14.33 32-32 32zm96 96c-17.67 0-32-14.33-32-32s14.33-32 32-32 32 14.33 32 32-14.33 32-32 32zm96 96c-17.67 0-32-14.33-32-32s14.33-32 32-32 32 14.33 32 32-14.33 32-32 32z"></path>
  </symbol>
  <symbol id="dice-two" viewBox="0 0 448 512">
    <path d="M384 32H64C28.65 32 0 60.65 0 96v320c0 35.35 28.65 64 64 64h320c35.35 0 64-28.65 64-64V96c0-35.35-28.65-64-64-64zM128 192c-17.67 0-32-14.33-32-32s14.33-32 32-32 32 14.33 32 32-14.33 32-32 32zm192 192c-17.67 0-32-14.33-32-32s14.33-32 32-32 32 14.33 32 32-14.33 32-32 32z"></path>
  </symbol>
  <symbol id="digital-tachograph" viewBox="0 0 640 512">
    <path d="M608 96H32c-17.67 0-32 14.33-32 32v256c0 17.67 14.33 32 32 32h576c17.67 0 32-14.33 32-32V128c0-17.67-14.33-32-32-32zM304 352c0 4.42-3.58 8-8 8H72c-4.42 0-8-3.58-8-8v-8c0-4.42 3.58-8 8-8h224c4.42 0 8 3.58 8 8v8zM72 288v-16c0-4.42 3.58-8 8-8h16c4.42 0 8 3.58 8 8v16c0 4.42-3.58 8-8 8H80c-4.42 0-8-3.58-8-8zm64 0v-16c0-4.42 3.58-8 8-8h16c4.42 0 8 3.58 8 8v16c0 4.42-3.58 8-8 8h-16c-4.42 0-8-3.58-8-8zm64 0v-16c0-4.42 3.58-8 8-8h16c4.42 0 8 3.58 8 8v16c0 4.42-3.58 8-8 8h-16c-4.42 0-8-3.58-8-8zm64 0v-16c0-4.42 3.58-8 8-8h16c4.42 0 8 3.58 8 8v16c0 4.42-3.58 8-8 8h-16c-4.42 0-8-3.58-8-8zm40-64c0 8.84-7.16 16-16 16H80c-8.84 0-16-7.16-16-16v-48c0-8.84 7.16-16 16-16h208c8.84 0 16 7.16 16 16v48zm272 128c0 4.42-3.58 8-8 8H344c-4.42 0-8-3.58-8-8v-8c0-4.42 3.58-8 8-8h224c4.42 0 8 3.58 8 8v8z"></path>
  </symbol>
  <symbol id="directions" viewBox="0 0 512 512">
    <path d="M502.61 233.32L278.68 9.39c-12.52-12.52-32.83-12.52-45.36 0L9.39 233.32c-12.52 12.53-12.52 32.83 0 45.36l223.93 223.93c12.52 12.53 32.83 12.53 45.36 0l223.93-223.93c12.52-12.53 12.52-32.83 0-45.36zm-100.98 12.56l-84.21 77.73c-5.12 4.73-13.43 1.1-13.43-5.88V264h-96v64c0 4.42-3.58 8-8 8h-32c-4.42 0-8-3.58-8-8v-80c0-17.67 14.33-32 32-32h112v-53.73c0-6.97 8.3-10.61 13.43-5.88l84.21 77.73c3.43 3.17 3.43 8.59 0 11.76z"></path>
  </symbol>
  <symbol id="divide" viewBox="0 0 448 512">
    <path d="M224 352c-35.35 0-64 28.65-64 64s28.65 64 64 64 64-28.65 64-64-28.65-64-64-64zm0-192c35.35 0 64-28.65 64-64s-28.65-64-64-64-64 28.65-64 64 28.65 64 64 64zm192 48H32c-17.67 0-32 14.33-32 32v32c0 17.67 14.33 32 32 32h384c17.67 0 32-14.33 32-32v-32c0-17.67-14.33-32-32-32z"></path>
  </symbol>
  <symbol id="dizzy" viewBox="0 0 496 512">
    <path d="M248 8C111 8 0 119 0 256s111 248 248 248 248-111 248-248S385 8 248 8zm-96 206.6l-28.7 28.7c-14.8 14.8-37.8-7.5-22.6-22.6l28.7-28.7-28.7-28.7c-15-15 7.7-37.6 22.6-22.6l28.7 28.7 28.7-28.7c15-15 37.6 7.7 22.6 22.6L174.6 192l28.7 28.7c15.2 15.2-7.9 37.4-22.6 22.6L152 214.6zM248 416c-35.3 0-64-28.7-64-64s28.7-64 64-64 64 28.7 64 64-28.7 64-64 64zm147.3-195.3c15.2 15.2-7.9 37.4-22.6 22.6L344 214.6l-28.7 28.7c-14.8 14.8-37.8-7.5-22.6-22.6l28.7-28.7-28.7-28.7c-15-15 7.7-37.6 22.6-22.6l28.7 28.7 28.7-28.7c15-15 37.6 7.7 22.6 22.6L366.6 192l28.7 28.7z"></path>
  </symbol>
  <symbol id="dna" viewBox="0 0 448 512">
    <path d="M.1 494.1c-1.1 9.5 6.3 17.8 15.9 17.8l32.3.1c8.1 0 14.9-5.9 16-13.9.7-4.9 1.8-11.1 3.4-18.1H380c1.6 6.9 2.9 13.2 3.5 18.1 1.1 8 7.9 14 16 13.9l32.3-.1c9.6 0 17.1-8.3 15.9-17.8-4.6-37.9-25.6-129-118.9-207.7-17.6 12.4-37.1 24.2-58.5 35.4 6.2 4.6 11.4 9.4 17 14.2H159.7c21.3-18.1 47-35.6 78.7-51.4C410.5 199.1 442.1 65.8 447.9 17.9 449 8.4 441.6.1 432 .1L399.6 0c-8.1 0-14.9 5.9-16 13.9-.7 4.9-1.8 11.1-3.4 18.1H67.8c-1.6-7-2.7-13.1-3.4-18.1-1.1-8-7.9-14-16-13.9L16.1.1C6.5.1-1 8.4.1 17.9 5.3 60.8 31.4 171.8 160 256 31.5 340.2 5.3 451.2.1 494.1zM224 219.6c-25.1-13.7-46.4-28.4-64.3-43.6h128.5c-17.8 15.2-39.1 30-64.2 43.6zM355.1 96c-5.8 10.4-12.8 21.1-21 32H114c-8.3-10.9-15.3-21.6-21-32h262.1zM92.9 416c5.8-10.4 12.8-21.1 21-32h219.4c8.3 10.9 15.4 21.6 21.2 32H92.9z"></path>
  </symbol>
  <symbol id="dog" viewBox="0 0 512 512">
    <path d="M496 96h-64l-7.16-14.31A32 32 0 0 0 396.22 64H342.6l-27.28-27.28C305.23 26.64 288 33.78 288 48.03v149.84l128 45.71V208h32c35.35 0 64-28.65 64-64v-32c0-8.84-7.16-16-16-16zm-112 48c-8.84 0-16-7.16-16-16s7.16-16 16-16 16 7.16 16 16-7.16 16-16 16zM96 224c-17.64 0-32-14.36-32-32 0-17.67-14.33-32-32-32S0 174.33 0 192c0 41.66 26.83 76.85 64 90.1V496c0 8.84 7.16 16 16 16h64c8.84 0 16-7.16 16-16V384h160v112c0 8.84 7.16 16 16 16h64c8.84 0 16-7.16 16-16V277.55L266.05 224H96z"></path>
  </symbol>
  <symbol id="dollar-sign" viewBox="0 0 288 512">
    <path d="M209.2 233.4l-108-31.6C88.7 198.2 80 186.5 80 173.5c0-16.3 13.2-29.5 29.5-29.5h66.3c12.2 0 24.2 3.7 34.2 10.5 6.1 4.1 14.3 3.1 19.5-2l34.8-34c7.1-6.9 6.1-18.4-1.8-24.5C238 74.8 207.4 64.1 176 64V16c0-8.8-7.2-16-16-16h-32c-8.8 0-16 7.2-16 16v48h-2.5C45.8 64-5.4 118.7.5 183.6c4.2 46.1 39.4 83.6 83.8 96.6l102.5 30c12.5 3.7 21.2 15.3 21.2 28.3 0 16.3-13.2 29.5-29.5 29.5h-66.3C100 368 88 364.3 78 357.5c-6.1-4.1-14.3-3.1-19.5 2l-34.8 34c-7.1 6.9-6.1 18.4 1.8 24.5 24.5 19.2 55.1 29.9 86.5 30v48c0 8.8 7.2 16 16 16h32c8.8 0 16-7.2 16-16v-48.2c46.6-.9 90.3-28.6 105.7-72.7 21.5-61.6-14.6-124.8-72.5-141.7z"></path>
  </symbol>
  <symbol id="dolly" viewBox="0 0 576 512">
    <path d="M294.2 277.7c18 5 34.7 13.4 49.5 24.7l161.5-53.8c8.4-2.8 12.9-11.9 10.1-20.2L454.9 47.2c-2.8-8.4-11.9-12.9-20.2-10.1l-61.1 20.4 33.1 99.4L346 177l-33.1-99.4-61.6 20.5c-8.4 2.8-12.9 11.9-10.1 20.2l53 159.4zm281 48.7L565 296c-2.8-8.4-11.9-12.9-20.2-10.1l-213.5 71.2c-17.2-22-43.6-36.4-73.5-37L158.4 21.9C154 8.8 141.8 0 128 0H16C7.2 0 0 7.2 0 16v32c0 8.8 7.2 16 16 16h88.9l92.2 276.7c-26.1 20.4-41.7 53.6-36 90.5 6.1 39.4 37.9 72.3 77.3 79.2 60.2 10.7 112.3-34.8 113.4-92.6l213.3-71.2c8.3-2.8 12.9-11.8 10.1-20.2zM256 464c-26.5 0-48-21.5-48-48s21.5-48 48-48 48 21.5 48 48-21.5 48-48 48z"></path>
  </symbol>
  <symbol id="dolly-flatbed" viewBox="0 0 640 512">
    <path d="M208 320h384c8.8 0 16-7.2 16-16V48c0-8.8-7.2-16-16-16H448v128l-48-32-48 32V32H208c-8.8 0-16 7.2-16 16v256c0 8.8 7.2 16 16 16zm416 64H128V16c0-8.8-7.2-16-16-16H16C7.2 0 0 7.2 0 16v32c0 8.8 7.2 16 16 16h48v368c0 8.8 7.2 16 16 16h82.9c-1.8 5-2.9 10.4-2.9 16 0 26.5 21.5 48 48 48s48-21.5 48-48c0-5.6-1.2-11-2.9-16H451c-1.8 5-2.9 10.4-2.9 16 0 26.5 21.5 48 48 48s48-21.5 48-48c0-5.6-1.2-11-2.9-16H624c8.8 0 16-7.2 16-16v-32c0-8.8-7.2-16-16-16z"></path>
  </symbol>
  <symbol id="donate" viewBox="0 0 512 512">
    <path d="M256 416c114.9 0 208-93.1 208-208S370.9 0 256 0 48 93.1 48 208s93.1 208 208 208zM233.8 97.4V80.6c0-9.2 7.4-16.6 16.6-16.6h11.1c9.2 0 16.6 7.4 16.6 16.6v17c15.5.8 30.5 6.1 43 15.4 5.6 4.1 6.2 12.3 1.2 17.1L306 145.6c-3.8 3.7-9.5 3.8-14 1-5.4-3.4-11.4-5.1-17.8-5.1h-38.9c-9 0-16.3 8.2-16.3 18.3 0 8.2 5 15.5 12.1 17.6l62.3 18.7c25.7 7.7 43.7 32.4 43.7 60.1 0 34-26.4 61.5-59.1 62.4v16.8c0 9.2-7.4 16.6-16.6 16.6h-11.1c-9.2 0-16.6-7.4-16.6-16.6v-17c-15.5-.8-30.5-6.1-43-15.4-5.6-4.1-6.2-12.3-1.2-17.1l16.3-15.5c3.8-3.7 9.5-3.8 14-1 5.4 3.4 11.4 5.1 17.8 5.1h38.9c9 0 16.3-8.2 16.3-18.3 0-8.2-5-15.5-12.1-17.6l-62.3-18.7c-25.7-7.7-43.7-32.4-43.7-60.1.1-34 26.4-61.5 59.1-62.4zM480 352h-32.5c-19.6 26-44.6 47.7-73 64h63.8c5.3 0 9.6 3.6 9.6 8v16c0 4.4-4.3 8-9.6 8H73.6c-5.3 0-9.6-3.6-9.6-8v-16c0-4.4 4.3-8 9.6-8h63.8c-28.4-16.3-53.3-38-73-64H32c-17.7 0-32 14.3-32 32v96c0 17.7 14.3 32 32 32h448c17.7 0 32-14.3 32-32v-96c0-17.7-14.3-32-32-32z"></path>
  </symbol>
  <symbol id="door-closed" viewBox="0 0 640 512">
    <path d="M624 448H512V50.8C512 22.78 490.47 0 464 0H175.99c-26.47 0-48 22.78-48 50.8V448H16c-8.84 0-16 7.16-16 16v32c0 8.84 7.16 16 16 16h608c8.84 0 16-7.16 16-16v-32c0-8.84-7.16-16-16-16zM415.99 288c-17.67 0-32-14.33-32-32s14.33-32 32-32 32 14.33 32 32c.01 17.67-14.32 32-32 32z"></path>
  </symbol>
  <symbol id="door-open" viewBox="0 0 640 512">
    <path d="M624 448h-80V113.45C544 86.19 522.47 64 496 64H384v64h96v384h144c8.84 0 16-7.16 16-16v-32c0-8.84-7.16-16-16-16zM312.24 1.01l-192 49.74C105.99 54.44 96 67.7 96 82.92V448H16c-8.84 0-16 7.16-16 16v32c0 8.84 7.16 16 16 16h336V33.18c0-21.58-19.56-37.41-39.76-32.17zM264 288c-13.25 0-24-14.33-24-32s10.75-32 24-32 24 14.33 24 32-10.75 32-24 32z"></path>
  </symbol>
  <symbol id="dot-circle" viewBox="0 0 512 512">
    <path d="M256 8C119.033 8 8 119.033 8 256s111.033 248 248 248 248-111.033 248-248S392.967 8 256 8zm80 248c0 44.112-35.888 80-80 80s-80-35.888-80-80 35.888-80 80-80 80 35.888 80 80z"></path>
  </symbol>
  <symbol id="dove" viewBox="0 0 512 512">
    <path d="M288 167.2v-28.1c-28.2-36.3-47.1-79.3-54.1-125.2-2.1-13.5-19-18.8-27.8-8.3-21.1 24.9-37.7 54.1-48.9 86.5 34.2 38.3 80 64.6 130.8 75.1zM400 64c-44.2 0-80 35.9-80 80.1v59.4C215.6 197.3 127 133 87 41.8c-5.5-12.5-23.2-13.2-29-.9C41.4 76 32 115.2 32 156.6c0 70.8 34.1 136.9 85.1 185.9 13.2 12.7 26.1 23.2 38.9 32.8l-143.9 36C1.4 414-3.4 426.4 2.6 435.7 20 462.6 63 508.2 155.8 512c8 .3 16-2.6 22.1-7.9l65.2-56.1H320c88.4 0 160-71.5 160-159.9V128l32-64H400zm0 96.1c-8.8 0-16-7.2-16-16s7.2-16 16-16 16 7.2 16 16-7.2 16-16 16z"></path>
  </symbol>
  <symbol id="download" viewBox="0 0 512 512">
    <path d="M216 0h80c13.3 0 24 10.7 24 24v168h87.7c17.8 0 26.7 21.5 14.1 34.1L269.7 378.3c-7.5 7.5-19.8 7.5-27.3 0L90.1 226.1c-12.6-12.6-3.7-34.1 14.1-34.1H192V24c0-13.3 10.7-24 24-24zm296 376v112c0 13.3-10.7 24-24 24H24c-13.3 0-24-10.7-24-24V376c0-13.3 10.7-24 24-24h146.7l49 49c20.1 20.1 52.5 20.1 72.6 0l49-49H488c13.3 0 24 10.7 24 24zm-124 88c0-11-9-20-20-20s-20 9-20 20 9 20 20 20 20-9 20-20zm64 0c0-11-9-20-20-20s-20 9-20 20 9 20 20 20 20-9 20-20z"></path>
  </symbol>
  <symbol id="drafting-compass" viewBox="0 0 512 512">
    <path d="M457.01 344.42c-25.05 20.33-52.63 37.18-82.54 49.05l54.38 94.19 53.95 23.04c9.81 4.19 20.89-2.21 22.17-12.8l7.02-58.25-54.98-95.23zm42.49-94.56c4.86-7.67 1.89-17.99-6.05-22.39l-28.07-15.57c-7.48-4.15-16.61-1.46-21.26 5.72C403.01 281.15 332.25 320 256 320c-23.93 0-47.23-4.25-69.41-11.53l67.36-116.68c.7.02 1.34.21 2.04.21s1.35-.19 2.04-.21l51.09 88.5c31.23-8.96 59.56-25.75 82.61-48.92l-51.79-89.71C347.39 128.03 352 112.63 352 96c0-53.02-42.98-96-96-96s-96 42.98-96 96c0 16.63 4.61 32.03 12.05 45.66l-68.3 118.31c-12.55-11.61-23.96-24.59-33.68-39-4.79-7.1-13.97-9.62-21.38-5.33l-27.75 16.07c-7.85 4.54-10.63 14.9-5.64 22.47 15.57 23.64 34.69 44.21 55.98 62.02L0 439.66l7.02 58.25c1.28 10.59 12.36 16.99 22.17 12.8l53.95-23.04 70.8-122.63C186.13 377.28 220.62 384 256 384c99.05 0 190.88-51.01 243.5-134.14zM256 64c17.67 0 32 14.33 32 32s-14.33 32-32 32-32-14.33-32-32 14.33-32 32-32z"></path>
  </symbol>
  <symbol id="dragon" viewBox="0 0 640 512">
    <path d="M18.32 255.78L192 223.96l-91.28 68.69c-10.08 10.08-2.94 27.31 11.31 27.31h222.7c-9.44-26.4-14.73-54.47-14.73-83.38v-42.27l-119.73-87.6c-23.82-15.88-55.29-14.01-77.06 4.59L5.81 227.64c-12.38 10.33-3.45 30.42 12.51 28.14zm556.87 34.1l-100.66-50.31A47.992 47.992 0 0 1 448 196.65v-36.69h64l28.09 22.63c6 6 14.14 9.37 22.63 9.37h30.97a32 32 0 0 0 28.62-17.69l14.31-28.62a32.005 32.005 0 0 0-3.02-33.51l-74.53-99.38C553.02 4.7 543.54 0 533.47 0H296.02c-7.13 0-10.7 8.57-5.66 13.61L352 63.96 292.42 88.8c-5.9 2.95-5.9 11.36 0 14.31L352 127.96v108.62c0 72.08 36.03 139.39 96 179.38-195.59 6.81-344.56 41.01-434.1 60.91C5.78 478.67 0 485.88 0 494.2 0 504 7.95 512 17.76 512h499.08c63.29.01 119.61-47.56 122.99-110.76 2.52-47.28-22.73-90.4-64.64-111.36zM489.18 66.25l45.65 11.41c-2.75 10.91-12.47 18.89-24.13 18.26-12.96-.71-25.85-12.53-21.52-29.67z"></path>
  </symbol>
  <symbol id="draw-polygon" viewBox="0 0 448 512">
    <path d="M384 352c-.35 0-.67.1-1.02.1l-39.2-65.32c5.07-9.17 8.22-19.56 8.22-30.78s-3.14-21.61-8.22-30.78l39.2-65.32c.35.01.67.1 1.02.1 35.35 0 64-28.65 64-64s-28.65-64-64-64c-23.63 0-44.04 12.95-55.12 32H119.12C108.04 44.95 87.63 32 64 32 28.65 32 0 60.65 0 96c0 23.63 12.95 44.04 32 55.12v209.75C12.95 371.96 0 392.37 0 416c0 35.35 28.65 64 64 64 23.63 0 44.04-12.95 55.12-32h209.75c11.09 19.05 31.49 32 55.12 32 35.35 0 64-28.65 64-64 .01-35.35-28.64-64-63.99-64zm-288 8.88V151.12A63.825 63.825 0 0 0 119.12 128h208.36l-38.46 64.1c-.35-.01-.67-.1-1.02-.1-35.35 0-64 28.65-64 64s28.65 64 64 64c.35 0 .67-.1 1.02-.1l38.46 64.1H119.12A63.748 63.748 0 0 0 96 360.88zM272 256c0-8.82 7.18-16 16-16s16 7.18 16 16-7.18 16-16 16-16-7.18-16-16zM400 96c0 8.82-7.18 16-16 16s-16-7.18-16-16 7.18-16 16-16 16 7.18 16 16zM64 80c8.82 0 16 7.18 16 16s-7.18 16-16 16-16-7.18-16-16 7.18-16 16-16zM48 416c0-8.82 7.18-16 16-16s16 7.18 16 16-7.18 16-16 16-16-7.18-16-16zm336 16c-8.82 0-16-7.18-16-16s7.18-16 16-16 16 7.18 16 16-7.18 16-16 16z"></path>
  </symbol>
  <symbol id="drum" viewBox="0 0 576 512">
    <path d="M458.08 120.88l102.39-61.43c15.16-9.09 20.06-28.75 10.97-43.91C562.34.39 542.7-4.53 527.53 4.57l-160.69 96.41A629.32 629.32 0 0 0 288 96C128.94 96 0 153.31 0 224v160.83c0 30.46 24.03 58.4 64 80.37v-96.37c0-17.6 14.4-32 32-32s32 14.4 32 32v122.41c37.4 11.13 81 18.44 128 20.75V400.84c0-17.6 14.4-32 32-32s32 14.4 32 32V512c47-2.31 90.6-9.62 128-20.75V368.84c0-17.6 14.4-32 32-32s32 14.4 32 32v96.37c39.97-21.97 64-49.91 64-80.37V224.01c-.01-42.38-46.54-79.84-117.92-103.13zM288 304c-132.55 0-240-35.82-240-80s107.45-80 240-80c2.34 0 4.62.1 6.94.12l-87.41 52.44c-15.16 9.09-20.06 28.75-10.97 43.91 9.56 15.93 29.51 19.61 43.91 10.97l162.71-97.62C477.55 167.41 528 193.74 528 224.01 528 268.19 420.54 304 288 304z"></path>
  </symbol>
  <symbol id="drum-steelpan" viewBox="0 0 576 512">
    <path d="M288 32C128.94 32 0 89.31 0 160v192c0 70.69 128.94 128 288 128s288-57.31 288-128V160c0-70.69-128.94-128-288-128zm-82.99 158.36c-4.45 16.61-14.54 30.57-28.31 40.48C100.23 217.46 48 190.78 48 160c0-30.16 50.11-56.39 124.04-70.03l25.6 44.34c9.86 17.09 12.48 36.99 7.37 56.05zM288 240c-21.08 0-41.41-1-60.89-2.7 8.06-26.13 32.15-45.3 60.89-45.3s52.83 19.17 60.89 45.3C329.41 239 309.08 240 288 240zm64-144c0 35.29-28.71 64-64 64s-64-28.71-64-64V82.96c20.4-1.88 41.8-2.96 64-2.96s43.6 1.08 64 2.96V96zm46.93 134.9c-13.81-9.91-23.94-23.9-28.4-40.54-5.11-19.06-2.49-38.96 7.38-56.04l25.65-44.42C477.72 103.5 528 129.79 528 160c0 30.83-52.4 57.54-129.07 70.9z"></path>
  </symbol>
  <symbol id="drumstick-bite" viewBox="0 0 512 512">
    <path d="M462.8 49.57a169.44 169.44 0 0 0-239.5 0C187.82 85 160.13 128 160.13 192v85.83l-40.62 40.59c-9.7 9.69-24 11.07-36.78 6a60.33 60.33 0 0 0-65 98.72C33 438.39 54.24 442.7 73.85 438.21c-4.5 19.6-.18 40.83 15.1 56.1a60.35 60.35 0 0 0 98.8-65c-5.09-12.73-3.72-27 6-36.75L234.36 352h85.89a187.87 187.87 0 0 0 61.89-10c-39.64-43.89-39.83-110.23 1.05-151.07 34.38-34.36 86.76-39.46 128.74-16.8 1.3-44.96-14.81-90.28-49.13-124.56z"></path>
  </symbol>
  <symbol id="dumbbell" viewBox="0 0 640 512">
    <path d="M104 96H56c-13.3 0-24 10.7-24 24v104H8c-4.4 0-8 3.6-8 8v48c0 4.4 3.6 8 8 8h24v104c0 13.3 10.7 24 24 24h48c13.3 0 24-10.7 24-24V120c0-13.3-10.7-24-24-24zm528 128h-24V120c0-13.3-10.7-24-24-24h-48c-13.3 0-24 10.7-24 24v272c0 13.3 10.7 24 24 24h48c13.3 0 24-10.7 24-24V288h24c4.4 0 8-3.6 8-8v-48c0-4.4-3.6-8-8-8zM456 32h-48c-13.3 0-24 10.7-24 24v168H256V56c0-13.3-10.7-24-24-24h-48c-13.3 0-24 10.7-24 24v400c0 13.3 10.7 24 24 24h48c13.3 0 24-10.7 24-24V288h128v168c0 13.3 10.7 24 24 24h48c13.3 0 24-10.7 24-24V56c0-13.3-10.7-24-24-24z"></path>
  </symbol>
  <symbol id="dumpster" viewBox="0 0 576 512">
    <path d="M560 160c10.4 0 18-9.8 15.5-19.9l-24-96C549.7 37 543.3 32 536 32h-98.9l25.6 128H560zM272 32H171.5l-25.6 128H272V32zm132.5 0H304v128h126.1L404.5 32zM16 160h97.3l25.6-128H40c-7.3 0-13.7 5-15.5 12.1l-24 96C-2 150.2 5.6 160 16 160zm544 64h-20l4-32H32l4 32H16c-8.8 0-16 7.2-16 16v32c0 8.8 7.2 16 16 16h28l20 160v16c0 8.8 7.2 16 16 16h32c8.8 0 16-7.2 16-16v-16h320v16c0 8.8 7.2 16 16 16h32c8.8 0 16-7.2 16-16v-16l20-160h28c8.8 0 16-7.2 16-16v-32c0-8.8-7.2-16-16-16z"></path>
  </symbol>
  <symbol id="dumpster-fire" viewBox="0 0 640 512">
    <path d="M418.7 104.1l.2-.2-14.4-72H304v128h60.8c16.2-19.3 34.2-38.2 53.9-55.8zM272 32H171.5l-25.6 128H272V32zm189.3 72.1c18.2 16.3 35.5 33.7 51.1 51.5 5.7-5.6 11.4-11.1 17.3-16.3l21.3-19 21.3 19c1.1.9 2.1 2.1 3.1 3.1-.1-.8.2-1.5 0-2.3l-24-96C549.7 37 543.3 32 536 32h-98.9l12.3 61.5 11.9 10.6zM16 160h97.3l25.6-128H40c-7.3 0-13.7 5-15.5 12.1l-24 96C-2 150.2 5.6 160 16 160zm324.6 32H32l4 32H16c-8.8 0-16 7.2-16 16v32c0 8.8 7.2 16 16 16h28l20 160v16c0 8.8 7.2 16 16 16h32c8.8 0 16-7.2 16-16v-16h208.8c-30.2-33.7-48.8-77.9-48.8-126.4 0-35.9 19.9-82.9 52.6-129.6zm210.5-28.8c-14.9 13.3-28.3 27.2-40.2 41.2-19.5-25.8-43.6-52-71-76.4-70.2 62.7-120 144.3-120 193.6 0 87.5 71.6 158.4 160 158.4s160-70.9 160-158.4c.1-36.6-37-112.2-88.8-158.4zm-18.6 229.4c-14.7 10.7-32.9 17-52.5 17-49 0-88.9-33.5-88.9-88 0-27.1 16.5-51 49.4-91.9 4.7 5.6 67.1 88.1 67.1 88.1l39.8-47c2.8 4.8 5.4 9.5 7.7 14 18.6 36.7 10.8 83.6-22.6 107.8z"></path>
  </symbol>
  <symbol id="dungeon" viewBox="0 0 512 512">
    <path d="M128.73 195.32l-82.81-51.76c-8.04-5.02-18.99-2.17-22.93 6.45A254.19 254.19 0 0 0 .54 239.28C-.05 248.37 7.59 256 16.69 256h97.13c7.96 0 14.08-6.25 15.01-14.16 1.09-9.33 3.24-18.33 6.24-26.94 2.56-7.34.25-15.46-6.34-19.58zM319.03 8C298.86 2.82 277.77 0 256 0s-42.86 2.82-63.03 8c-9.17 2.35-13.91 12.6-10.39 21.39l37.47 104.03A16.003 16.003 0 0 0 235.1 144h41.8c6.75 0 12.77-4.23 15.05-10.58l37.47-104.03c3.52-8.79-1.22-19.03-10.39-21.39zM112 288H16c-8.84 0-16 7.16-16 16v64c0 8.84 7.16 16 16 16h96c8.84 0 16-7.16 16-16v-64c0-8.84-7.16-16-16-16zm0 128H16c-8.84 0-16 7.16-16 16v64c0 8.84 7.16 16 16 16h96c8.84 0 16-7.16 16-16v-64c0-8.84-7.16-16-16-16zm77.31-283.67l-36.32-90.8c-3.53-8.83-14.13-12.99-22.42-8.31a257.308 257.308 0 0 0-71.61 59.89c-6.06 7.32-3.85 18.48 4.22 23.52l82.93 51.83c6.51 4.07 14.66 2.62 20.11-2.79 5.18-5.15 10.79-9.85 16.79-14.05 6.28-4.41 9.15-12.17 6.3-19.29zM398.18 256h97.13c9.1 0 16.74-7.63 16.15-16.72a254.135 254.135 0 0 0-22.45-89.27c-3.94-8.62-14.89-11.47-22.93-6.45l-82.81 51.76c-6.59 4.12-8.9 12.24-6.34 19.58 3.01 8.61 5.15 17.62 6.24 26.94.93 7.91 7.05 14.16 15.01 14.16zm54.85-162.89a257.308 257.308 0 0 0-71.61-59.89c-8.28-4.68-18.88-.52-22.42 8.31l-36.32 90.8c-2.85 7.12.02 14.88 6.3 19.28 6 4.2 11.61 8.9 16.79 14.05 5.44 5.41 13.6 6.86 20.11 2.79l82.93-51.83c8.07-5.03 10.29-16.19 4.22-23.51zM496 288h-96c-8.84 0-16 7.16-16 16v64c0 8.84 7.16 16 16 16h96c8.84 0 16-7.16 16-16v-64c0-8.84-7.16-16-16-16zm0 128h-96c-8.84 0-16 7.16-16 16v64c0 8.84 7.16 16 16 16h96c8.84 0 16-7.16 16-16v-64c0-8.84-7.16-16-16-16zM240 177.62V472c0 4.42 3.58 8 8 8h16c4.42 0 8-3.58 8-8V177.62c-5.23-.89-10.52-1.62-16-1.62s-10.77.73-16 1.62zm-64 41.51V472c0 4.42 3.58 8 8 8h16c4.42 0 8-3.58 8-8V189.36c-12.78 7.45-23.84 17.47-32 29.77zm128-29.77V472c0 4.42 3.58 8 8 8h16c4.42 0 8-3.58 8-8V219.13c-8.16-12.3-19.22-22.32-32-29.77z"></path>
  </symbol>
</svg>